<svg width="169" height="50" viewBox="0 0 169 50" fill="none" xmlns="http://www.w3.org/2000/svg">
<g id="Group 508">
<path id="Vector" d="M162.5 50H6.25C2.75 50 0 47.25 0 43.75V6.25C0 2.75 2.75 0 6.25 0H162.5C166 0 168.75 2.75 168.75 6.25V43.75C168.75 47.25 166 50 162.5 50Z" fill="#0B174D"/>
<path id="Vector_2" d="M59.25 12.75C59.25 13.75 59 14.625 58.375 15.25C57.625 16 56.75 16.375 55.625 16.375C54.5 16.375 53.625 16 52.875 15.25C52.125 14.5 51.75 13.625 51.75 12.5C51.75 11.375 52.125 10.5 52.875 9.75C53.625 9 54.5 8.625 55.625 8.625C56.125 8.625 56.625 8.75 57.125 9C57.625 9.25 58 9.5 58.25 9.875L57.625 10.5C57.125 9.875 56.5 9.625 55.625 9.625C54.875 9.625 54.125 9.875 53.625 10.5C53 11 52.75 11.75 52.75 12.625C52.75 13.5 53 14.25 53.625 14.75C54.25 15.25 54.875 15.625 55.625 15.625C56.5 15.625 57.125 15.375 57.75 14.75C58.125 14.375 58.375 13.875 58.375 13.25H55.625V12.25H59.25V12.75ZM65 9.625H61.625V12H64.75V12.875H61.625V15.25H65V16.25H60.625V8.75H65V9.625ZM69.125 16.25H68.125V9.625H66V8.75H71.25V9.625H69.125V16.25ZM74.875 16.25V8.75H75.875V16.25H74.875ZM80.125 16.25H79.125V9.625H77V8.75H82.125V9.625H80V16.25H80.125ZM92 15.25C91.25 16 90.375 16.375 89.25 16.375C88.125 16.375 87.25 16 86.5 15.25C85.75 14.5 85.375 13.625 85.375 12.5C85.375 11.375 85.75 10.5 86.5 9.75C87.25 9 88.125 8.625 89.25 8.625C90.375 8.625 91.25 9 92 9.75C92.75 10.5 93.125 11.375 93.125 12.5C93.125 13.625 92.75 14.5 92 15.25ZM87.25 14.625C87.75 15.125 88.5 15.5 89.25 15.5C90 15.5 90.75 15.25 91.25 14.625C91.75 14.125 92.125 13.375 92.125 12.5C92.125 11.625 91.875 10.875 91.25 10.375C90.75 9.875 90 9.5 89.25 9.5C88.5 9.5 87.75 9.75 87.25 10.375C86.75 10.875 86.375 11.625 86.375 12.5C86.375 13.375 86.625 14.125 87.25 14.625ZM94.5 16.25V8.75H95.625L99.25 14.625V8.75H100.25V16.25H99.25L95.375 10.125V16.25H94.5Z" fill="white" stroke="white" stroke-width="1.18519" stroke-miterlimit="10"/>
<path id="Vector_3" d="M85.125 27.25C82.125 27.25 79.75 29.5 79.75 32.625C79.75 35.625 82.125 38 85.125 38C88.125 38 90.5 35.75 90.5 32.625C90.5 29.375 88.125 27.25 85.125 27.25ZM85.125 35.75C83.5 35.75 82.125 34.375 82.125 32.5C82.125 30.625 83.5 29.25 85.125 29.25C86.75 29.25 88.125 30.5 88.125 32.5C88.125 34.375 86.75 35.75 85.125 35.75ZM73.5 27.25C70.5 27.25 68.125 29.5 68.125 32.625C68.125 35.625 70.5 38 73.5 38C76.5 38 78.875 35.75 78.875 32.625C78.875 29.375 76.5 27.25 73.5 27.25ZM73.5 35.75C71.875 35.75 70.5 34.375 70.5 32.5C70.5 30.625 71.875 29.25 73.5 29.25C75.125 29.25 76.5 30.5 76.5 32.5C76.5 34.375 75.125 35.75 73.5 35.75ZM59.625 28.875V31.125H65C64.875 32.375 64.375 33.375 63.75 34C63 34.75 61.75 35.625 59.625 35.625C56.25 35.625 53.75 33 53.75 29.625C53.75 26.25 56.375 23.625 59.625 23.625C61.375 23.625 62.75 24.375 63.75 25.25L65.375 23.625C64 22.375 62.25 21.375 59.75 21.375C55.25 21.375 51.375 25.125 51.375 29.625C51.375 34.125 55.25 37.875 59.75 37.875C62.25 37.875 64 37.125 65.5 35.5C67 34 67.5 31.875 67.5 30.25C67.5 29.75 67.5 29.25 67.375 28.875H59.625ZM116.375 30.625C115.875 29.375 114.625 27.25 111.875 27.25C109.125 27.25 106.875 29.375 106.875 32.625C106.875 35.625 109.125 38 112.125 38C114.5 38 116 36.5 116.5 35.625L114.75 34.375C114.125 35.25 113.375 35.875 112.125 35.875C110.875 35.875 110.125 35.375 109.5 34.25L116.625 31.25L116.375 30.625ZM109.125 32.375C109.125 30.375 110.75 29.25 111.875 29.25C112.75 29.25 113.625 29.75 113.875 30.375L109.125 32.375ZM103.25 37.5H105.625V21.875H103.25V37.5ZM99.5 28.375C98.875 27.75 97.875 27.125 96.625 27.125C94 27.125 91.5 29.5 91.5 32.5C91.5 35.5 93.875 37.75 96.625 37.75C97.875 37.75 98.875 37.125 99.375 36.5H99.5V37.25C99.5 39.25 98.375 40.375 96.625 40.375C95.25 40.375 94.25 39.375 94 38.5L92 39.375C92.625 40.75 94.125 42.5 96.75 42.5C99.5 42.5 101.75 40.875 101.75 37V27.5H99.5V28.375ZM96.75 35.75C95.125 35.75 93.75 34.375 93.75 32.5C93.75 30.625 95.125 29.25 96.75 29.25C98.375 29.25 99.625 30.625 99.625 32.5C99.625 34.375 98.375 35.75 96.75 35.75ZM127.25 21.875H121.625V37.5H124V31.625H127.25C129.875 31.625 132.375 29.75 132.375 26.75C132.375 23.75 129.875 21.875 127.25 21.875ZM127.375 29.375H124V24H127.375C129.125 24 130.125 25.5 130.125 26.625C130 28 129 29.375 127.375 29.375ZM141.75 27.125C140 27.125 138.25 27.875 137.625 29.5L139.75 30.375C140.25 29.5 141 29.25 141.875 29.25C143.125 29.25 144.25 30 144.375 31.25V31.375C144 31.125 143 30.75 142 30.75C139.75 30.75 137.5 32 137.5 34.25C137.5 36.375 139.375 37.75 141.375 37.75C143 37.75 143.75 37 144.375 36.25H144.5V37.5H146.75V31.5C146.5 28.75 144.375 27.125 141.75 27.125ZM141.5 35.75C140.75 35.75 139.625 35.375 139.625 34.375C139.625 33.125 141 32.75 142.125 32.75C143.125 32.75 143.625 33 144.25 33.25C144 34.75 142.75 35.75 141.5 35.75ZM154.625 27.5L152 34.25H151.875L149.125 27.5H146.625L150.75 37L148.375 42.25H150.75L157.125 27.5H154.625ZM133.625 37.5H136V21.875H133.625V37.5Z" fill="white"/>
<g id="Group">
<path id="Vector_4" d="M13 9.375C12.625 9.75 12.5 10.375 12.5 11.125V38.75C12.5 39.5 12.75 40.125 13.125 40.5L13.25 40.625L28.75 25.125V24.875L13 9.375Z" fill="url(#paint0_linear_321_3107)"/>
<path id="Vector_5" d="M33.75 30.375L28.625 25.25V24.875L33.75 19.75L33.875 19.875L40 23.375C41.75 24.375 41.75 26 40 27L33.75 30.375Z" fill="url(#paint1_linear_321_3107)"/>
<path id="Vector_6" d="M33.875 30.25L28.625 25L13 40.625C13.625 41.25 14.5 41.25 15.625 40.75L33.875 30.25Z" fill="url(#paint2_linear_321_3107)"/>
<path id="Vector_7" d="M33.875 19.75L15.625 9.37502C14.5 8.75002 13.625 8.87502 13 9.50002L28.625 25L33.875 19.75Z" fill="url(#paint3_linear_321_3107)"/>
<path id="Vector_8" opacity="0.2" d="M33.75 30.125L15.625 40.375C14.625 41 13.75 40.875 13.125 40.375L13 40.5L13.125 40.625C13.75 41.125 14.625 41.25 15.625 40.625L33.75 30.125Z" fill="black"/>
<path id="Vector_9" opacity="0.12" d="M13 40.375C12.625 40 12.5 39.375 12.5 38.625V38.75C12.5 39.5 12.75 40.125 13.125 40.5V40.375H13ZM40 26.625L33.75 30.125L33.875 30.25L40 26.75C40.875 26.25 41.25 25.625 41.25 25C41.25 25.625 40.75 26.125 40 26.625Z" fill="black"/>
<path id="Vector_10" opacity="0.25" d="M15.625 9.50009L40 23.3751C40.75 23.8751 41.25 24.3751 41.25 25.0001C41.25 24.3751 40.875 23.7501 40 23.2501L15.625 9.37509C13.875 8.37509 12.5 9.12509 12.5 11.1251V11.2501C12.5 9.37509 13.875 8.50009 15.625 9.50009Z" fill="white"/>
</g>
</g>
<defs>
<linearGradient id="paint0_linear_321_3107" x1="27.25" y1="10.8875" x2="6.27125" y2="31.865" gradientUnits="userSpaceOnUse">
<stop stop-color="#00A0FF"/>
<stop offset="0.007" stop-color="#00A1FF"/>
<stop offset="0.26" stop-color="#00BEFF"/>
<stop offset="0.512" stop-color="#00D2FF"/>
<stop offset="0.76" stop-color="#00DFFF"/>
<stop offset="1" stop-color="#00E3FF"/>
</linearGradient>
<linearGradient id="paint1_linear_321_3107" x1="42.2925" y1="25.0012" x2="12.0462" y2="25.0012" gradientUnits="userSpaceOnUse">
<stop stop-color="#FFE000"/>
<stop offset="0.409" stop-color="#FFBD00"/>
<stop offset="0.775" stop-color="#FFA500"/>
<stop offset="1" stop-color="#FF9C00"/>
</linearGradient>
<linearGradient id="paint2_linear_321_3107" x1="31.0337" y1="27.87" x2="2.58625" y2="56.3175" gradientUnits="userSpaceOnUse">
<stop stop-color="#FF3A44"/>
<stop offset="1" stop-color="#C31162"/>
</linearGradient>
<linearGradient id="paint3_linear_321_3107" x1="9.12125" y1="0.220018" x2="21.825" y2="12.9238" gradientUnits="userSpaceOnUse">
<stop stop-color="#32A071"/>
<stop offset="0.069" stop-color="#2DA771"/>
<stop offset="0.476" stop-color="#15CF74"/>
<stop offset="0.801" stop-color="#06E775"/>
<stop offset="1" stop-color="#00F076"/>
</linearGradient>
</defs>
</svg>
