<svg width="1600" height="961" viewBox="0 0 1600 961" fill="none" xmlns="http://www.w3.org/2000/svg">
<g opacity="0.5">
<mask id="mask0_515_5" style="mask-type:alpha" maskUnits="userSpaceOnUse" x="0" y="0" width="1600" height="961">
<rect width="1600" height="961" fill="#030924"/>
</mask>
<g mask="url(#mask0_515_5)">
<rect width="240.336" height="1657.77" transform="matrix(-0.967501 0.252869 0.105928 0.994374 206.732 -139.98)" fill="url(#paint0_linear_515_5)"/>
<path d="M-4.91822 116.757L206.732 -139.98L250.633 272.131L-4.91822 116.757Z" fill="url(#paint1_linear_515_5)"/>
<path d="M191.517 278.087L1.42505 176.303L34.4387 486.21L191.517 278.087Z" fill="url(#paint2_linear_515_5)"/>
<path d="M38.9829 528.868L250.633 272.131L294.534 684.242L38.9829 528.868Z" fill="url(#paint3_linear_515_5)"/>
<path d="M235.51 691.062L45.5017 590.062L78.3397 898.321L235.51 691.062Z" fill="url(#paint4_linear_515_5)"/>
<path d="M279.587 1104.82L89.5784 1003.82L122.416 1312.08L279.587 1104.82Z" fill="url(#paint5_linear_515_5)"/>
<path d="M82.8839 940.978L294.534 684.242L338.435 1096.35L82.8839 940.978Z" fill="url(#paint6_linear_515_5)"/>
<rect width="240.336" height="1657.77" transform="matrix(-0.967501 0.252869 0.105928 0.994374 671.132 -262.089)" fill="url(#paint7_linear_515_5)"/>
<path d="M459.482 -5.35229L671.132 -262.089L715.033 150.022L459.482 -5.35229Z" fill="url(#paint8_linear_515_5)"/>
<path d="M655.917 155.978L465.825 54.1936L498.839 364.101L655.917 155.978Z" fill="url(#paint9_linear_515_5)"/>
<path d="M503.383 406.759L715.033 150.022L758.934 562.133L503.383 406.759Z" fill="url(#paint10_linear_515_5)"/>
<path d="M699.911 568.953L509.902 467.953L542.74 776.212L699.911 568.953Z" fill="url(#paint11_linear_515_5)"/>
<path d="M743.987 982.712L553.978 881.712L586.817 1189.97L743.987 982.712Z" fill="url(#paint12_linear_515_5)"/>
<path d="M547.284 818.87L758.934 562.133L802.835 974.244L547.284 818.87Z" fill="url(#paint13_linear_515_5)"/>
<rect width="240.336" height="1657.77" transform="matrix(-0.967501 0.252869 0.105928 0.994374 1135.17 -384.264)" fill="url(#paint14_linear_515_5)"/>
<path d="M923.524 -127.527L1135.17 -384.264L1179.07 27.8472L923.524 -127.527Z" fill="url(#paint15_linear_515_5)"/>
<path d="M1119.96 33.8025L929.867 -67.9814L962.881 241.926L1119.96 33.8025Z" fill="url(#paint16_linear_515_5)"/>
<path d="M967.425 284.584L1179.07 27.8473L1222.98 439.958L967.425 284.584Z" fill="url(#paint17_linear_515_5)"/>
<path d="M1163.95 446.778L973.944 345.778L1006.78 654.037L1163.95 446.778Z" fill="url(#paint18_linear_515_5)"/>
<path d="M1208.03 860.537L1018.02 759.537L1050.86 1067.8L1208.03 860.537Z" fill="url(#paint19_linear_515_5)"/>
<path d="M1011.33 696.695L1222.98 439.958L1266.88 852.069L1011.33 696.695Z" fill="url(#paint20_linear_515_5)"/>
<path d="M1055.23 1108.81L1266.88 852.069L1310.78 1264.18L1055.23 1108.81Z" fill="url(#paint21_linear_515_5)"/>
<rect width="240.336" height="1657.77" transform="matrix(-0.967501 0.252869 0.105928 0.994374 1598.97 -506.374)" fill="url(#paint22_linear_515_5)"/>
<path d="M1583.75 -88.3074L1393.66 -190.091L1426.68 119.816L1583.75 -88.3074Z" fill="url(#paint23_linear_515_5)"/>
<path d="M1431.22 162.474L1642.87 -94.2628L1686.77 317.848L1431.22 162.474Z" fill="url(#paint24_linear_515_5)"/>
<path d="M1627.75 324.668L1437.74 223.668L1470.58 531.927L1627.75 324.668Z" fill="url(#paint25_linear_515_5)"/>
<path d="M1671.82 738.428L1481.82 637.427L1514.65 945.686L1671.82 738.428Z" fill="url(#paint26_linear_515_5)"/>
<path d="M1475.12 574.585L1686.77 317.848L1730.67 729.959L1475.12 574.585Z" fill="url(#paint27_linear_515_5)"/>
<path d="M1519.02 986.695L1730.67 729.959L1774.57 1142.07L1519.02 986.695Z" fill="url(#paint28_linear_515_5)"/>
<rect width="240.368" height="1657.66" transform="matrix(0.967281 -0.253707 0.106381 0.994325 -258.198 -17.1534)" fill="url(#paint29_linear_515_5)"/>
<path d="M-4.7315 117.804L-258.198 -17.1534L-214.112 394.909L-4.7315 117.804Z" fill="url(#paint30_linear_515_5)"/>
<path d="M-156.974 370.427L1.63843 177.342L34.7909 487.213L-156.974 370.427Z" fill="url(#paint31_linear_515_5)"/>
<path d="M39.3542 529.866L-214.112 394.909L-170.026 806.972L39.3542 529.866Z" fill="url(#paint32_linear_515_5)"/>
<path d="M-112.796 783.354L45.9005 591.053L78.8767 899.276L-112.796 783.354Z" fill="url(#paint33_linear_515_5)"/>
<path d="M83.44 941.929L-170.026 806.972L-125.94 1219.03L83.44 941.929Z" fill="url(#paint34_linear_515_5)"/>
<rect width="240.368" height="1657.66" transform="matrix(0.967281 -0.253707 0.106381 0.994325 206.202 -139.262)" fill="url(#paint35_linear_515_5)"/>
<path d="M459.669 -4.30549L206.202 -139.262L250.288 272.8L459.669 -4.30549Z" fill="url(#paint36_linear_515_5)"/>
<path d="M307.426 248.317L466.039 55.2334L499.191 365.104L307.426 248.317Z" fill="url(#paint37_linear_515_5)"/>
<path d="M503.754 407.757L250.288 272.8L294.374 684.863L503.754 407.757Z" fill="url(#paint38_linear_515_5)"/>
<path d="M351.604 661.244L510.301 468.944L543.277 777.167L351.604 661.244Z" fill="url(#paint39_linear_515_5)"/>
<path d="M395.866 1074.96L554.563 882.655L587.539 1190.88L395.866 1074.96Z" fill="url(#paint40_linear_515_5)"/>
<path d="M547.84 819.82L294.374 684.863L338.46 1096.93L547.84 819.82Z" fill="url(#paint41_linear_515_5)"/>
<rect width="240.368" height="1657.66" transform="matrix(0.967281 -0.253707 0.106381 0.994325 670.244 -261.437)" fill="url(#paint42_linear_515_5)"/>
<path d="M923.711 -126.48L670.244 -261.437L714.33 150.625L923.711 -126.48Z" fill="url(#paint43_linear_515_5)"/>
<path d="M771.468 126.142L930.08 -66.9416L963.233 242.929L771.468 126.142Z" fill="url(#paint44_linear_515_5)"/>
<path d="M967.796 285.582L714.33 150.625L758.416 562.688L967.796 285.582Z" fill="url(#paint45_linear_515_5)"/>
<path d="M815.646 539.07L974.342 346.769L1007.32 654.992L815.646 539.07Z" fill="url(#paint46_linear_515_5)"/>
<path d="M859.908 952.78L1018.6 760.48L1051.58 1068.7L859.908 952.78Z" fill="url(#paint47_linear_515_5)"/>
<path d="M1011.88 697.645L758.416 562.688L802.502 974.75L1011.88 697.645Z" fill="url(#paint48_linear_515_5)"/>
<path d="M1055.97 1109.71L802.502 974.75L846.587 1386.81L1055.97 1109.71Z" fill="url(#paint49_linear_515_5)"/>
<rect width="240.368" height="1657.66" transform="matrix(0.967281 -0.253707 0.106381 0.994325 1134.04 -383.547)" fill="url(#paint50_linear_515_5)"/>
<path d="M1387.51 -248.59L1134.04 -383.547L1178.13 28.5152L1387.51 -248.59Z" fill="url(#paint51_linear_515_5)"/>
<path d="M1235.26 4.03254L1393.88 -189.052L1427.03 120.819L1235.26 4.03254Z" fill="url(#paint52_linear_515_5)"/>
<path d="M1431.59 163.472L1178.13 28.5152L1222.21 440.578L1431.59 163.472Z" fill="url(#paint53_linear_515_5)"/>
<path d="M1279.44 416.96L1438.14 224.659L1471.11 532.882L1279.44 416.96Z" fill="url(#paint54_linear_515_5)"/>
<path d="M1323.7 830.67L1482.4 638.37L1515.38 946.593L1323.7 830.67Z" fill="url(#paint55_linear_515_5)"/>
<path d="M1475.68 575.535L1222.21 440.578L1266.3 852.64L1475.68 575.535Z" fill="url(#paint56_linear_515_5)"/>
<path d="M1519.76 987.597L1266.3 852.64L1310.38 1264.7L1519.76 987.597Z" fill="url(#paint57_radial_515_5)" style="mix-blend-mode:screen"/>
</g>
</g>
<rect width="1600" height="961" fill="url(#paint58_linear_515_5)"/>
<defs>
<linearGradient id="paint0_linear_515_5" x1="240.336" y1="0" x2="-201.703" y2="1602.12" gradientUnits="userSpaceOnUse">
<stop stop-color="#D8D8D8"/>
<stop offset="1" stop-color="white"/>
</linearGradient>
<linearGradient id="paint1_linear_515_5" x1="90.469" y1="-109.593" x2="194.099" y2="286.907" gradientUnits="userSpaceOnUse">
<stop stop-color="#D8D8D8"/>
<stop offset="1" stop-color="#EFEFEF"/>
</linearGradient>
<linearGradient id="paint2_linear_515_5" x1="88.622" y1="153.512" x2="166.552" y2="451.68" gradientUnits="userSpaceOnUse">
<stop stop-color="#D8D8D8"/>
<stop offset="1" stop-color="#EFEFEF"/>
</linearGradient>
<linearGradient id="paint3_linear_515_5" x1="134.37" y1="302.518" x2="238.001" y2="699.018" gradientUnits="userSpaceOnUse">
<stop stop-color="#D8D8D8"/>
<stop offset="1" stop-color="#EFEFEF"/>
</linearGradient>
<linearGradient id="paint4_linear_515_5" x1="132.699" y1="567.272" x2="210.214" y2="863.854" gradientUnits="userSpaceOnUse">
<stop stop-color="#D8D8D8"/>
<stop offset="1" stop-color="#EFEFEF"/>
</linearGradient>
<linearGradient id="paint5_linear_515_5" x1="176.775" y1="981.031" x2="254.291" y2="1277.61" gradientUnits="userSpaceOnUse">
<stop stop-color="#D8D8D8"/>
<stop offset="1" stop-color="#EFEFEF"/>
</linearGradient>
<linearGradient id="paint6_linear_515_5" x1="178.271" y1="714.629" x2="281.902" y2="1111.13" gradientUnits="userSpaceOnUse">
<stop stop-color="#D8D8D8"/>
<stop offset="1" stop-color="#EFEFEF"/>
</linearGradient>
<linearGradient id="paint7_linear_515_5" x1="240.336" y1="0" x2="-201.703" y2="1602.12" gradientUnits="userSpaceOnUse">
<stop stop-color="#D8D8D8"/>
<stop offset="1" stop-color="white"/>
</linearGradient>
<linearGradient id="paint8_linear_515_5" x1="554.869" y1="-231.702" x2="658.5" y2="164.798" gradientUnits="userSpaceOnUse">
<stop stop-color="#D8D8D8"/>
<stop offset="1" stop-color="#EFEFEF"/>
</linearGradient>
<linearGradient id="paint9_linear_515_5" x1="553.022" y1="31.4035" x2="630.952" y2="329.571" gradientUnits="userSpaceOnUse">
<stop stop-color="#D8D8D8"/>
<stop offset="1" stop-color="#EFEFEF"/>
</linearGradient>
<linearGradient id="paint10_linear_515_5" x1="598.77" y1="180.409" x2="702.401" y2="576.909" gradientUnits="userSpaceOnUse">
<stop stop-color="#D8D8D8"/>
<stop offset="1" stop-color="#EFEFEF"/>
</linearGradient>
<linearGradient id="paint11_linear_515_5" x1="597.099" y1="445.163" x2="674.614" y2="741.745" gradientUnits="userSpaceOnUse">
<stop stop-color="#D8D8D8"/>
<stop offset="1" stop-color="#EFEFEF"/>
</linearGradient>
<linearGradient id="paint12_linear_515_5" x1="641.175" y1="858.922" x2="718.691" y2="1155.5" gradientUnits="userSpaceOnUse">
<stop stop-color="#D8D8D8"/>
<stop offset="1" stop-color="#EFEFEF"/>
</linearGradient>
<linearGradient id="paint13_linear_515_5" x1="642.671" y1="592.52" x2="746.302" y2="989.02" gradientUnits="userSpaceOnUse">
<stop stop-color="#D8D8D8"/>
<stop offset="1" stop-color="#EFEFEF"/>
</linearGradient>
<linearGradient id="paint14_linear_515_5" x1="240.336" y1="0" x2="-201.703" y2="1602.12" gradientUnits="userSpaceOnUse">
<stop stop-color="#D8D8D8"/>
<stop offset="1" stop-color="white"/>
</linearGradient>
<linearGradient id="paint15_linear_515_5" x1="1018.91" y1="-353.877" x2="1122.54" y2="42.6229" gradientUnits="userSpaceOnUse">
<stop stop-color="#D8D8D8"/>
<stop offset="1" stop-color="#EFEFEF"/>
</linearGradient>
<linearGradient id="paint16_linear_515_5" x1="1017.06" y1="-90.7715" x2="1094.99" y2="207.396" gradientUnits="userSpaceOnUse">
<stop stop-color="#D8D8D8"/>
<stop offset="1" stop-color="#EFEFEF"/>
</linearGradient>
<linearGradient id="paint17_linear_515_5" x1="1062.81" y1="58.234" x2="1166.44" y2="454.734" gradientUnits="userSpaceOnUse">
<stop stop-color="#D8D8D8"/>
<stop offset="1" stop-color="#EFEFEF"/>
</linearGradient>
<linearGradient id="paint18_linear_515_5" x1="1061.14" y1="322.988" x2="1138.66" y2="619.57" gradientUnits="userSpaceOnUse">
<stop stop-color="#D8D8D8"/>
<stop offset="1" stop-color="#EFEFEF"/>
</linearGradient>
<linearGradient id="paint19_linear_515_5" x1="1105.22" y1="736.747" x2="1182.73" y2="1033.33" gradientUnits="userSpaceOnUse">
<stop stop-color="#D8D8D8"/>
<stop offset="1" stop-color="#EFEFEF"/>
</linearGradient>
<linearGradient id="paint20_linear_515_5" x1="1106.71" y1="470.345" x2="1210.34" y2="866.845" gradientUnits="userSpaceOnUse">
<stop stop-color="#D8D8D8"/>
<stop offset="1" stop-color="#EFEFEF"/>
</linearGradient>
<linearGradient id="paint21_linear_515_5" x1="1150.61" y1="882.456" x2="1254.24" y2="1278.96" gradientUnits="userSpaceOnUse">
<stop stop-color="#D8D8D8"/>
<stop offset="1" stop-color="#EFEFEF"/>
</linearGradient>
<linearGradient id="paint22_linear_515_5" x1="240.336" y1="0" x2="-201.703" y2="1602.12" gradientUnits="userSpaceOnUse">
<stop stop-color="#D8D8D8"/>
<stop offset="1" stop-color="white"/>
</linearGradient>
<linearGradient id="paint23_linear_515_5" x1="1480.86" y1="-212.881" x2="1558.79" y2="85.2864" gradientUnits="userSpaceOnUse">
<stop stop-color="#D8D8D8"/>
<stop offset="1" stop-color="#EFEFEF"/>
</linearGradient>
<linearGradient id="paint24_linear_515_5" x1="1526.61" y1="-63.8761" x2="1630.24" y2="332.624" gradientUnits="userSpaceOnUse">
<stop stop-color="#D8D8D8"/>
<stop offset="1" stop-color="#EFEFEF"/>
</linearGradient>
<linearGradient id="paint25_linear_515_5" x1="1524.94" y1="200.878" x2="1602.45" y2="497.46" gradientUnits="userSpaceOnUse">
<stop stop-color="#D8D8D8"/>
<stop offset="1" stop-color="#EFEFEF"/>
</linearGradient>
<linearGradient id="paint26_linear_515_5" x1="1569.01" y1="614.637" x2="1646.53" y2="911.219" gradientUnits="userSpaceOnUse">
<stop stop-color="#D8D8D8"/>
<stop offset="1" stop-color="#EFEFEF"/>
</linearGradient>
<linearGradient id="paint27_linear_515_5" x1="1570.51" y1="348.235" x2="1674.14" y2="744.735" gradientUnits="userSpaceOnUse">
<stop stop-color="#D8D8D8"/>
<stop offset="1" stop-color="#EFEFEF"/>
</linearGradient>
<linearGradient id="paint28_linear_515_5" x1="1614.41" y1="760.346" x2="1718.04" y2="1156.85" gradientUnits="userSpaceOnUse">
<stop stop-color="#D8D8D8"/>
<stop offset="1" stop-color="#EFEFEF"/>
</linearGradient>
<linearGradient id="paint29_linear_515_5" x1="240.368" y1="0" x2="-201.565" y2="1602.05" gradientUnits="userSpaceOnUse">
<stop stop-color="#D8D8D8"/>
<stop offset="1" stop-color="white"/>
</linearGradient>
<linearGradient id="paint30_linear_515_5" x1="-141.946" y1="-47.6449" x2="-37.9858" y2="348.713" gradientUnits="userSpaceOnUse">
<stop stop-color="#D8D8D8"/>
<stop offset="1" stop-color="#EFEFEF"/>
</linearGradient>
<linearGradient id="paint31_linear_515_5" x1="-85.5502" y1="200.211" x2="-7.37196" y2="498.272" gradientUnits="userSpaceOnUse">
<stop stop-color="#D8D8D8"/>
<stop offset="1" stop-color="#EFEFEF"/>
</linearGradient>
<linearGradient id="paint32_linear_515_5" x1="-97.8605" y1="364.418" x2="6.09991" y2="760.776" gradientUnits="userSpaceOnUse">
<stop stop-color="#D8D8D8"/>
<stop offset="1" stop-color="#EFEFEF"/>
</linearGradient>
<linearGradient id="paint33_linear_515_5" x1="-41.2881" y1="613.922" x2="36.4743" y2="910.398" gradientUnits="userSpaceOnUse">
<stop stop-color="#D8D8D8"/>
<stop offset="1" stop-color="#EFEFEF"/>
</linearGradient>
<linearGradient id="paint34_linear_515_5" x1="-53.7747" y1="776.48" x2="50.1857" y2="1172.84" gradientUnits="userSpaceOnUse">
<stop stop-color="#D8D8D8"/>
<stop offset="1" stop-color="#EFEFEF"/>
</linearGradient>
<linearGradient id="paint35_linear_515_5" x1="240.368" y1="0" x2="-201.565" y2="1602.05" gradientUnits="userSpaceOnUse">
<stop stop-color="#D8D8D8"/>
<stop offset="1" stop-color="white"/>
</linearGradient>
<linearGradient id="paint36_linear_515_5" x1="322.454" y1="-169.754" x2="426.414" y2="226.604" gradientUnits="userSpaceOnUse">
<stop stop-color="#D8D8D8"/>
<stop offset="1" stop-color="#EFEFEF"/>
</linearGradient>
<linearGradient id="paint37_linear_515_5" x1="378.85" y1="78.102" x2="457.028" y2="376.163" gradientUnits="userSpaceOnUse">
<stop stop-color="#D8D8D8"/>
<stop offset="1" stop-color="#EFEFEF"/>
</linearGradient>
<linearGradient id="paint38_linear_515_5" x1="366.54" y1="242.309" x2="470.5" y2="638.667" gradientUnits="userSpaceOnUse">
<stop stop-color="#D8D8D8"/>
<stop offset="1" stop-color="#EFEFEF"/>
</linearGradient>
<linearGradient id="paint39_linear_515_5" x1="423.112" y1="491.813" x2="500.874" y2="788.289" gradientUnits="userSpaceOnUse">
<stop stop-color="#D8D8D8"/>
<stop offset="1" stop-color="#EFEFEF"/>
</linearGradient>
<linearGradient id="paint40_linear_515_5" x1="467.374" y1="905.524" x2="545.137" y2="1202" gradientUnits="userSpaceOnUse">
<stop stop-color="#D8D8D8"/>
<stop offset="1" stop-color="#EFEFEF"/>
</linearGradient>
<linearGradient id="paint41_linear_515_5" x1="410.625" y1="654.371" x2="514.586" y2="1050.73" gradientUnits="userSpaceOnUse">
<stop stop-color="#D8D8D8"/>
<stop offset="1" stop-color="#EFEFEF"/>
</linearGradient>
<linearGradient id="paint42_linear_515_5" x1="240.368" y1="0" x2="-201.565" y2="1602.05" gradientUnits="userSpaceOnUse">
<stop stop-color="#D8D8D8"/>
<stop offset="1" stop-color="white"/>
</linearGradient>
<linearGradient id="paint43_linear_515_5" x1="786.496" y1="-291.929" x2="890.456" y2="104.429" gradientUnits="userSpaceOnUse">
<stop stop-color="#D8D8D8"/>
<stop offset="1" stop-color="#EFEFEF"/>
</linearGradient>
<linearGradient id="paint44_linear_515_5" x1="842.892" y1="-44.0729" x2="921.07" y2="253.988" gradientUnits="userSpaceOnUse">
<stop stop-color="#D8D8D8"/>
<stop offset="1" stop-color="#EFEFEF"/>
</linearGradient>
<linearGradient id="paint45_linear_515_5" x1="830.582" y1="120.134" x2="934.542" y2="516.492" gradientUnits="userSpaceOnUse">
<stop stop-color="#D8D8D8"/>
<stop offset="1" stop-color="#EFEFEF"/>
</linearGradient>
<linearGradient id="paint46_linear_515_5" x1="887.154" y1="369.638" x2="964.916" y2="666.114" gradientUnits="userSpaceOnUse">
<stop stop-color="#D8D8D8"/>
<stop offset="1" stop-color="#EFEFEF"/>
</linearGradient>
<linearGradient id="paint47_linear_515_5" x1="931.416" y1="783.349" x2="1009.18" y2="1079.82" gradientUnits="userSpaceOnUse">
<stop stop-color="#D8D8D8"/>
<stop offset="1" stop-color="#EFEFEF"/>
</linearGradient>
<linearGradient id="paint48_linear_515_5" x1="874.667" y1="532.196" x2="978.628" y2="928.554" gradientUnits="userSpaceOnUse">
<stop stop-color="#D8D8D8"/>
<stop offset="1" stop-color="#EFEFEF"/>
</linearGradient>
<linearGradient id="paint49_linear_515_5" x1="918.753" y1="944.259" x2="1022.71" y2="1340.62" gradientUnits="userSpaceOnUse">
<stop stop-color="#D8D8D8"/>
<stop offset="1" stop-color="#EFEFEF"/>
</linearGradient>
<linearGradient id="paint50_linear_515_5" x1="240.368" y1="0" x2="-201.565" y2="1602.05" gradientUnits="userSpaceOnUse">
<stop stop-color="#D8D8D8"/>
<stop offset="1" stop-color="white"/>
</linearGradient>
<linearGradient id="paint51_linear_515_5" x1="1250.29" y1="-414.039" x2="1354.25" y2="-17.6807" gradientUnits="userSpaceOnUse">
<stop stop-color="#D8D8D8"/>
<stop offset="1" stop-color="#EFEFEF"/>
</linearGradient>
<linearGradient id="paint52_linear_515_5" x1="1306.69" y1="-166.183" x2="1384.87" y2="131.878" gradientUnits="userSpaceOnUse">
<stop stop-color="#D8D8D8"/>
<stop offset="1" stop-color="#EFEFEF"/>
</linearGradient>
<linearGradient id="paint53_linear_515_5" x1="1294.38" y1="-1.97629" x2="1398.34" y2="394.382" gradientUnits="userSpaceOnUse">
<stop stop-color="#D8D8D8"/>
<stop offset="1" stop-color="#EFEFEF"/>
</linearGradient>
<linearGradient id="paint54_linear_515_5" x1="1350.95" y1="247.528" x2="1428.71" y2="544.004" gradientUnits="userSpaceOnUse">
<stop stop-color="#D8D8D8"/>
<stop offset="1" stop-color="#EFEFEF"/>
</linearGradient>
<linearGradient id="paint55_linear_515_5" x1="1395.21" y1="661.239" x2="1472.97" y2="957.715" gradientUnits="userSpaceOnUse">
<stop stop-color="#D8D8D8"/>
<stop offset="1" stop-color="#EFEFEF"/>
</linearGradient>
<linearGradient id="paint56_linear_515_5" x1="1338.46" y1="410.086" x2="1442.42" y2="806.444" gradientUnits="userSpaceOnUse">
<stop stop-color="#D8D8D8"/>
<stop offset="1" stop-color="#EFEFEF"/>
</linearGradient>
<radialGradient id="paint57_radial_515_5" cx="0" cy="0" r="1" gradientUnits="userSpaceOnUse" gradientTransform="translate(1404.59 1028.2) rotate(-14.697) scale(178.455 164.74)">
<stop stop-color="#0F1B5E"/>
<stop offset="0.09" stop-color="#0A1447"/>
<stop offset="0.33" stop-color="#0A1447"/>
<stop offset="0.55" stop-color="#040A2A"/>
<stop offset="0.75" stop-color="#1E298B"/>
<stop offset="0.9" stop-color="#172782"/>
<stop offset="1" stop-color="#0A1446"/>
</radialGradient>
<linearGradient id="paint58_linear_515_5" x1="800" y1="0" x2="800" y2="961" gradientUnits="userSpaceOnUse">
<stop stop-color="white" stop-opacity="0"/>
<stop offset="1" stop-color="white"/>
</linearGradient>
</defs>
</svg>
