<svg width="14" height="14" viewBox="0 0 14 14" fill="none" xmlns="http://www.w3.org/2000/svg">
<path d="M8.11111 6H0.777778C0.311111 6 0 6.4 0 7C0 7.6 0.311111 8 0.777778 8H8.11111C8.57778 8 8.88889 7.6 8.88889 7C8.88889 6.4 8.57778 6 8.11111 6ZM0.777778 2H13.2222C13.6889 2 14 1.6 14 1C14 0.4 13.6889 0 13.2222 0H0.777778C0.311111 0 0 0.4 0 1C0 1.6 0.311111 2 0.777778 2ZM11.2222 12H0.777778C0.311111 12 0 12.4 0 13C0 13.6 0.311111 14 0.777778 14H11.2222C11.6889 14 12 13.6 12 13C12 12.4 11.6889 12 11.2222 12Z" fill="#0B174D"/>
</svg>
