<svg width="1600" height="365" viewBox="0 0 1600 365" fill="none" xmlns="http://www.w3.org/2000/svg">
<g opacity="0.3">
<mask id="path-1-outside-1_203_340" maskUnits="userSpaceOnUse" x="-180" y="-1" width="1963" height="367" fill="black">
<rect fill="white" x="-180" y="-1" width="1963" height="367"/>
<path d="M-38.6 297.8C-67.6667 297.8 -92.7333 292.6 -113.8 282.2C-134.867 271.8 -151 256.067 -162.2 235C-173.4 213.933 -179 187.533 -179 155.8C-179 123.533 -173.4 97 -162.2 76.2C-151 55.1333 -134.867 39.5333 -113.8 29.4C-92.7333 19 -67.6667 13.8 -38.6 13.8C-8.99999 13.8 16.2 19 37 29.4C58.0667 39.5333 74.2 55.1333 85.4 76.2C96.6 97 102.2 123.533 102.2 155.8C102.2 187.533 96.6 213.933 85.4 235C74.2 256.067 58.0667 271.8 37 282.2C16.2 292.6 -8.99999 297.8 -38.6 297.8ZM-38.6 249C-25.5333 249 -14.0667 247.133 -4.19999 243.4C5.66668 239.667 13.9334 234.067 20.6 226.6C27.2667 219.133 32.3333 210.067 35.8 199.4C39.2667 188.467 41 176.067 41 162.2V149.8C41 135.667 39.2667 123.133 35.8 112.2C32.3333 101.267 27.2667 92.2 20.6 85C13.9334 77.5333 5.66668 71.9333 -4.19999 68.2C-14.0667 64.4667 -25.5333 62.6 -38.6 62.6C-51.4 62.6 -62.7333 64.4667 -72.6 68.2C-82.4667 71.9333 -90.7333 77.5333 -97.4 85C-104.067 92.2 -109.133 101.267 -112.6 112.2C-115.8 123.133 -117.4 135.667 -117.4 149.8V162.2C-117.4 176.067 -115.8 188.467 -112.6 199.4C-109.133 210.067 -104.067 219.133 -97.4 226.6C-90.7333 234.067 -82.4667 239.667 -72.6 243.4C-62.7333 247.133 -51.4 249 -38.6 249ZM213.788 297.8C192.454 297.8 175.521 291.933 162.988 280.2C150.454 268.467 144.188 249.533 144.188 223.4V82.6H199.788V214.2C199.788 221.133 200.588 227 202.188 231.8C203.788 236.333 206.054 240.067 208.988 243C212.188 245.933 216.054 248.067 220.588 249.4C225.121 250.733 230.188 251.4 235.788 251.4C244.054 251.4 251.521 249.4 258.188 245.4C264.854 241.4 270.054 235.933 273.788 229C277.521 221.8 279.388 213.8 279.388 205V82.6H334.988V293H289.388L285.388 264.2H282.588C277.521 270.867 271.521 276.733 264.588 281.8C257.921 286.867 250.321 290.733 241.788 293.4C233.254 296.333 223.921 297.8 213.788 297.8ZM386.022 293V82.6H432.022L436.422 115.4H439.222C441.889 108.467 445.355 102.2 449.622 96.6C453.889 90.7333 459.222 86.0667 465.622 82.6C472.022 79.1333 479.489 77.4 488.022 77.4C492.555 77.4 496.689 77.9333 500.422 79C504.155 79.8 506.955 80.6 508.822 81.4V131.8H491.622C483.355 131.8 476.022 133 469.622 135.4C463.489 137.533 458.289 141 454.022 145.8C449.755 150.6 446.555 156.467 444.422 163.4C442.555 170.333 441.622 178.467 441.622 187.8V293H386.022ZM608.678 364.2V82.6H654.278L659.078 111H661.878C668.811 99.5333 677.878 91.1333 689.078 85.8C700.278 80.4667 712.678 77.8 726.278 77.8C743.878 77.8 758.945 81.6667 771.478 89.4C784.278 97.1333 794.011 109.133 800.678 125.4C807.611 141.667 811.078 162.6 811.078 188.2C811.078 213 807.611 233.533 800.678 249.8C793.745 266.067 784.011 278.2 771.478 286.2C759.211 293.933 744.811 297.8 728.278 297.8C719.211 297.8 710.811 296.733 703.078 294.6C695.345 292.733 688.411 289.667 682.278 285.4C676.145 281.133 670.945 275.933 666.678 269.8H664.278V364.2H608.678ZM709.078 252.2C720.278 252.2 729.078 250.067 735.478 245.8C742.145 241.267 746.945 234.6 749.878 225.8C752.811 216.733 754.278 205.667 754.278 192.6V183.4C754.278 170.067 752.811 159 749.878 150.2C746.945 141.133 742.145 134.467 735.478 130.2C729.078 125.667 720.278 123.4 709.078 123.4C698.678 123.4 690.145 125.8 683.478 130.6C676.811 135.4 671.878 142.333 668.678 151.4C665.478 160.467 663.878 171.4 663.878 184.2V191C663.878 200.333 664.811 208.867 666.678 216.6C668.545 224.067 671.211 230.467 674.678 235.8C678.411 241.133 683.078 245.267 688.678 248.2C694.278 250.867 701.078 252.2 709.078 252.2ZM852.038 293V82.6H898.038L902.438 115.4H905.238C907.904 108.467 911.371 102.2 915.638 96.6C919.904 90.7333 925.238 86.0667 931.638 82.6C938.038 79.1333 945.504 77.4 954.038 77.4C958.571 77.4 962.704 77.9333 966.438 79C970.171 79.8 972.971 80.6 974.838 81.4V131.8H957.638C949.371 131.8 942.038 133 935.638 135.4C929.504 137.533 924.304 141 920.038 145.8C915.771 150.6 912.571 156.467 910.438 163.4C908.571 170.333 907.638 178.467 907.638 187.8V293H852.038ZM1096.88 297.8C1073.95 297.8 1054.48 293.933 1038.48 286.2C1022.48 278.2 1010.35 266.067 1002.08 249.8C993.818 233.267 989.684 212.6 989.684 187.8C989.684 162.467 993.818 141.8 1002.08 125.8C1010.35 109.533 1022.48 97.5333 1038.48 89.8C1054.48 81.8 1073.95 77.8 1096.88 77.8C1120.35 77.8 1139.95 81.8 1155.68 89.8C1171.68 97.5333 1183.82 109.533 1192.08 125.8C1200.35 141.8 1204.48 162.467 1204.48 187.8C1204.48 212.6 1200.35 233.267 1192.08 249.8C1183.82 266.067 1171.68 278.2 1155.68 286.2C1139.95 293.933 1120.35 297.8 1096.88 297.8ZM1096.88 254.6C1109.15 254.6 1118.88 252.333 1126.08 247.8C1133.55 243.267 1139.02 236.333 1142.48 227C1145.95 217.667 1147.68 206.2 1147.68 192.6V183C1147.68 169.4 1145.95 157.933 1142.48 148.6C1139.02 139.267 1133.55 132.333 1126.08 127.8C1118.88 123 1109.15 120.6 1096.88 120.6C1084.88 120.6 1075.15 123 1067.68 127.8C1060.48 132.333 1055.15 139.267 1051.68 148.6C1048.22 157.933 1046.48 169.4 1046.48 183V192.6C1046.48 206.2 1048.22 217.667 1051.68 227C1055.15 236.333 1060.48 243.267 1067.68 247.8C1075.15 252.333 1084.88 254.6 1096.88 254.6ZM1255 293V125.4H1225V82.6H1255V59.4C1255 47.9333 1256.86 37.8 1260.6 29C1264.6 19.9333 1270.86 12.8667 1279.4 7.79998C1287.93 2.73331 1299.26 0.199979 1313.4 0.199979C1317.4 0.199979 1321.53 0.46665 1325.8 0.999992C1330.33 1.53332 1334.6 2.33332 1338.6 3.39999C1342.86 4.19999 1346.46 5.13333 1349.4 6.2V43H1329.4C1323 43 1318.2 44.6 1315 47.8C1312.06 51 1310.6 55.6667 1310.6 61.8V82.6H1349.4V125.4H1310.6V293H1255ZM1375.4 51.8V3.79998H1430.6V51.8H1375.4ZM1375.4 293V82.6H1430.6V293H1375.4ZM1481.73 293V3.79998H1537.33V293H1481.73ZM1683.97 297.8C1660.77 297.8 1641.3 293.933 1625.57 286.2C1609.83 278.2 1597.97 266.067 1589.97 249.8C1581.97 233.533 1577.97 212.867 1577.97 187.8C1577.97 162.467 1581.97 141.8 1589.97 125.8C1597.97 109.533 1609.7 97.5333 1625.17 89.8C1640.9 81.8 1660.1 77.8 1682.77 77.8C1704.1 77.8 1722.1 81.6667 1736.77 89.4C1751.43 96.8667 1762.5 108.6 1769.97 124.6C1777.43 140.333 1781.17 160.733 1781.17 185.8V200.2H1634.37C1634.9 212.467 1636.77 222.867 1639.97 231.4C1643.43 239.933 1648.63 246.333 1655.57 250.6C1662.77 254.6 1672.23 256.6 1683.97 256.6C1690.37 256.6 1696.1 255.8 1701.17 254.2C1706.5 252.6 1711.03 250.2 1714.77 247C1718.5 243.8 1721.43 239.8 1723.57 235C1725.7 230.2 1726.77 224.733 1726.77 218.6H1781.17C1781.17 231.933 1778.77 243.533 1773.97 253.4C1769.17 263.267 1762.5 271.533 1753.97 278.2C1745.43 284.6 1735.17 289.533 1723.17 293C1711.43 296.2 1698.37 297.8 1683.97 297.8ZM1635.17 165H1723.97C1723.97 157 1722.9 150.067 1720.77 144.2C1718.9 138.333 1716.23 133.533 1712.77 129.8C1709.3 126.067 1705.03 123.4 1699.97 121.8C1695.17 119.933 1689.7 119 1683.57 119C1673.43 119 1664.9 120.733 1657.97 124.2C1651.3 127.4 1646.1 132.467 1642.37 139.4C1638.9 146.067 1636.5 154.6 1635.17 165Z"/>
</mask>
<path d="M-113.8 282.2L-113.357 281.303L-113.8 282.2ZM-162.2 235L-161.317 234.531L-162.2 235ZM-162.2 76.2L-161.32 76.6741L-161.317 76.6694L-162.2 76.2ZM-113.8 29.4L-113.367 30.3012L-113.357 30.2967L-113.8 29.4ZM37 29.4L36.5528 30.2944L36.5596 30.2978L36.5665 30.3012L37 29.4ZM85.4 76.2L84.517 76.6694L84.5195 76.6741L85.4 76.2ZM85.4 235L84.517 234.531L85.4 235ZM37 282.2L36.5573 281.303L36.5528 281.306L37 282.2ZM-4.2 243.4L-4.55388 242.465L-4.2 243.4ZM20.6 226.6L19.8541 225.934L20.6 226.6ZM35.8 199.4L36.7511 199.709L36.7532 199.702L35.8 199.4ZM20.6 85L19.8541 85.666L19.8601 85.6728L19.8663 85.6794L20.6 85ZM-4.2 68.2L-4.55388 69.1353L-4.2 68.2ZM-97.4 85L-96.6662 85.6794L-96.6601 85.6728L-96.6541 85.666L-97.4 85ZM-112.6 112.2L-113.553 111.898L-113.557 111.908L-113.56 111.919L-112.6 112.2ZM-112.6 199.4L-113.56 199.681L-113.556 199.695L-113.551 199.709L-112.6 199.4ZM-97.4 226.6L-96.6541 225.934L-97.4 226.6ZM-72.6 243.4L-72.9539 244.335L-72.6 243.4ZM-38.6 296.8C-67.5488 296.8 -92.4571 291.621 -113.357 281.303L-114.243 283.097C-93.0096 293.579 -67.7845 298.8 -38.6 298.8V296.8ZM-113.357 281.303C-134.233 270.998 -150.214 255.415 -161.317 234.531L-163.083 235.469C-151.786 256.718 -135.5 272.602 -114.243 283.097L-113.357 281.303ZM-161.317 234.531C-172.419 213.648 -178 187.422 -178 155.8H-180C-180 187.645 -174.381 214.218 -163.083 235.469L-161.317 234.531ZM-178 155.8C-178 123.641 -172.418 97.2849 -161.32 76.6741L-163.08 75.7259C-174.382 96.7151 -180 123.426 -180 155.8H-178ZM-161.317 76.6694C-150.215 55.7867 -134.237 40.3401 -113.367 30.3012L-114.233 28.4988C-135.496 38.7265 -151.785 54.4799 -163.083 75.7305L-161.317 76.6694ZM-113.357 30.2967C-92.4571 19.9788 -67.5488 14.8 -38.6 14.8V12.8C-67.7845 12.8 -93.0096 18.0211 -114.243 28.5033L-113.357 30.2967ZM-38.6 14.8C-9.11409 14.8 15.9243 19.9802 36.5528 30.2944L37.4472 28.5056C16.4757 18.0198 -8.88588 12.8 -38.6 12.8V14.8ZM36.5665 30.3012C57.437 40.3401 73.4149 55.7867 84.517 76.6694L86.283 75.7305C74.9852 54.4799 58.6964 38.7265 37.4335 28.4988L36.5665 30.3012ZM84.5195 76.6741C95.6176 97.2849 101.2 123.641 101.2 155.8H103.2C103.2 123.426 97.5824 96.7151 86.2805 75.7259L84.5195 76.6741ZM101.2 155.8C101.2 187.422 95.619 213.648 84.517 234.531L86.283 235.469C97.581 214.218 103.2 187.645 103.2 155.8H101.2ZM84.517 234.531C73.4138 255.415 57.433 270.998 36.5573 281.303L37.4427 283.097C58.7004 272.602 74.9862 256.718 86.283 235.469L84.517 234.531ZM36.5528 281.306C15.9243 291.62 -9.11409 296.8 -38.6 296.8V298.8C-8.88588 298.8 16.4757 293.58 37.4472 283.094L36.5528 281.306ZM-38.6 250C-25.4402 250 -13.8492 248.12 -3.8461 244.335L-4.55388 242.465C-14.2841 246.146 -25.6264 248 -38.6 248V250ZM-3.8461 244.335C6.16266 240.548 14.5664 234.859 21.3459 227.266L19.8541 225.934C13.3003 233.274 5.17072 238.785 -4.55388 242.465L-3.8461 244.335ZM21.3459 227.266C28.1155 219.684 33.2467 210.492 36.751 199.709L34.849 199.091C31.42 209.642 26.4178 218.583 19.8541 225.934L21.3459 227.266ZM36.7532 199.702C40.2566 188.653 42 176.149 42 162.2H40C40 175.985 38.2768 188.28 34.8468 199.098L36.7532 199.702ZM42 162.2V149.8H40V162.2H42ZM42 149.8C42 135.587 40.2571 122.948 36.7532 111.898L34.8468 112.502C38.2762 123.318 40 135.746 40 149.8H42ZM36.7532 111.898C33.2495 100.848 28.116 91.6454 21.3338 84.3206L19.8663 85.6794C26.4174 92.7546 31.4171 101.686 34.8468 112.502L36.7532 111.898ZM21.3459 84.334C14.5664 76.7408 6.16266 71.0518 -3.8461 67.2647L-4.55388 69.1353C5.17072 72.8148 13.3003 78.3258 19.8541 85.666L21.3459 84.334ZM-3.8461 67.2647C-13.8492 63.4797 -25.4402 61.6 -38.6 61.6V63.6C-25.6264 63.6 -14.2841 65.4536 -4.55388 69.1353L-3.8461 67.2647ZM-38.6 61.6C-51.4959 61.6 -62.9529 63.4805 -72.9539 67.2647L-72.2461 69.1353C-62.5138 65.4528 -51.3041 63.6 -38.6 63.6V61.6ZM-72.9539 67.2647C-82.9626 71.0518 -91.3663 76.7408 -98.1459 84.334L-96.6541 85.666C-90.1003 78.3258 -81.9707 72.8148 -72.2461 69.1353L-72.9539 67.2647ZM-98.1338 84.3206C-104.916 91.6454 -110.05 100.848 -113.553 111.898L-111.647 112.502C-108.217 101.686 -103.217 92.7546 -96.6662 85.6794L-98.1338 84.3206ZM-113.56 111.919C-116.792 122.963 -118.4 135.593 -118.4 149.8H-116.4C-116.4 135.74 -114.808 123.304 -111.64 112.481L-113.56 111.919ZM-118.4 149.8V162.2H-116.4V149.8H-118.4ZM-118.4 162.2C-118.4 176.142 -116.791 188.639 -113.56 199.681L-111.64 199.119C-114.809 188.294 -116.4 175.991 -116.4 162.2H-118.4ZM-113.551 199.709C-110.047 210.492 -104.916 219.684 -98.1459 227.266L-96.6541 225.934C-103.218 218.583 -108.22 209.642 -111.649 199.091L-113.551 199.709ZM-98.1459 227.266C-91.3663 234.859 -82.9626 240.548 -72.9539 244.335L-72.2461 242.465C-81.9707 238.785 -90.1003 233.274 -96.6541 225.934L-98.1459 227.266ZM-72.9539 244.335C-62.9529 248.119 -51.4959 250 -38.6 250V248C-51.3041 248 -62.5138 246.147 -72.2461 242.465L-72.9539 244.335ZM162.988 280.2L162.304 280.93L162.988 280.2ZM144.188 82.6V81.6H143.188V82.6H144.188ZM199.788 82.6H200.788V81.6H199.788V82.6ZM202.188 231.8L201.239 232.116L201.242 232.125L201.245 232.133L202.188 231.8ZM208.988 243L208.28 243.707L208.296 243.722L208.312 243.737L208.988 243ZM220.587 249.4L220.87 248.441L220.587 249.4ZM258.188 245.4L258.702 246.257L258.188 245.4ZM273.788 229L274.668 229.474L274.672 229.467L274.675 229.46L273.788 229ZM279.388 82.6V81.6H278.388V82.6H279.388ZM334.987 82.6H335.987V81.6H334.987V82.6ZM334.987 293V294H335.987V293H334.987ZM289.388 293L288.397 293.138L288.517 294H289.388V293ZM285.388 264.2L286.378 264.062L286.258 263.2H285.388V264.2ZM282.587 264.2V263.2H282.091L281.791 263.595L282.587 264.2ZM264.588 281.8L263.997 280.993L263.99 280.998L263.982 281.004L264.588 281.8ZM241.788 293.4L241.489 292.446L241.476 292.45L241.462 292.454L241.788 293.4ZM213.788 296.8C192.643 296.8 175.977 290.99 163.671 279.47L162.304 280.93C175.065 292.876 192.265 298.8 213.788 298.8V296.8ZM163.671 279.47C151.425 268.005 145.188 249.4 145.188 223.4H143.188C143.188 249.667 149.484 268.928 162.304 280.93L163.671 279.47ZM145.188 223.4V82.6H143.188V223.4H145.188ZM144.188 83.6H199.788V81.6H144.188V83.6ZM198.788 82.6V214.2H200.788V82.6H198.788ZM198.788 214.2C198.788 221.204 199.595 227.184 201.239 232.116L203.136 231.484C201.58 226.816 200.788 221.063 200.788 214.2H198.788ZM201.245 232.133C202.886 236.785 205.226 240.653 208.28 243.707L209.695 242.293C206.882 239.481 204.689 235.882 203.13 231.467L201.245 232.133ZM208.312 243.737C211.634 246.783 215.639 248.987 220.305 250.359L220.87 248.441C216.47 247.146 212.741 245.084 209.663 242.263L208.312 243.737ZM220.305 250.359C224.945 251.724 230.109 252.4 235.788 252.4V250.4C230.266 250.4 225.296 249.743 220.87 248.441L220.305 250.359ZM235.788 252.4C244.223 252.4 251.87 250.357 258.702 246.257L257.673 244.543C251.172 248.443 243.885 250.4 235.788 250.4V252.4ZM258.702 246.257C265.525 242.164 270.85 236.564 274.668 229.474L272.907 228.526C269.258 235.303 264.183 240.636 257.673 244.543L258.702 246.257ZM274.675 229.46C278.488 222.106 280.388 213.946 280.388 205H278.388C278.388 213.654 276.553 221.494 272.9 228.54L274.675 229.46ZM280.388 205V82.6H278.388V205H280.388ZM279.388 83.6H334.987V81.6H279.388V83.6ZM333.987 82.6V293H335.987V82.6H333.987ZM334.987 292H289.388V294H334.987V292ZM290.378 292.862L286.378 264.062L284.397 264.338L288.397 293.138L290.378 292.862ZM285.388 263.2H282.587V265.2H285.388V263.2ZM281.791 263.595C276.785 270.183 270.855 275.982 263.997 280.993L265.178 282.607C272.187 277.485 278.257 271.551 283.384 264.805L281.791 263.595ZM263.982 281.004C257.414 285.996 249.919 289.811 241.489 292.446L242.086 294.354C250.722 291.656 258.428 287.738 265.193 282.596L263.982 281.004ZM241.462 292.454C233.046 295.348 223.824 296.8 213.788 296.8V298.8C224.018 298.8 233.463 297.319 242.113 294.346L241.462 292.454ZM386.022 293H385.022V294H386.022V293ZM386.022 82.6V81.6H385.022V82.6H386.022ZM432.022 82.6L433.013 82.467L432.897 81.6H432.022V82.6ZM436.422 115.4L435.431 115.533L435.547 116.4H436.422V115.4ZM439.222 115.4V116.4H439.909L440.155 115.759L439.222 115.4ZM449.622 96.6L450.417 97.206L450.424 97.1972L450.431 97.1882L449.622 96.6ZM465.622 82.6L466.098 83.4793L465.622 82.6ZM500.422 79L500.147 79.9615L500.18 79.9707L500.212 79.9778L500.422 79ZM508.822 81.4H509.822V80.7406L509.216 80.4808L508.822 81.4ZM508.822 131.8V132.8H509.822V131.8H508.822ZM469.622 135.4L469.95 136.344L469.962 136.341L469.973 136.336L469.622 135.4ZM454.022 145.8L453.274 145.136V145.136L454.022 145.8ZM444.422 163.4L443.466 163.106L443.461 163.123L443.456 163.14L444.422 163.4ZM441.622 293V294H442.622V293H441.622ZM387.022 293V82.6H385.022V293H387.022ZM386.022 83.6H432.022V81.6H386.022V83.6ZM431.031 82.7329L435.431 115.533L437.413 115.267L433.013 82.467L431.031 82.7329ZM436.422 116.4H439.222V114.4H436.422V116.4ZM440.155 115.759C442.79 108.909 446.211 102.727 450.417 97.206L448.826 95.9939C444.499 101.673 440.987 108.024 438.289 115.041L440.155 115.759ZM450.431 97.1882C454.609 91.4425 459.829 86.8752 466.098 83.4793L465.146 81.7207C458.615 85.2582 453.168 90.0241 448.813 96.0118L450.431 97.1882ZM466.098 83.4793C472.329 80.1045 479.626 78.4 488.022 78.4V76.4C479.351 76.4 471.715 78.1622 465.146 81.7207L466.098 83.4793ZM488.022 78.4C492.477 78.4 496.517 78.9242 500.147 79.9615L500.697 78.0385C496.86 76.9424 492.633 76.4 488.022 76.4V78.4ZM500.212 79.9778C503.927 80.7739 506.652 81.5579 508.428 82.3191L509.216 80.4808C507.259 79.6421 504.383 78.8261 500.631 78.0222L500.212 79.9778ZM507.822 81.4V131.8H509.822V81.4H507.822ZM508.822 130.8H491.622V132.8H508.822V130.8ZM491.622 130.8C483.26 130.8 475.804 132.014 469.271 134.464L469.973 136.336C476.24 133.986 483.451 132.8 491.622 132.8V130.8ZM469.293 134.455C463.001 136.644 457.656 140.207 453.274 145.136L454.769 146.464C458.921 141.793 463.976 138.422 469.95 136.344L469.293 134.455ZM453.274 145.136C448.901 150.056 445.636 156.053 443.466 163.106L445.378 163.694C447.474 156.88 450.609 151.144 454.769 146.464L453.274 145.136ZM443.456 163.14C441.561 170.179 440.622 178.404 440.622 187.8H442.622C442.622 178.53 443.549 170.488 445.388 163.66L443.456 163.14ZM440.622 187.8V293H442.622V187.8H440.622ZM441.622 292H386.022V294H441.622V292ZM608.678 364.2H607.678V365.2H608.678V364.2ZM608.678 82.6V81.6H607.678V82.6H608.678ZM654.278 82.6L655.264 82.4333L655.123 81.6H654.278V82.6ZM659.078 111L658.092 111.167L658.233 112H659.078V111ZM661.878 111V112H662.442L662.734 111.517L661.878 111ZM689.078 85.8L689.508 86.7029L689.078 85.8ZM771.478 89.4L770.953 90.2511L770.961 90.2559L771.478 89.4ZM800.678 125.4L799.753 125.779L799.758 125.792L800.678 125.4ZM800.678 249.8L801.598 250.192L800.678 249.8ZM771.478 286.2L772.011 287.046L772.016 287.043L771.478 286.2ZM703.078 294.6L703.344 293.636L703.328 293.632L703.313 293.628L703.078 294.6ZM682.278 285.4L681.707 286.221L682.278 285.4ZM666.678 269.8L667.499 269.229L667.201 268.8H666.678V269.8ZM664.278 269.8V268.8H663.278V269.8H664.278ZM664.278 364.2V365.2H665.278V364.2H664.278ZM735.478 245.8L736.033 246.632L736.04 246.627L735.478 245.8ZM749.878 225.8L750.827 226.116L750.83 226.108L749.878 225.8ZM749.878 150.2L748.927 150.508L748.929 150.516L749.878 150.2ZM735.478 130.2L734.9 131.016L734.919 131.03L734.939 131.042L735.478 130.2ZM683.478 130.6L684.062 131.412L683.478 130.6ZM668.678 151.4L669.621 151.733L668.678 151.4ZM666.678 216.6L665.706 216.835L665.708 216.843L666.678 216.6ZM674.678 235.8L673.84 236.345L673.849 236.359L673.859 236.373L674.678 235.8ZM688.678 248.2L688.214 249.086L688.231 249.095L688.248 249.103L688.678 248.2ZM609.678 364.2V82.6H607.678V364.2H609.678ZM608.678 83.6H654.278V81.6H608.678V83.6ZM653.292 82.7666L658.092 111.167L660.064 110.833L655.264 82.4333L653.292 82.7666ZM659.078 112H661.878V110H659.078V112ZM662.734 111.517C669.574 100.204 678.499 91.9453 689.508 86.7029L688.648 84.8971C677.257 90.3213 668.048 98.8626 661.022 110.483L662.734 111.517ZM689.508 86.7029C700.561 81.4394 712.812 78.8 726.278 78.8V76.8C712.544 76.8 699.995 79.4939 688.648 84.8971L689.508 86.7029ZM726.278 78.8C743.729 78.8 758.606 82.6326 770.953 90.251L772.003 88.549C759.284 80.7007 744.027 76.8 726.278 76.8V78.8ZM770.961 90.2559C783.547 97.8597 793.153 109.675 799.753 125.779L801.603 125.021C794.87 108.592 785.01 96.407 771.995 88.5441L770.961 90.2559ZM799.758 125.792C806.621 141.892 810.078 162.679 810.078 188.2H812.078C812.078 162.521 808.602 141.441 801.598 125.008L799.758 125.792ZM810.078 188.2C810.078 212.916 806.622 233.304 799.758 249.408L801.598 250.192C808.601 233.762 812.078 213.084 812.078 188.2H810.078ZM799.758 249.408C792.889 265.525 783.274 277.485 770.94 285.357L772.016 287.043C784.749 278.915 794.601 266.608 801.598 250.192L799.758 249.408ZM770.945 285.354C758.859 292.973 744.65 296.8 728.278 296.8V298.8C744.973 298.8 759.564 294.893 772.011 287.046L770.945 285.354ZM728.278 296.8C719.29 296.8 710.98 295.743 703.344 293.636L702.812 295.564C710.643 297.724 719.133 298.8 728.278 298.8V296.8ZM703.313 293.628C695.692 291.788 688.874 288.77 682.849 284.579L681.707 286.221C687.949 290.563 694.997 293.678 702.844 295.572L703.313 293.628ZM682.849 284.579C676.813 280.38 671.698 275.265 667.499 269.229L665.857 270.371C670.192 276.602 675.476 281.886 681.707 286.221L682.849 284.579ZM666.678 268.8H664.278V270.8H666.678V268.8ZM663.278 269.8V364.2H665.278V269.8H663.278ZM664.278 363.2H608.678V365.2H664.278V363.2ZM709.078 253.2C720.39 253.2 729.41 251.048 736.033 246.632L734.923 244.968C728.747 249.086 720.166 251.2 709.078 251.2V253.2ZM736.04 246.627C742.915 241.952 747.835 235.092 750.827 226.116L748.929 225.484C746.055 234.108 741.375 240.581 734.916 244.973L736.04 246.627ZM750.83 226.108C753.805 216.912 755.278 205.735 755.278 192.6H753.278C753.278 205.598 751.818 216.554 748.927 225.492L750.83 226.108ZM755.278 192.6V183.4H753.278V192.6H755.278ZM755.278 183.4C755.278 170.002 753.805 158.82 750.827 149.884L748.929 150.516C751.818 159.18 753.278 170.131 753.278 183.4H755.278ZM750.83 149.892C747.84 140.652 742.917 133.773 736.017 129.358L734.939 131.042C741.373 135.16 746.05 141.615 748.927 150.508L750.83 149.892ZM736.056 129.384C729.429 124.69 720.4 122.4 709.078 122.4V124.4C720.156 124.4 728.727 126.644 734.9 131.016L736.056 129.384ZM709.078 122.4C698.525 122.4 689.771 124.837 682.894 129.788L684.062 131.412C690.518 126.763 698.832 124.4 709.078 124.4V122.4ZM682.894 129.788C676.035 134.727 670.991 141.842 667.735 151.067L669.621 151.733C672.765 142.825 677.588 136.073 684.062 131.412L682.894 129.788ZM667.735 151.067C664.487 160.27 662.878 171.322 662.878 184.2H664.878C664.878 171.478 666.469 160.664 669.621 151.733L667.735 151.067ZM662.878 184.2V191H664.878V184.2H662.878ZM662.878 191C662.878 200.399 663.818 209.013 665.706 216.835L667.65 216.365C665.805 208.721 664.878 200.268 664.878 191H662.878ZM665.708 216.843C667.596 224.395 670.302 230.902 673.84 236.345L675.517 235.255C672.121 230.032 669.494 223.739 667.648 216.357L665.708 216.843ZM673.859 236.373C677.681 241.834 682.468 246.076 688.214 249.086L689.142 247.314C683.688 244.457 679.142 240.433 675.497 235.227L673.859 236.373ZM688.248 249.103C694.016 251.849 700.971 253.2 709.078 253.2V251.2C701.185 251.2 694.541 249.884 689.108 247.297L688.248 249.103ZM852.037 293H851.037V294H852.037V293ZM852.037 82.6V81.6H851.037V82.6H852.037ZM898.037 82.6L899.029 82.467L898.912 81.6H898.037V82.6ZM902.438 115.4L901.446 115.533L901.563 116.4H902.438V115.4ZM905.238 115.4V116.4H905.924L906.171 115.759L905.238 115.4ZM915.637 96.6L916.433 97.206L916.44 97.1972L916.446 97.1882L915.637 96.6ZM931.637 82.6L932.114 83.4793L931.637 82.6ZM966.438 79L966.163 79.9615L966.195 79.9707L966.228 79.9778L966.438 79ZM974.838 81.4H975.838V80.7406L975.231 80.4808L974.838 81.4ZM974.838 131.8V132.8H975.838V131.8H974.838ZM935.637 135.4L935.966 136.344L935.977 136.341L935.989 136.336L935.637 135.4ZM920.037 145.8L919.29 145.136V145.136L920.037 145.8ZM910.438 163.4L909.482 163.106L909.477 163.123L909.472 163.14L910.438 163.4ZM907.637 293V294H908.637V293H907.637ZM853.037 293V82.6H851.037V293H853.037ZM852.037 83.6H898.037V81.6H852.037V83.6ZM897.046 82.7329L901.446 115.533L903.429 115.267L899.029 82.467L897.046 82.7329ZM902.438 116.4H905.238V114.4H902.438V116.4ZM906.171 115.759C908.805 108.909 912.227 102.727 916.433 97.206L914.842 95.9939C910.515 101.673 907.003 108.024 904.304 115.041L906.171 115.759ZM916.446 97.1882C920.625 91.4425 925.844 86.8752 932.114 83.4793L931.161 81.7207C924.63 85.2582 919.183 90.0241 914.829 96.0118L916.446 97.1882ZM932.114 83.4793C938.344 80.1045 945.642 78.4 954.037 78.4V76.4C945.367 76.4 937.731 78.1622 931.161 81.7207L932.114 83.4793ZM954.037 78.4C958.493 78.4 962.532 78.9242 966.163 79.9615L966.712 78.0385C962.876 76.9424 958.649 76.4 954.037 76.4V78.4ZM966.228 79.9778C969.943 80.7739 972.667 81.5579 974.444 82.3191L975.231 80.4808C973.274 79.6421 970.399 78.8261 966.647 78.0222L966.228 79.9778ZM973.838 81.4V131.8H975.838V81.4H973.838ZM974.838 130.8H957.637V132.8H974.838V130.8ZM957.637 130.8C949.275 130.8 941.819 132.014 935.286 134.464L935.989 136.336C942.256 133.986 949.466 132.8 957.637 132.8V130.8ZM935.309 134.455C929.016 136.644 923.672 140.207 919.29 145.136L920.785 146.464C924.937 141.793 929.992 138.422 935.966 136.344L935.309 134.455ZM919.29 145.136C914.917 150.056 911.652 156.053 909.482 163.106L911.393 163.694C913.49 156.88 916.625 151.144 920.785 146.464L919.29 145.136ZM909.472 163.14C907.577 170.179 906.637 178.404 906.637 187.8H908.637C908.637 178.53 909.565 170.488 911.403 163.66L909.472 163.14ZM906.637 187.8V293H908.637V187.8H906.637ZM907.637 292H852.037V294H907.637V292ZM1038.48 286.2L1038.04 287.095L1038.05 287.1L1038.48 286.2ZM1002.08 249.8L1001.19 250.247L1001.19 250.253L1002.08 249.8ZM1002.08 125.8L1002.97 126.259L1002.98 126.253L1002.08 125.8ZM1038.48 89.8L1038.92 90.7004L1038.93 90.6944L1038.48 89.8ZM1155.68 89.8L1155.23 90.6914L1155.24 90.696L1155.25 90.7003L1155.68 89.8ZM1192.08 125.8L1191.19 126.253L1191.2 126.259L1192.08 125.8ZM1192.08 249.8L1192.98 250.253L1192.98 250.247L1192.08 249.8ZM1155.68 286.2L1156.13 287.097L1156.13 287.094L1155.68 286.2ZM1126.08 247.8L1125.57 246.945L1125.56 246.949L1125.55 246.954L1126.08 247.8ZM1142.48 148.6L1143.42 148.252L1142.48 148.6ZM1126.08 127.8L1125.53 128.632L1125.55 128.644L1125.57 128.655L1126.08 127.8ZM1067.68 127.8L1068.22 128.646L1068.23 128.641L1067.68 127.8ZM1051.68 148.6L1050.75 148.252L1051.68 148.6ZM1051.68 227L1050.75 227.348L1051.68 227ZM1067.68 247.8L1067.15 248.646L1067.16 248.651L1067.17 248.655L1067.68 247.8ZM1096.88 296.8C1074.06 296.8 1054.75 292.951 1038.92 285.3L1038.05 287.1C1054.22 294.915 1073.84 298.8 1096.88 298.8V296.8ZM1038.93 285.306C1023.13 277.403 1011.15 265.427 1002.98 249.347L1001.19 250.253C1009.55 266.706 1021.84 278.997 1038.04 287.094L1038.93 285.306ZM1002.98 249.353C994.801 232.997 990.684 212.495 990.684 187.8H988.684C988.684 212.705 992.834 233.536 1001.19 250.247L1002.98 249.353ZM990.684 187.8C990.684 162.565 994.803 142.071 1002.97 126.259L1001.2 125.341C992.832 141.529 988.684 162.368 988.684 187.8H990.684ZM1002.98 126.253C1011.15 110.176 1023.12 98.3358 1038.92 90.7003L1038.05 88.8996C1021.85 96.7309 1009.56 108.891 1001.19 125.347L1002.98 126.253ZM1038.93 90.6944C1054.76 82.7806 1074.06 78.8 1096.88 78.8V76.8C1073.84 76.8 1054.21 80.8194 1038.04 88.9056L1038.93 90.6944ZM1096.88 78.8C1120.24 78.8 1139.68 82.7823 1155.23 90.6914L1156.14 88.9086C1140.23 80.8176 1120.46 76.8 1096.88 76.8V78.8ZM1155.25 90.7003C1171.05 98.3358 1183.02 110.176 1191.19 126.253L1192.98 125.347C1184.61 108.891 1172.32 96.7309 1156.12 88.8996L1155.25 90.7003ZM1191.2 126.259C1199.37 142.071 1203.48 162.565 1203.48 187.8H1205.48C1205.48 162.368 1201.34 141.529 1192.97 125.341L1191.2 126.259ZM1203.48 187.8C1203.48 212.495 1199.37 232.997 1191.19 249.353L1192.98 250.247C1201.33 233.536 1205.48 212.705 1205.48 187.8H1203.48ZM1191.19 249.347C1183.02 265.427 1171.04 277.403 1155.24 285.306L1156.13 287.094C1172.33 278.997 1184.61 266.706 1192.98 250.253L1191.19 249.347ZM1155.24 285.303C1139.69 292.95 1120.25 296.8 1096.88 296.8V298.8C1120.45 298.8 1140.22 294.917 1156.13 287.097L1155.24 285.303ZM1096.88 255.6C1109.26 255.6 1119.2 253.315 1126.62 248.646L1125.55 246.954C1118.57 251.352 1109.04 253.6 1096.88 253.6V255.6ZM1126.6 248.655C1134.29 243.988 1139.89 236.862 1143.42 227.348L1141.55 226.652C1138.15 235.805 1132.81 242.545 1125.57 246.945L1126.6 248.655ZM1143.42 227.348C1146.94 217.871 1148.68 206.278 1148.68 192.6H1146.68C1146.68 206.122 1144.96 217.462 1141.55 226.652L1143.42 227.348ZM1148.68 192.6V183H1146.68V192.6H1148.68ZM1148.68 183C1148.68 169.322 1146.94 157.729 1143.42 148.252L1141.55 148.948C1144.96 158.138 1146.68 169.478 1146.68 183H1148.68ZM1143.42 148.252C1139.89 138.738 1134.29 131.612 1126.6 126.945L1125.57 128.655C1132.81 133.055 1138.15 139.795 1141.55 148.948L1143.42 148.252ZM1126.64 126.968C1119.22 122.022 1109.27 119.6 1096.88 119.6V121.6C1109.03 121.6 1118.55 123.978 1125.53 128.632L1126.64 126.968ZM1096.88 119.6C1084.76 119.6 1074.82 122.025 1067.14 126.959L1068.23 128.641C1075.48 123.975 1085.01 121.6 1096.88 121.6V119.6ZM1067.15 126.954C1059.74 131.623 1054.28 138.749 1050.75 148.252L1052.62 148.948C1056.03 139.784 1061.23 133.043 1068.22 128.646L1067.15 126.954ZM1050.75 148.252C1047.23 157.729 1045.48 169.322 1045.48 183H1047.48C1047.48 169.478 1049.21 158.138 1052.62 148.948L1050.75 148.252ZM1045.48 183V192.6H1047.48V183H1045.48ZM1045.48 192.6C1045.48 206.278 1047.23 217.871 1050.75 227.348L1052.62 226.652C1049.21 217.462 1047.48 206.122 1047.48 192.6H1045.48ZM1050.75 227.348C1054.28 236.851 1059.74 243.977 1067.15 248.646L1068.22 246.954C1061.23 242.557 1056.03 235.816 1052.62 226.652L1050.75 227.348ZM1067.17 248.655C1074.84 253.312 1084.77 255.6 1096.88 255.6V253.6C1085 253.6 1075.47 251.354 1068.2 246.945L1067.17 248.655ZM1255 293H1254V294H1255V293ZM1255 125.4H1256V124.4H1255V125.4ZM1225 125.4H1224V126.4H1225V125.4ZM1225 82.6V81.6H1224V82.6H1225ZM1255 82.6V83.6H1256V82.6H1255ZM1260.6 29L1259.68 28.5963L1259.68 28.6029L1259.68 28.6094L1260.6 29ZM1279.4 7.79998L1278.89 6.94012V6.94012L1279.4 7.79998ZM1325.8 0.999992L1325.67 1.9923L1325.68 1.99314L1325.8 0.999992ZM1338.6 3.39999L1338.34 4.36622L1338.38 4.37592L1338.41 4.38286L1338.6 3.39999ZM1349.4 6.2H1350.4V5.49957L1349.74 5.2602L1349.4 6.2ZM1349.4 43V44H1350.4V43H1349.4ZM1315 47.8L1314.29 47.0929L1314.27 47.1082L1314.26 47.1243L1315 47.8ZM1310.6 82.6H1309.6V83.6H1310.6V82.6ZM1349.4 82.6H1350.4V81.6H1349.4V82.6ZM1349.4 125.4V126.4H1350.4V125.4H1349.4ZM1310.6 125.4V124.4H1309.6V125.4H1310.6ZM1310.6 293V294H1311.6V293H1310.6ZM1375.4 51.8H1374.4V52.8H1375.4V51.8ZM1375.4 3.79998V2.79998H1374.4V3.79998H1375.4ZM1430.6 3.79998H1431.6V2.79998H1430.6V3.79998ZM1430.6 51.8V52.8H1431.6V51.8H1430.6ZM1375.4 293H1374.4V294H1375.4V293ZM1375.4 82.6V81.6H1374.4V82.6H1375.4ZM1430.6 82.6H1431.6V81.6H1430.6V82.6ZM1430.6 293V294H1431.6V293H1430.6ZM1256 293V125.4H1254V293H1256ZM1255 124.4H1225V126.4H1255V124.4ZM1226 125.4V82.6H1224V125.4H1226ZM1225 83.6H1255V81.6H1225V83.6ZM1256 82.6V59.4H1254V82.6H1256ZM1256 59.4C1256 48.0413 1257.85 38.0449 1261.52 29.3905L1259.68 28.6094C1255.88 37.555 1254 47.8254 1254 59.4H1256ZM1261.51 29.4036C1265.43 20.5277 1271.55 13.6204 1279.91 8.65983L1278.89 6.94012C1270.17 12.1129 1263.77 19.3389 1259.68 28.5963L1261.51 29.4036ZM1279.91 8.65983C1288.23 3.7158 1299.37 1.19998 1313.4 1.19998V-0.800022C1299.16 -0.800022 1287.63 1.75082 1278.89 6.94012L1279.91 8.65983ZM1313.4 1.19998C1317.35 1.19998 1321.44 1.46369 1325.67 1.99227L1325.92 0.00771523C1321.62 -0.530392 1317.44 -0.800022 1313.4 -0.800022V1.19998ZM1325.68 1.99314C1330.17 2.52144 1334.39 3.31306 1338.34 4.36622L1338.85 2.43375C1334.8 1.35357 1330.49 0.545198 1325.91 0.00684166L1325.68 1.99314ZM1338.41 4.38286C1342.64 5.17639 1346.19 6.09737 1349.06 7.13979L1349.74 5.2602C1346.74 4.16929 1343.08 3.22359 1338.78 2.41711L1338.41 4.38286ZM1348.4 6.2V43H1350.4V6.2H1348.4ZM1349.4 42H1329.4V44H1349.4V42ZM1329.4 42C1322.84 42 1317.74 43.6392 1314.29 47.0929L1315.7 48.5071C1318.65 45.5608 1323.15 44 1329.4 44V42ZM1314.26 47.1243C1311.1 50.5728 1309.6 55.5196 1309.6 61.8H1311.6C1311.6 55.8137 1313.03 51.4272 1315.73 48.4757L1314.26 47.1243ZM1309.6 61.8V82.6H1311.6V61.8H1309.6ZM1310.6 83.6H1349.4V81.6H1310.6V83.6ZM1348.4 82.6V125.4H1350.4V82.6H1348.4ZM1349.4 124.4H1310.6V126.4H1349.4V124.4ZM1309.6 125.4V293H1311.6V125.4H1309.6ZM1310.6 292H1255V294H1310.6V292ZM1376.4 51.8V3.79998H1374.4V51.8H1376.4ZM1375.4 4.79998H1430.6V2.79998H1375.4V4.79998ZM1429.6 3.79998V51.8H1431.6V3.79998H1429.6ZM1430.6 50.8H1375.4V52.8H1430.6V50.8ZM1376.4 293V82.6H1374.4V293H1376.4ZM1375.4 83.6H1430.6V81.6H1375.4V83.6ZM1429.6 82.6V293H1431.6V82.6H1429.6ZM1430.6 292H1375.4V294H1430.6V292ZM1481.72 293H1480.72V294H1481.72V293ZM1481.72 3.79998V2.79998H1480.72V3.79998H1481.72ZM1537.32 3.79998H1538.32V2.79998H1537.32V3.79998ZM1537.32 293V294H1538.32V293H1537.32ZM1482.72 293V3.79998H1480.72V293H1482.72ZM1481.72 4.79998H1537.32V2.79998H1481.72V4.79998ZM1536.32 3.79998V293H1538.32V3.79998H1536.32ZM1537.32 292H1481.72V294H1537.32V292ZM1625.57 286.2L1625.11 287.091L1625.12 287.097L1625.57 286.2ZM1589.97 249.8L1589.07 250.241L1589.97 249.8ZM1589.97 125.8L1590.86 126.247L1590.86 126.241L1589.97 125.8ZM1625.17 89.8L1625.61 90.6944L1625.62 90.6914L1625.17 89.8ZM1736.77 89.4L1736.3 90.2846L1736.31 90.2879L1736.31 90.2912L1736.77 89.4ZM1769.97 124.6L1769.06 125.023L1769.06 125.029L1769.97 124.6ZM1781.17 200.2V201.2H1782.17V200.2H1781.17ZM1634.37 200.2V199.2H1633.32L1633.37 200.243L1634.37 200.2ZM1639.97 231.4L1639.03 231.751L1639.03 231.764L1639.04 231.776L1639.97 231.4ZM1655.57 250.6L1655.04 251.452L1655.06 251.463L1655.08 251.474L1655.57 250.6ZM1701.17 254.2L1700.88 253.242L1700.87 253.244L1700.86 253.246L1701.17 254.2ZM1714.77 247L1715.42 247.759L1714.77 247ZM1723.57 235L1722.65 234.594L1723.57 235ZM1726.77 218.6V217.6H1725.77V218.6H1726.77ZM1781.17 218.6H1782.17V217.6H1781.17V218.6ZM1773.97 253.4L1773.07 252.963V252.963L1773.97 253.4ZM1753.97 278.2L1754.57 279L1754.57 278.994L1754.58 278.988L1753.97 278.2ZM1723.17 293L1723.43 293.965L1723.44 293.963L1723.44 293.961L1723.17 293ZM1635.17 165L1634.17 164.873L1634.03 166H1635.17V165ZM1723.97 165V166H1724.97V165H1723.97ZM1720.77 144.2L1719.81 144.503L1719.82 144.523L1719.83 144.542L1720.77 144.2ZM1712.77 129.8L1713.5 129.12L1712.77 129.8ZM1699.97 121.8L1699.6 122.732L1699.63 122.744L1699.66 122.754L1699.97 121.8ZM1657.97 124.2L1658.4 125.102L1658.41 125.098L1658.41 125.094L1657.97 124.2ZM1642.37 139.4L1641.49 138.926L1641.48 138.932L1641.48 138.939L1642.37 139.4ZM1683.97 296.8C1660.87 296.8 1641.57 292.95 1626.01 285.303L1625.12 287.097C1641.03 294.916 1660.66 298.8 1683.97 298.8V296.8ZM1626.02 285.309C1610.48 277.409 1598.77 265.437 1590.86 249.359L1589.07 250.241C1597.16 266.696 1609.18 278.991 1625.11 287.091L1626.02 285.309ZM1590.86 249.359C1582.95 233.272 1578.97 212.769 1578.97 187.8H1576.97C1576.97 212.964 1580.98 233.795 1589.07 250.241L1590.86 249.359ZM1578.97 187.8C1578.97 162.561 1582.95 142.063 1590.86 126.247L1589.07 125.353C1580.98 141.537 1576.97 162.372 1576.97 187.8H1578.97ZM1590.86 126.241C1598.77 110.161 1610.35 98.325 1625.61 90.6944L1624.72 88.9056C1609.05 96.7416 1597.16 108.906 1589.07 125.359L1590.86 126.241ZM1625.62 90.6914C1641.18 82.7801 1660.21 78.8 1682.77 78.8V76.8C1659.98 76.8 1640.62 80.8198 1624.71 88.9086L1625.62 90.6914ZM1682.77 78.8C1703.98 78.8 1721.81 82.6457 1736.3 90.2846L1737.23 88.5154C1722.39 80.6877 1704.22 76.8 1682.77 76.8V78.8ZM1736.31 90.2912C1750.76 97.649 1761.68 109.209 1769.06 125.023L1770.87 124.177C1763.32 107.991 1752.1 96.0843 1737.22 88.5088L1736.31 90.2912ZM1769.06 125.029C1776.44 140.583 1780.17 160.821 1780.17 185.8H1782.17C1782.17 160.645 1778.42 140.084 1770.87 124.171L1769.06 125.029ZM1780.17 185.8V200.2H1782.17V185.8H1780.17ZM1781.17 199.2H1634.37V201.2H1781.17V199.2ZM1633.37 200.243C1633.9 212.581 1635.78 223.092 1639.03 231.751L1640.9 231.049C1637.75 222.642 1635.89 212.352 1635.36 200.157L1633.37 200.243ZM1639.04 231.776C1642.57 240.48 1647.9 247.059 1655.04 251.452L1656.09 249.748C1649.36 245.608 1644.29 239.387 1640.89 231.024L1639.04 231.776ZM1655.08 251.474C1662.48 255.584 1672.13 257.6 1683.97 257.6V255.6C1672.33 255.6 1663.05 253.616 1656.05 249.726L1655.08 251.474ZM1683.97 257.6C1690.45 257.6 1696.29 256.79 1701.47 255.154L1700.86 253.246C1695.91 254.81 1690.28 255.6 1683.97 255.6V257.6ZM1701.45 255.158C1706.9 253.523 1711.56 251.061 1715.42 247.759L1714.11 246.241C1710.5 249.339 1706.1 251.677 1700.88 253.242L1701.45 255.158ZM1715.42 247.759C1719.27 244.456 1722.29 240.332 1724.48 235.406L1722.65 234.594C1720.57 239.268 1717.73 243.144 1714.11 246.241L1715.42 247.759ZM1724.48 235.406C1726.68 230.459 1727.77 224.85 1727.77 218.6H1725.77C1725.77 224.617 1724.72 229.941 1722.65 234.594L1724.48 235.406ZM1726.77 219.6H1781.17V217.6H1726.77V219.6ZM1780.17 218.6C1780.17 231.814 1777.79 243.258 1773.07 252.963L1774.86 253.837C1779.74 243.808 1782.17 232.053 1782.17 218.6H1780.17ZM1773.07 252.963C1768.33 262.694 1761.76 270.84 1753.35 277.412L1754.58 278.988C1763.24 272.226 1770 263.839 1774.86 253.837L1773.07 252.963ZM1753.37 277.4C1744.94 283.716 1734.79 288.601 1722.89 292.039L1723.44 293.961C1735.54 290.466 1745.92 285.484 1754.57 279L1753.37 277.4ZM1722.9 292.035C1711.27 295.208 1698.29 296.8 1683.97 296.8V298.8C1698.44 298.8 1711.6 297.192 1723.43 293.965L1722.9 292.035ZM1635.17 166H1723.97V164H1635.17V166ZM1724.97 165C1724.97 156.915 1723.89 149.86 1721.71 143.858L1719.83 144.542C1721.91 150.273 1722.97 157.085 1722.97 165H1724.97ZM1721.72 143.897C1719.82 137.918 1717.08 132.981 1713.5 129.12L1712.03 130.48C1715.38 134.086 1717.98 138.748 1719.81 144.503L1721.72 143.897ZM1713.5 129.12C1709.91 125.254 1705.49 122.496 1700.27 120.846L1699.66 122.754C1704.57 124.304 1708.69 126.88 1712.03 130.48L1713.5 129.12ZM1700.33 120.868C1695.39 118.949 1689.8 118 1683.57 118V120C1689.6 120 1694.94 120.918 1699.6 122.732L1700.33 120.868ZM1683.57 118C1673.32 118 1664.63 119.751 1657.52 123.306L1658.41 125.094C1665.17 121.715 1673.54 120 1683.57 120V118ZM1657.53 123.298C1650.66 126.596 1645.31 131.819 1641.49 138.926L1643.25 139.874C1646.89 133.114 1651.94 128.204 1658.4 125.102L1657.53 123.298ZM1641.48 138.939C1637.94 145.742 1635.52 154.399 1634.17 164.873L1636.16 165.127C1637.48 154.801 1639.86 146.391 1643.25 139.861L1641.48 138.939Z" fill="url(#paint0_linear_203_340)" mask="url(#path-1-outside-1_203_340)"/>
</g>
<defs>
<linearGradient id="paint0_linear_203_340" x1="800" y1="19" x2="800" y2="293" gradientUnits="userSpaceOnUse">
<stop stop-color="#2F185B"/>
<stop offset="1" stop-color="white" stop-opacity="0"/>
</linearGradient>
</defs>
</svg>
