<svg width="16" height="15" viewBox="0 0 16 15" fill="none" xmlns="http://www.w3.org/2000/svg">
<path d="M8.16998 3.6537C7.40931 3.6537 6.66573 3.87926 6.03326 4.30186C5.40079 4.72447 4.90783 5.32513 4.61674 6.0279C4.32565 6.73066 4.24948 7.50396 4.39788 8.25002C4.54628 8.99607 4.91258 9.68136 5.45045 10.2192C5.98832 10.7571 6.67361 11.1234 7.41966 11.2718C8.16571 11.4202 8.93902 11.344 9.64178 11.0529C10.3445 10.7618 10.9452 10.2689 11.3678 9.63642C11.7904 9.00395 12.016 8.26037 12.016 7.4997C12.0168 6.99441 11.9178 6.49394 11.7248 6.02696C11.5318 5.55999 11.2486 5.1357 10.8913 4.7784C10.534 4.42111 10.1097 4.13785 9.64272 3.94485C9.17574 3.75185 8.67527 3.65291 8.16998 3.6537ZM8.16998 9.9997C7.67553 9.9997 7.19218 9.85308 6.78105 9.57837C6.36993 9.30367 6.0495 8.91322 5.86028 8.45641C5.67106 7.99959 5.62155 7.49692 5.71802 7.01197C5.81448 6.52702 6.05258 6.08156 6.40221 5.73193C6.75184 5.3823 7.1973 5.1442 7.68225 5.04773C8.16721 4.95127 8.66987 5.00078 9.12669 5.19C9.5835 5.37922 9.97395 5.69965 10.2487 6.11077C10.5234 6.52189 10.67 7.00525 10.67 7.4997C10.67 8.16274 10.4066 8.79862 9.93775 9.26746C9.46891 9.7363 8.83302 9.9997 8.16998 9.9997ZM13.07 3.4997C13.07 3.6777 13.0172 3.85171 12.9183 3.99971C12.8194 4.14771 12.6788 4.26307 12.5144 4.33119C12.3499 4.39931 12.169 4.41713 11.9944 4.3824C11.8198 4.34768 11.6595 4.26196 11.5336 4.13609C11.4077 4.01023 11.322 3.84986 11.2873 3.67528C11.2525 3.50069 11.2704 3.31973 11.3385 3.15528C11.4066 2.99083 11.522 2.85027 11.67 2.75138C11.818 2.65248 11.992 2.5997 12.17 2.5997C12.2881 2.59904 12.4052 2.62177 12.5145 2.66657C12.6238 2.71138 12.7231 2.77738 12.8068 2.86077C12.8905 2.94415 12.9568 3.04328 13.002 3.15242C13.0471 3.26157 13.0702 3.37857 13.07 3.4967V3.4997ZM15.617 4.4097C15.6416 3.24348 15.2062 2.11443 14.405 1.2667C13.5556 0.468107 12.4277 0.033161 11.262 0.0546973C10.024 -0.0153027 6.31198 -0.0153027 5.07298 0.0546973C3.90776 0.031442 2.77968 0.465016 1.92998 1.2627C1.13132 2.11112 0.696934 3.23873 0.71998 4.4037C0.64998 5.6417 0.64998 9.3537 0.71998 10.5927C0.69533 11.7589 1.13072 12.888 1.93198 13.7357C2.78174 14.5337 3.90942 14.9686 5.07498 14.9477C6.31298 15.0177 10.025 15.0177 11.264 14.9477C12.4302 14.9723 13.5593 14.537 14.407 13.7357C15.2056 12.8863 15.6405 11.7584 15.619 10.5927C15.688 9.3537 15.688 5.6457 15.618 4.4067L15.617 4.4097ZM14.017 11.9237C13.8897 12.2464 13.6974 12.5395 13.4521 12.7849C13.2068 13.0302 12.9137 13.2224 12.591 13.3497C11.1371 13.6477 9.64976 13.7486 8.16898 13.6497C6.6882 13.7471 5.20104 13.6462 3.74698 13.3497C3.42425 13.2224 3.13113 13.0302 2.88582 12.7849C2.64051 12.5395 2.44825 12.2464 2.32098 11.9237C2.02294 10.4698 1.92203 8.98248 2.02098 7.5017C1.92359 6.02092 2.02448 4.53376 2.32098 3.0797C2.44825 2.75697 2.64051 2.46385 2.88582 2.21854C3.13113 1.97323 3.42425 1.78097 3.74698 1.6537C5.20083 1.35566 6.6882 1.25475 8.16898 1.3537C9.64976 1.25631 11.1369 1.3572 12.591 1.6537C12.9134 1.7803 13.2064 1.97173 13.4519 2.21616C13.6974 2.46059 13.89 2.7528 14.018 3.0747C14.316 4.52855 14.4169 6.01591 14.318 7.4967C14.4173 8.97848 14.3164 10.4669 14.018 11.9217L14.017 11.9237Z" fill="#E8EBF8"/>
</svg>
