<svg width="60" height="60" viewBox="0 0 60 60" fill="none" xmlns="http://www.w3.org/2000/svg">
    <path d="M17 33.25H12.125C11.7935 33.25 11.4755 33.3817 11.2411 33.6161C11.0067 33.8505 10.875 34.1685 10.875 34.5V54.125C10.875 54.4565 11.0067 54.7745 11.2411 55.0089C11.4755 55.2433 11.7935 55.375 12.125 55.375H17C17.3315 55.375 17.6495 55.2433 17.8839 55.0089C18.1183 54.7745 18.25 54.4565 18.25 54.125V34.5C18.25 34.1685 18.1183 33.8505 17.8839 33.6161C17.6495 33.3817 17.3315 33.25 17 33.25ZM15.75 52.875H13.375V35.75H15.75V52.875Z" fill="currentColor"/>
    <path d="M7.125 44H2.25C1.91848 44 1.60054 44.1317 1.36612 44.3661C1.1317 44.6005 1 44.9185 1 45.25V54.125C1 54.4565 1.1317 54.7745 1.36612 55.0089C1.60054 55.2433 1.91848 55.375 2.25 55.375H7.125C7.45652 55.375 7.77446 55.2433 8.00888 55.0089C8.2433 54.7745 8.375 54.4565 8.375 54.125V45.25C8.375 44.9185 8.2433 44.6005 8.00888 44.3661C7.77446 44.1317 7.45652 44 7.125 44ZM5.875 52.875H3.5V46.5H5.875V52.875Z" fill="currentColor"/>
    <path d="M2.14426 37.9141L25.2693 14.795L30.0019 19.5276C30.2363 19.7619 30.5542 19.8936 30.8856 19.8936C31.2171 19.8936 31.535 19.7619 31.7694 19.5276L46.1875 5.11609L46.1791 10.6318C46.179 10.7955 46.2111 10.9576 46.2738 11.1088C46.3365 11.26 46.4285 11.3973 46.5444 11.5129C46.6604 11.6284 46.798 11.7199 46.9494 11.782C47.1009 11.8441 47.2631 11.8757 47.4268 11.875H47.4288C47.5923 11.8759 47.7544 11.8446 47.9058 11.7828C48.0572 11.721 48.1949 11.6299 48.311 11.5148C48.4271 11.3997 48.5194 11.2628 48.5825 11.1119C48.6456 10.9611 48.6783 10.7992 48.6788 10.6357L48.6913 2.08571C48.6914 1.92421 48.6591 1.76432 48.5962 1.61558C48.5333 1.46684 48.441 1.33229 48.325 1.21996C48.2079 1.10691 48.0696 1.0182 47.9179 0.958984C47.7663 0.899764 47.6045 0.871206 47.4418 0.874961H47.439L38.8843 0.875961C38.559 0.885578 38.2503 1.02165 38.0238 1.25527C37.7973 1.48889 37.6708 1.80164 37.6712 2.12704C37.6716 2.45245 37.7989 2.76486 38.0261 2.99789C38.2532 3.23092 38.5622 3.36619 38.8875 3.37496H38.8904L44.4236 3.35346L30.8863 16.8805L26.1536 12.1456C25.9194 11.911 25.6016 11.7792 25.2701 11.7789C24.9386 11.7787 24.6206 11.9101 24.386 12.1443L0.376758 36.1466C0.25737 36.2619 0.162142 36.3998 0.0966312 36.5523C0.0311199 36.7048 -0.00336283 36.8689 -0.0048051 37.0348C-0.00624737 37.2008 0.0253799 37.3654 0.088231 37.519C0.151082 37.6726 0.243898 37.8122 0.361264 37.9296C0.47863 38.0469 0.618195 38.1398 0.771815 38.2026C0.925436 38.2655 1.09004 38.2971 1.25601 38.2957C1.42198 38.2942 1.58601 38.2597 1.73851 38.1942C1.89102 38.1287 2.02895 38.0335 2.14426 37.9141Z" fill="currentColor"/>
    <path d="M47.625 36.5644V17.8875C47.6272 17.7237 47.597 17.561 47.5362 17.4088C47.4755 17.2566 47.3853 17.1179 47.2708 17.0007C47.1564 16.8834 47.0199 16.7898 46.8693 16.7254C46.7186 16.6609 46.5567 16.6268 46.3929 16.625H41.5584C40.868 16.625 40.25 17.1975 40.25 17.8875V35.211C39.4511 35.2705 38.6574 35.3867 37.875 35.5588V24.4032C37.8748 24.0682 37.7432 23.7467 37.5085 23.5076C37.2737 23.2686 36.9546 23.1312 36.6196 23.125H31.7853C31.4472 23.13 31.1242 23.2661 30.8845 23.5046C30.6447 23.743 30.5069 24.0652 30.5 24.4032V38.883C29.75 39.441 28.875 40.0603 28.125 40.733V31.5705C28.125 30.8801 27.5369 30.3753 26.8465 30.3753H22.0125C21.3221 30.3753 20.75 30.8801 20.75 31.5705V54.133C20.753 54.465 20.8877 54.7823 21.1244 55.0151C21.3611 55.248 21.6805 55.3774 22.0125 55.375H26.8469C27.1805 55.3778 27.5017 55.249 27.741 55.0165C27.9802 54.7841 28.1182 54.4667 28.125 54.1331V53.6125C31.5 56.4292 36.0671 59.1625 41.2011 59.1625C45.4675 59.1625 50.0323 57.2026 54.4156 53.4949C56.3914 51.8304 58.1808 49.9564 59.7524 47.906C59.9073 47.6908 59.9897 47.4319 59.9878 47.1667C59.9858 46.9016 59.8996 46.6439 59.7416 46.431C59.5274 46.1375 54.625 39.5125 47.625 36.5644ZM42.75 19.125H45.125V35.71C44.3475 35.4955 43.5529 35.3491 42.75 35.2725V19.125ZM33 25.625H35.375V36.3125C34.625 36.6084 33.875 36.9607 33 37.371V25.625ZM23.25 32.875H25.625V43.0321C24.7694 43.8331 23.9755 44.6975 23.25 45.6179V32.875ZM25.625 52.875H23.25V48.7178C23.9762 49.6389 24.7701 50.5046 25.625 51.3078V52.875ZM41.1875 56.6625C38.2529 56.6625 33.5794 55.5327 27.9831 50.1534C27.0083 49.2108 26.0874 48.2139 25.225 47.1675C26.0294 46.1911 26.8861 45.2589 27.7911 44.375C29.2428 42.9422 30.8363 41.6606 32.547 40.55C33.9503 39.6284 35.4676 38.8933 37.0606 38.3633C38.3923 37.923 39.7845 37.6926 41.187 37.6804C41.2986 37.6804 41.3949 37.6804 41.4854 37.6852C41.496 37.6852 41.5065 37.6863 41.5171 37.6865C42.9909 37.7379 44.4468 38.0252 45.8296 38.5374H45.8304C51.273 40.5053 55.6242 45.3211 57.1464 47.1681C55.2139 49.5179 48.7145 56.6625 41.1875 56.6625Z" fill="currentColor"/>
    <path d="M41.1875 38.8555C39.5434 38.8555 37.9363 39.343 36.5693 40.2564C35.2023 41.1698 34.1369 42.468 33.5078 43.9869C32.8786 45.5058 32.714 47.1772 33.0347 48.7897C33.3555 50.4021 34.1472 51.8833 35.3097 53.0458C36.4722 54.2083 37.9533 55 39.5658 55.3207C41.1783 55.6415 42.8497 55.4769 44.3686 54.8477C45.8875 54.2186 47.1857 53.1531 48.0991 51.7861C49.0125 50.4192 49.5 48.812 49.5 47.168C49.4975 44.9641 48.6209 42.8513 47.0625 41.293C45.5042 39.7346 43.3913 38.858 41.1875 38.8555ZM41.1875 52.9805C40.0379 52.9805 38.9141 52.6396 37.9583 52.0009C37.0024 51.3622 36.2574 50.4544 35.8175 49.3923C35.3775 48.3302 35.2624 47.1615 35.4867 46.034C35.711 44.9065 36.2646 43.8708 37.0774 43.0579C37.8903 42.245 38.926 41.6914 40.0535 41.4672C41.1811 41.2429 42.3498 41.358 43.4119 41.7979C44.4739 42.2379 45.3817 42.9829 46.0204 43.9387C46.6591 44.8946 47 46.0184 47 47.168C46.9983 48.7091 46.3854 50.1865 45.2957 51.2763C44.206 52.366 42.7286 52.9791 41.1875 52.9808V52.9805Z" fill="white"/>
</svg>
