<svg width="62" height="50" viewBox="0 0 62 50" fill="none" xmlns="http://www.w3.org/2000/svg">
    <path d="M56.125 0.512451H24.0541C22.7285 0.51394 21.4576 1.0412 20.5202 1.97856C19.5829 2.91592 19.0556 4.18683 19.0541 5.51245V8.72495H5.875C4.54937 8.72644 3.27847 9.2537 2.34111 10.1911C1.40375 11.1284 0.876489 12.3993 0.875 13.725V36.3499C0.876489 37.6756 1.40375 38.9465 2.34111 39.8838C3.27847 40.8212 4.54937 41.3485 5.875 41.3499H7.35137V48.2374C7.35145 48.4621 7.41204 48.6825 7.52678 48.8756C7.64153 49.0687 7.80619 49.2273 8.00344 49.3348C8.20069 49.4422 8.42325 49.4945 8.64771 49.4862C8.87218 49.4779 9.09025 49.4092 9.279 49.2874L21.583 41.3499H34.4729C35.7985 41.3485 37.0694 40.8212 38.0068 39.8838C38.9441 38.9465 39.4714 37.6756 39.4729 36.3499V32.3903H41.2625L52.8685 41.8624C53.0517 42.012 53.2736 42.1065 53.5084 42.135C53.7432 42.1634 53.9812 42.1247 54.1949 42.0233C54.4085 41.9219 54.589 41.7619 54.7154 41.562C54.8418 41.3621 54.9089 41.1305 54.9089 40.894V32.3903H56.125C57.4506 32.3888 58.7215 31.8616 59.6589 30.9242C60.5962 29.9869 61.1235 28.716 61.125 27.3903V5.51245C61.1235 4.18683 60.5962 2.91592 59.6589 1.97856C58.7215 1.0412 57.4506 0.51394 56.125 0.512451ZM36.973 36.3499C36.9722 37.0128 36.7086 37.6482 36.2399 38.1169C35.7712 38.5856 35.1358 38.8492 34.473 38.8499H21.2149C20.9745 38.8501 20.7392 38.9195 20.5373 39.0499L9.8515 45.944V40.0999C9.8515 39.7684 9.7198 39.4505 9.48538 39.2161C9.25096 38.9816 8.93302 38.8499 8.6015 38.8499H5.875C5.21219 38.8492 4.57675 38.5856 4.10807 38.1169C3.6394 37.6482 3.37576 37.0128 3.375 36.3499V13.725C3.37576 13.0621 3.6394 12.4267 4.10807 11.958C4.57675 11.4893 5.21219 11.2257 5.875 11.225H19.0541V27.3903C19.0556 28.716 19.5829 29.9869 20.5202 30.9242C21.4576 31.8616 22.7285 32.3888 24.0541 32.3903H36.973V36.3499ZM58.625 27.3903C58.6242 28.0531 58.3606 28.6886 57.8919 29.1573C57.4232 29.6259 56.7878 29.8896 56.125 29.8903H53.6589C53.3274 29.8903 53.0094 30.022 52.775 30.2564C52.5406 30.4909 52.4089 30.8088 52.4089 31.1403V38.2605L42.4976 30.172C42.2745 29.9899 41.9953 29.8904 41.7072 29.8904H24.0541C23.3913 29.8897 22.7559 29.6261 22.2872 29.1574C21.8185 28.6887 21.5549 28.0533 21.5541 27.3904V5.51245C21.5549 4.84964 21.8185 4.2142 22.2872 3.74552C22.7559 3.27685 23.3913 3.01321 24.0541 3.01245H56.125C56.7878 3.01321 57.4232 3.27685 57.8919 3.74552C58.3606 4.2142 58.6242 4.84964 58.625 5.51245V27.3903Z" fill="currentColor"/>
</svg>
