<svg width="20" height="15" viewBox="0 0 20 15" fill="none" xmlns="http://www.w3.org/2000/svg">
<path d="M17.237 3.73843C17.249 3.90243 17.249 4.06643 17.249 4.23043C17.2583 5.64736 16.9861 7.05203 16.4481 8.36291C15.9102 9.67378 15.1172 10.8648 14.1153 11.8667C13.1133 12.8686 11.9223 13.6616 10.6115 14.1996C9.3006 14.7375 7.89593 15.0097 6.47899 15.0004C4.41848 15.0055 2.40032 14.4156 0.666992 13.3014C0.970482 13.3349 1.27567 13.3506 1.58099 13.3484C3.28486 13.3529 4.94056 12.7833 6.28099 11.7314C5.49117 11.717 4.72557 11.4563 4.0911 10.9857C3.45663 10.5151 2.98497 9.85809 2.74199 9.10643C2.97851 9.14401 3.21752 9.16373 3.45699 9.16543C3.79443 9.16478 4.13043 9.12144 4.45699 9.03643C3.59847 8.86388 2.82631 8.39907 2.27201 7.72115C1.71771 7.04322 1.41555 6.19412 1.41699 5.31843V5.27143C1.94155 5.56399 2.52781 5.72846 3.12799 5.75143C2.32473 5.21561 1.75619 4.39348 1.5384 3.45279C1.3206 2.5121 1.46996 1.52376 1.95599 0.689431C2.90621 1.85912 4.09156 2.81613 5.43524 3.49848C6.77892 4.18083 8.25096 4.57329 9.75599 4.65043C9.69699 4.36587 9.66717 4.07604 9.66699 3.78543C9.66776 3.02623 9.89657 2.28476 10.3238 1.65716C10.751 1.02956 11.3569 0.544771 12.0629 0.265637C12.7689 -0.0134969 13.5425 -0.0740977 14.2834 0.0916905C15.0243 0.257479 15.6983 0.642009 16.218 1.19543C17.0649 1.03195 17.8769 0.72269 18.618 0.28143C18.3358 1.15615 17.7441 1.89786 16.954 2.36743C17.7058 2.28189 18.4406 2.08436 19.134 1.78143C18.6162 2.53578 17.9749 3.19739 17.237 3.73843Z" fill="#E8EBF8"/>
</svg>
