<svg width="22" height="15" viewBox="0 0 22 15" fill="none" xmlns="http://www.w3.org/2000/svg">
<path d="M21.555 2.347C21.4347 1.89281 21.1971 1.47821 20.8661 1.14474C20.5351 0.811281 20.1223 0.570662 19.669 0.446999C18.005 -1.40071e-06 11.334 0 11.334 0C11.334 0 4.663 -2.5034e-06 2.999 0.448997C2.54571 0.572661 2.13288 0.81328 1.80187 1.14674C1.47086 1.48021 1.2333 1.89481 1.113 2.349C0.51865 5.7687 0.51865 9.2653 1.113 12.685C1.2345 13.1351 1.47299 13.5451 1.80425 13.8732C2.13551 14.2013 2.54772 14.4358 2.999 14.553C4.663 15 11.334 15 11.334 15C11.334 15 18.005 15 19.669 14.551C20.1203 14.4338 20.5325 14.1993 20.8637 13.8712C21.195 13.5431 21.4335 13.1331 21.555 12.683C22.1493 9.2633 22.1493 5.7667 21.555 2.347ZM9.155 10.687V4.343L14.731 7.515L9.155 10.687Z" fill="#E8EBF8"/>
</svg>
