<?xml version="1.0" standalone="no"?>
<!DOCTYPE svg PUBLIC "-//W3C//DTD SVG 20010904//EN"
 "http://www.w3.org/TR/2001/REC-SVG-20010904/DTD/svg10.dtd">
<svg version="1.0" xmlns="http://www.w3.org/2000/svg"
 width="500.000000pt" height="500.000000pt" viewBox="0 0 500.000000 500.000000"
 preserveAspectRatio="xMidYMid meet">
<metadata>
Created by potrace 1.14, written by Peter Selinger 2001-2017
</metadata>
<g transform="translate(0.000000,500.000000) scale(0.100000,-0.100000)"
fill="#000000" stroke="none">
<path d="M2366 4983 c-203 -46 -377 -228 -421 -438 -26 -127 -13 -217 60 -405
25 -63 31 -195 12 -241 l-15 -36 -708 -1 c-390 0 -712 -1 -716 -1 -5 -1 -8
-322 -8 -715 l0 -714 28 -11 c67 -27 207 -14 297 28 113 53 258 69 375 41 243
-57 425 -276 436 -525 15 -332 -245 -600 -576 -596 -96 1 -100 2 -287 73 -65
24 -198 29 -245 10 l-28 -12 0 -720 0 -720 1759 0 c1727 0 1760 0 1823 20 128
39 226 139 264 269 14 48 16 234 16 1805 -1 963 -1 1756 -1 1761 -1 7 -246 10
-716 9 l-716 -1 -12 21 c-6 12 -12 57 -14 101 -2 82 -3 77 67 269 29 81 36
201 17 293 -16 71 -56 169 -86 206 -107 134 -212 204 -352 233 -83 17 -171 16
-253 -3z"/>
</g>
</svg>
