<?xml version="1.0" standalone="no"?>
<!DOCTYPE svg PUBLIC "-//W3C//DTD SVG 20010904//EN"
 "http://www.w3.org/TR/2001/REC-SVG-20010904/DTD/svg10.dtd">
<svg version="1.0" xmlns="http://www.w3.org/2000/svg"
 width="2171.000000pt" height="2171.000000pt" viewBox="0 0 2171.000000 2171.000000"
 preserveAspectRatio="xMidYMid meet">
<metadata>
Created by potrace 1.14, written by Peter Selinger 2001-2017
</metadata>
<g transform="translate(0.000000,2171.000000) scale(0.100000,-0.100000)"
fill="#000000" stroke="none">
<path d="M10088 21705 c-1 -1 -32 -5 -68 -9 -70 -6 -137 -14 -185 -22 -16 -2
-46 -7 -65 -9 -19 -3 -57 -10 -85 -15 -27 -5 -61 -12 -75 -14 -14 -3 -26 -5
-27 -7 -4 -2 -10 -4 -63 -14 -55 -11 -59 -12 -62 -15 -2 -1 -12 -4 -23 -6 -11
-2 -38 -8 -60 -14 -22 -6 -47 -13 -55 -15 -8 -2 -15 -4 -15 -5 0 -1 -7 -3 -16
-5 -27 -5 -322 -105 -359 -121 -51 -23 -70 -30 -122 -51 -27 -10 -48 -22 -48
-26 0 -5 -4 -6 -8 -3 -10 6 -274 -125 -292 -145 -3 -3 -23 -16 -45 -29 -39
-24 -64 -43 -90 -67 -8 -7 -16 -13 -19 -13 -3 0 -27 -21 -55 -47 -27 -27 -58
-55 -68 -64 -17 -16 -73 -79 -128 -144 -14 -16 -25 -34 -25 -39 0 -5 -7 -16
-15 -25 -58 -60 -177 -316 -202 -431 -3 -14 -6 -29 -7 -35 -1 -5 -5 -19 -9
-30 -3 -11 -8 -38 -12 -60 -3 -22 -8 -55 -11 -73 -4 -19 -7 -66 -8 -106 -1
-39 -5 -77 -10 -84 -4 -6 -4 -17 0 -24 4 -6 8 -44 9 -82 1 -39 6 -93 10 -121
4 -27 8 -61 10 -75 3 -31 25 -140 33 -160 3 -8 7 -24 9 -35 2 -11 9 -36 15
-55 7 -19 13 -37 13 -40 9 -36 19 -67 24 -75 3 -5 7 -19 8 -30 2 -10 7 -22 11
-25 4 -3 8 -12 10 -20 3 -14 74 -203 92 -245 5 -11 30 -69 56 -130 51 -121 64
-150 143 -327 16 -38 27 -68 24 -68 -3 0 1 -10 9 -22 16 -25 57 -136 64 -171
2 -12 6 -33 10 -47 10 -47 12 -162 2 -198 -13 -51 -31 -92 -40 -92 -5 0 -8 -5
-8 -12 0 -28 -151 -134 -203 -142 -7 -1 -18 -6 -26 -11 -8 -4 -63 -18 -121
-30 -106 -21 -117 -22 -1456 -23 -742 -1 -1383 -4 -1424 -6 -80 -6 -179 -15
-220 -21 -125 -20 -171 -28 -210 -36 -63 -15 -81 -18 -115 -24 -16 -3 -46 -11
-65 -17 -19 -6 -42 -12 -50 -13 -31 -3 -319 -105 -410 -145 -137 -60 -285
-135 -375 -192 -16 -10 -38 -21 -47 -24 -10 -4 -18 -10 -18 -15 0 -5 -5 -9
-11 -9 -11 0 -162 -103 -187 -127 -7 -7 -17 -13 -21 -13 -4 0 -16 -8 -27 -18
-10 -10 -53 -44 -93 -77 -110 -88 -221 -194 -334 -319 -40 -44 -82 -90 -93
-102 -12 -12 -32 -37 -45 -56 -13 -18 -26 -35 -29 -38 -27 -23 -189 -263 -231
-340 -13 -25 -27 -47 -31 -50 -8 -6 -178 -353 -182 -372 -2 -7 -9 -29 -17 -48
-7 -19 -12 -38 -11 -42 1 -5 -2 -8 -8 -8 -6 0 -9 -3 -8 -7 2 -8 -37 -133 -52
-168 -13 -29 -34 -108 -31 -119 1 -4 -4 -14 -10 -22 -6 -8 -9 -14 -6 -14 3 0
-3 -32 -14 -72 -10 -40 -16 -74 -14 -77 3 -2 0 -10 -6 -18 -6 -7 -9 -13 -6
-13 3 0 1 -18 -4 -40 -5 -23 -12 -60 -15 -83 -2 -23 -7 -53 -9 -67 -10 -63
-16 -134 -20 -219 -2 -51 -6 -95 -8 -97 -3 -3 -1 -20 3 -39 4 -19 5 -37 2 -40
-9 -9 -8 -215 1 -215 5 0 5 -6 0 -12 -11 -19 -10 -222 2 -230 7 -5 7 -11 0
-15 -12 -9 -14 -223 -2 -223 5 0 5 -6 0 -12 -11 -19 -10 -222 2 -230 7 -5 7
-11 0 -15 -13 -10 -14 -223 -1 -223 5 0 4 -6 -1 -12 -5 -7 -8 -47 -6 -88 1
-41 3 -79 3 -85 1 -5 -1 -27 -2 -47 -2 -21 1 -38 7 -38 7 0 7 -3 0 -8 -12 -9
-13 -162 -1 -162 5 0 4 -6 -1 -12 -5 -7 -7 -65 -6 -128 2 -63 3 -126 2 -140
-1 -14 -1 -86 0 -160 1 -74 1 -146 0 -160 -1 -20 -1 -138 1 -317 0 -7 -1 -25
-1 -40 -1 -16 0 -39 0 -53 1 -14 0 -53 -2 -87 -1 -35 1 -63 6 -63 4 0 5 -5 1
-12 -9 -15 -11 -196 -2 -210 3 -6 2 -22 -3 -35 -6 -15 -5 -23 2 -23 7 0 8 -5
2 -12 -10 -16 -10 -218 1 -236 4 -6 3 -12 -2 -12 -10 0 -9 -30 2 -48 4 -6 4
-12 -1 -12 -4 0 -8 -36 -8 -80 0 -44 4 -80 9 -80 5 0 4 -6 -1 -12 -5 -7 -7
-65 -6 -128 2 -63 3 -126 2 -140 -1 -14 -1 -86 0 -160 1 -74 1 -146 0 -160 -1
-20 -1 -138 1 -317 0 -7 -1 -25 -1 -40 -1 -16 0 -39 0 -53 1 -14 0 -53 -2 -87
-1 -35 2 -63 6 -63 6 0 6 -5 0 -12 -5 -8 -7 -160 -6 -348 1 -184 3 -343 3
-352 0 -10 -1 -30 -1 -45 -1 -16 0 -39 0 -53 1 -14 0 -53 -2 -88 -1 -34 1 -62
6 -62 4 0 5 -5 1 -12 -9 -15 -11 -196 -2 -210 3 -6 2 -22 -3 -35 -6 -15 -5
-23 2 -23 7 0 8 -5 2 -12 -10 -16 -10 -218 1 -236 4 -6 4 -12 -1 -12 -10 0
-10 -131 1 -148 4 -6 3 -12 -2 -12 -10 0 -9 -30 2 -48 4 -6 4 -12 -1 -12 -4 0
-8 -36 -8 -80 0 -44 4 -80 9 -80 5 0 4 -6 0 -12 -11 -15 -11 -59 0 -108 10
-47 47 -154 55 -160 4 -3 13 -20 20 -38 8 -17 17 -32 22 -32 5 0 9 -7 9 -15 0
-8 5 -15 10 -15 6 0 10 -6 10 -12 1 -13 62 -72 125 -121 37 -29 128 -72 175
-82 19 -5 40 -10 45 -11 49 -13 73 -15 165 -15 58 0 116 2 130 5 14 4 41 9 60
12 19 3 44 8 55 11 11 4 25 8 30 9 6 1 44 12 85 24 41 12 77 22 80 22 3 0 12
4 21 9 9 4 27 10 40 13 13 3 114 32 224 66 110 34 211 63 224 66 14 3 29 8 35
12 6 3 17 7 25 9 8 1 37 9 65 18 28 10 58 18 66 20 8 2 65 17 125 34 61 17
120 33 132 36 13 2 26 6 31 9 5 3 19 7 33 9 13 3 44 10 69 17 25 7 54 14 65
16 27 5 179 39 215 49 3 0 28 5 55 10 52 9 63 11 68 14 2 2 47 8 111 14 18 2
37 7 43 10 5 3 38 8 73 12 35 3 78 8 95 11 209 33 590 36 865 8 36 -4 80 -8
98 -8 17 -1 32 -3 32 -7 0 -3 19 -6 42 -8 23 -1 46 -4 50 -7 5 -3 24 -8 41
-11 18 -2 77 -16 132 -29 55 -14 106 -25 114 -26 7 -1 77 -23 155 -50 77 -27
146 -50 151 -51 6 -2 20 -8 32 -15 12 -7 29 -12 37 -12 9 0 16 -4 16 -10 0 -5
6 -10 14 -10 15 0 227 -98 236 -109 3 -3 35 -22 72 -41 38 -19 68 -38 68 -42
0 -5 5 -8 11 -8 6 0 30 -13 54 -30 24 -16 46 -30 49 -30 3 0 14 -6 23 -14 42
-34 114 -86 119 -86 3 0 11 -6 18 -12 26 -25 101 -87 109 -90 5 -2 37 -30 72
-63 34 -33 82 -79 106 -101 91 -86 241 -259 337 -389 24 -33 140 -215 152
-237 7 -16 17 -28 22 -28 4 0 8 -8 8 -18 0 -10 4 -22 9 -27 12 -14 81 -148
110 -215 13 -30 31 -71 39 -90 9 -19 17 -39 19 -45 1 -5 13 -39 26 -75 13 -36
27 -72 30 -80 24 -69 67 -230 60 -230 -3 0 0 -6 6 -13 6 -8 8 -17 4 -20 -3 -4
-1 -12 4 -19 6 -7 13 -36 17 -65 3 -28 8 -58 12 -66 3 -8 7 -30 9 -49 2 -18 4
-33 5 -33 1 0 7 -40 15 -110 22 -190 22 -586 1 -694 -4 -17 0 -24 14 -28 11
-3 20 -9 20 -14 0 -5 6 -9 13 -9 6 0 21 -8 32 -16 19 -14 16 -15 -34 -13 -41
2 -55 -1 -62 -14 -7 -12 -6 -17 2 -17 8 0 8 -4 1 -13 -6 -7 -13 -25 -16 -40
-3 -15 -8 -39 -11 -54 -4 -16 -16 -59 -27 -98 -12 -38 -22 -72 -23 -75 -5 -25
-49 -125 -95 -215 -84 -165 -163 -277 -277 -394 -29 -29 -53 -57 -53 -62 0 -5
-4 -9 -8 -9 -5 0 -18 -9 -31 -21 -53 -49 -141 -119 -151 -119 -5 0 -10 -3 -10
-7 0 -5 -28 -26 -63 -48 -34 -22 -64 -42 -67 -45 -3 -4 -20 -12 -37 -19 -18
-8 -33 -18 -33 -23 0 -5 -4 -7 -9 -3 -5 3 -12 1 -16 -4 -5 -9 -104 -58 -123
-61 -4 -1 -11 -5 -17 -10 -19 -16 -288 -116 -335 -125 -9 -2 -40 -10 -68 -19
-29 -8 -52 -12 -52 -9 0 3 -7 -1 -17 -8 -9 -8 -17 -13 -17 -11 -1 2 -12 1 -26
-1 -80 -16 -139 -27 -165 -31 -16 -2 -50 -8 -75 -12 -25 -4 -61 -8 -80 -10
-19 -1 -66 -6 -105 -10 -111 -12 -640 -6 -640 7 0 0 -16 2 -35 4 -19 2 -57 6
-85 10 -27 4 -66 9 -85 11 -19 3 -75 12 -125 21 -49 8 -101 16 -115 17 -14 1
-31 6 -38 10 -8 4 -16 6 -19 3 -3 -3 -15 -2 -27 3 -13 4 -38 11 -57 14 -33 5
-349 79 -419 98 -19 5 -42 10 -50 12 -9 1 -21 5 -28 10 -6 4 -12 5 -12 2 0 -3
-11 -1 -25 4 -14 5 -36 12 -48 14 -12 3 -47 12 -77 21 -30 9 -59 17 -65 19 -5
1 -30 8 -55 15 -25 7 -52 15 -60 16 -8 2 -76 22 -150 45 -136 41 -222 67 -250
74 -8 2 -27 9 -42 15 -16 6 -28 8 -28 5 0 -4 -7 -1 -15 6 -8 7 -15 9 -15 5 0
-4 -7 -1 -17 6 -9 8 -19 13 -22 12 -3 -1 -24 3 -46 9 -22 6 -42 12 -45 13 -3
1 -25 7 -50 15 -48 14 -59 17 -87 24 -10 3 -18 5 -18 6 0 1 -8 3 -17 6 -28 6
-40 10 -88 24 -85 25 -177 50 -210 55 -99 18 -134 21 -193 19 -140 -4 -260
-51 -346 -134 -54 -52 -120 -176 -137 -255 -2 -11 -7 -33 -10 -50 -12 -59 -11
-208 2 -278 22 -118 28 -144 38 -169 4 -9 8 -22 10 -30 1 -7 5 -19 9 -25 5 -7
6 -13 2 -13 -3 0 2 -17 11 -37 8 -21 17 -45 19 -53 2 -8 51 -157 110 -330 59
-173 109 -324 112 -335 3 -11 7 -27 11 -35 3 -8 6 -17 7 -20 0 -3 22 -68 48
-145 26 -77 47 -144 48 -150 0 -5 4 -14 8 -20 4 -5 13 -30 20 -55 7 -25 17
-54 22 -65 4 -11 15 -40 23 -65 41 -128 99 -252 174 -375 31 -49 58 -92 62
-95 3 -3 17 -21 30 -40 13 -19 32 -42 42 -51 10 -9 18 -20 18 -24 0 -9 189
-194 225 -220 16 -11 34 -25 40 -32 7 -6 48 -34 91 -62 43 -28 84 -54 89 -58
19 -15 180 -93 235 -114 114 -43 249 -83 257 -75 3 3 17 -1 32 -8 26 -12 74
-19 139 -20 17 -1 32 -4 32 -7 0 -9 12142 -9 12155 0 6 3 21 6 35 7 62 3 156
13 170 18 8 3 33 8 55 10 22 3 74 12 115 21 41 9 86 19 100 21 31 6 45 10 250
75 91 29 174 58 185 66 11 7 25 13 32 13 15 0 210 87 223 100 3 3 37 21 75 40
39 18 72 36 75 40 3 3 25 16 50 29 25 14 63 36 84 50 21 14 46 31 55 36 29 19
196 139 207 150 6 5 26 21 44 35 18 14 51 41 74 60 47 40 321 314 351 351 11
13 37 45 57 70 68 85 103 134 179 249 118 179 143 220 133 220 -3 0 2 7 10 16
9 8 16 22 16 30 0 8 3 14 8 14 4 0 14 15 21 33 8 17 34 73 57 122 79 170 183
464 200 570 1 6 3 13 4 18 4 12 6 21 15 62 12 51 10 43 19 95 14 75 15 84 21
110 8 36 19 139 30 285 9 110 9 5186 0 5270 -3 33 -7 84 -8 112 -1 29 -4 53
-7 53 -3 0 -6 19 -6 43 -2 50 -11 144 -17 172 -3 11 -8 40 -11 65 -6 47 -20
125 -30 173 -3 15 -8 37 -10 50 -28 147 -80 325 -146 502 -4 11 -8 22 -8 25
-1 20 -135 260 -180 325 -61 86 -230 260 -262 270 -11 4 -20 11 -20 16 0 6 -4
7 -10 4 -5 -3 -10 -3 -10 2 0 26 -285 151 -316 139 -8 -3 -16 -1 -19 3 -4 8
-50 17 -135 28 -58 7 -251 6 -310 -1 -100 -12 -148 -19 -210 -32 -19 -3 -44
-8 -55 -9 -11 -2 -20 -4 -20 -5 0 -1 -7 -3 -15 -5 -8 -2 -44 -11 -80 -20 -36
-8 -72 -17 -80 -19 -8 -2 -41 -11 -72 -19 -31 -8 -59 -12 -62 -9 -3 3 -6 1 -6
-4 0 -5 -8 -11 -17 -11 -19 -2 -111 -23 -206 -46 -68 -17 -66 -17 -69 -18 -2
-1 -16 -3 -33 -4 -16 -2 -30 -4 -30 -5 0 -1 -9 -4 -20 -6 -11 -2 -66 -12 -121
-23 -56 -10 -121 -22 -145 -25 -24 -3 -55 -8 -69 -10 -14 -3 -47 -7 -75 -10
-27 -3 -68 -8 -90 -11 -22 -3 -70 -7 -106 -9 -37 -2 -71 -5 -75 -8 -5 -2 -110
-4 -234 -3 -203 2 -296 7 -400 21 -19 2 -53 6 -75 9 -22 2 -49 6 -60 8 -11 3
-40 8 -65 12 -138 22 -438 104 -565 154 -122 49 -201 85 -315 144 -175 89
-192 99 -208 117 -12 13 -13 13 -6 0 6 -12 4 -12 -12 1 -37 31 -153 109 -163
109 -5 0 -11 4 -13 9 -2 6 -35 34 -74 63 -139 103 -341 293 -444 417 -25 29
-50 59 -55 65 -45 47 -235 317 -235 332 0 4 -6 15 -14 23 -44 52 -246 474
-246 515 0 7 -3 16 -7 20 -5 4 -8 11 -8 14 -1 4 -11 36 -22 72 -12 36 -27 85
-34 110 -7 25 -14 50 -15 55 -4 11 -21 84 -30 125 -2 14 -7 32 -9 40 -8 28
-18 85 -18 108 -1 12 -3 22 -7 22 -3 0 -5 12 -6 28 0 15 -4 50 -7 77 -11 84
-18 167 -20 235 -1 36 -6 70 -9 76 -4 6 -4 14 -1 18 4 4 8 68 10 144 2 137 6
201 16 257 3 17 9 53 13 80 10 61 11 68 14 78 1 4 3 10 4 15 2 8 19 84 21 92
6 31 64 189 86 238 16 35 29 66 29 69 0 26 211 342 242 364 4 3 19 20 33 39
14 19 25 31 25 27 0 -3 11 5 25 19 14 14 25 29 25 34 0 6 4 10 8 10 5 0 18 9
31 21 51 48 141 119 150 119 5 0 11 4 13 9 4 12 172 117 231 144 26 12 47 25
47 29 0 5 5 8 10 8 10 0 125 50 160 69 9 5 30 12 48 15 17 4 34 12 37 17 4 5
16 9 29 9 12 0 26 3 30 8 4 4 12 8 17 8 5 1 11 3 14 4 3 1 8 3 13 5 4 1 14 4
22 7 8 3 38 11 65 18 28 7 57 15 65 18 22 8 22 8 65 17 22 4 49 10 60 12 154
32 329 56 427 57 21 1 38 5 38 9 0 4 8 3 18 -2 10 -5 23 -7 29 -3 19 12 365 4
508 -12 62 -7 191 -19 213 -20 12 -1 22 -4 22 -7 0 -4 15 -7 33 -8 17 0 43 -3
57 -6 14 -4 36 -8 50 -9 14 -2 39 -6 55 -10 17 -3 41 -8 55 -11 14 -3 36 -7
50 -10 14 -2 39 -7 55 -10 17 -3 39 -7 50 -10 11 -2 61 -14 110 -25 50 -11
126 -29 170 -41 44 -11 96 -25 115 -30 19 -5 51 -12 70 -15 19 -3 42 -10 51
-15 9 -4 27 -10 40 -12 13 -3 50 -12 81 -22 32 -9 60 -16 63 -16 2 0 23 -6 45
-14 22 -8 42 -14 45 -15 3 0 6 0 8 -1 1 0 10 -2 19 -4 10 -2 46 -12 80 -23 35
-10 90 -27 123 -37 33 -9 95 -29 138 -42 43 -14 86 -26 95 -28 9 -2 17 -4 17
-5 0 -2 38 -11 53 -12 6 -1 12 -5 12 -10 0 -4 14 -8 30 -8 17 0 30 -4 30 -8 0
-4 11 -9 26 -10 14 -1 33 -6 43 -11 10 -6 29 -12 42 -15 13 -3 65 -17 114 -31
50 -14 97 -28 105 -30 8 -2 15 -4 15 -5 0 -1 9 -3 20 -5 11 -2 56 -13 100 -25
50 -13 115 -21 175 -22 98 -2 201 8 210 20 3 4 13 8 23 10 57 10 177 100 212
160 11 17 23 32 27 32 4 0 8 5 8 11 0 5 9 30 20 53 18 41 30 84 45 166 7 37 8
200 1 235 -8 42 -18 105 -17 107 1 2 -8 30 -19 63 -11 33 -20 61 -20 63 1 1
-11 40 -26 85 -16 45 -29 84 -29 87 -2 5 -3 10 -29 85 -10 28 -19 57 -21 66
-2 8 -10 32 -19 52 -8 20 -12 37 -9 37 3 0 1 6 -4 13 -6 6 -16 36 -24 65 -7
28 -16 52 -19 52 -4 0 -7 6 -7 13 0 6 -10 41 -23 77 -26 76 -24 69 -67 190
-18 52 -35 102 -37 110 -6 20 -37 110 -47 135 -11 26 -50 137 -53 150 -6 29
-30 91 -37 101 -5 6 -6 14 -2 17 3 4 1 13 -5 20 -7 7 -13 22 -15 33 -2 10 -9
29 -15 42 -7 12 -10 22 -7 22 3 0 -1 10 -10 23 -8 13 -12 27 -8 30 3 4 1 7 -5
7 -7 0 -11 3 -10 8 2 10 -45 106 -54 110 -5 2 -8 8 -8 13 0 12 -80 140 -96
154 -6 6 -24 28 -40 50 -79 108 -267 271 -399 347 -52 30 -213 108 -223 108
-5 0 -31 9 -58 19 -27 10 -67 23 -89 29 -22 6 -58 15 -80 21 -22 5 -65 13 -95
16 -30 3 -68 8 -85 10 -16 3 -1001 5 -2188 6 -1778 1 -2165 3 -2202 15 -25 7
-45 11 -45 9 0 -3 -39 10 -87 27 -218 78 -305 188 -297 373 2 44 7 87 11 95 3
8 8 24 10 34 10 51 75 223 111 291 9 17 15 30 13 30 -5 0 23 68 75 182 8 17
14 34 14 37 0 3 9 25 19 49 11 23 31 74 46 112 15 39 31 75 35 80 4 6 10 19
13 30 2 11 19 58 37 105 35 94 70 197 75 220 2 8 4 15 5 15 2 0 5 14 14 54 3
13 10 38 15 55 15 47 40 183 48 256 10 96 4 405 -7 405 -1 0 -3 11 -5 25 -1
14 -5 39 -9 55 -3 17 -8 44 -11 60 -17 88 -102 296 -166 405 -43 73 -178 242
-223 279 -10 9 -34 31 -53 48 -20 18 -49 43 -65 55 -17 13 -42 32 -56 44 -46
35 -140 94 -150 94 -6 0 -12 3 -14 8 -3 7 -137 75 -208 105 -19 8 -61 27 -93
41 -32 14 -59 26 -61 26 -2 0 -21 8 -42 17 -22 9 -41 17 -44 18 -6 0 -156 53
-180 63 -8 3 -19 6 -25 7 -5 0 -14 3 -20 6 -5 3 -48 16 -95 29 -47 12 -91 24
-98 26 -7 2 -14 4 -17 4 -3 1 -19 6 -37 11 -18 6 -46 13 -63 16 -45 8 -60 11
-60 13 0 3 -90 19 -140 26 -16 2 -41 7 -55 10 -14 4 -36 8 -50 9 -41 4 -123
15 -160 21 -37 6 -666 15 -672 9z"/>
</g>
</svg>
