<svg width="277" height="151" viewBox="0 0 277 151" fill="none" xmlns="http://www.w3.org/2000/svg">
<g clip-path="url(#clip0_606_910)" filter="url(#filter0_d_606_910)">
<path d="M259.227 29.4961C259.053 28.8793 258.544 28.6774 258.442 29.2047C258.225 30.5714 257.642 31.8849 256.731 33.0556C255.82 34.2263 254.603 35.2267 253.163 35.9886C248.237 38.1847 243.054 39.992 237.687 41.3848C233.958 42.2537 230.485 43.7107 227.476 45.6695C226.248 46.6185 225.302 47.7733 224.704 49.0502C224.107 50.327 223.873 51.6939 224.021 53.0516C224.059 53.4278 224.408 53.7115 224.924 53.2937C234.403 46.5899 248.537 45.557 257.312 37.9652C257.679 37.6475 257.944 37.7724 257.699 38.161C252.114 47.1296 239.85 51.4096 230.557 57.6153C224.518 61.5469 220.953 67.2685 223.092 73.7518C223.566 74.441 223.978 74.5612 224.408 74.165C224.729 73.7552 224.983 73.3142 225.164 72.8529C230.387 63.8149 241.914 57.6277 250.992 50.8962C254.541 48.1857 257.16 44.7962 258.6 41.0504C260.04 37.3046 260.252 33.3274 259.217 29.4976" fill="#B09D6D"/>
<path d="M249.18 26.7116L250.305 26.2814C248.267 32.0616 239.403 30.3718 234.621 33.4801C236.77 28.9302 243.986 28.3444 249.18 26.7116ZM239.467 36.0564C242.058 35.6925 244.612 35.1772 247.108 34.5146C250.863 32.8187 251.062 28.4785 252.029 25.3548C256.552 22.0754 255.915 16.7208 254.965 13.483C254.811 13.039 254.579 12.9279 254.397 12.9804C254.332 13.0042 254.277 13.0408 254.235 13.0867C254.193 13.1326 254.167 13.1862 254.159 13.2425C254.134 13.4913 254.17 13.7416 254.265 13.9795C254.589 15.4015 254.393 16.8677 253.703 18.204C253.012 19.5404 251.855 20.6908 250.369 21.5188C249.385 21.9604 248.325 22.2831 247.222 22.4763C243.362 23.1933 239.74 24.5636 236.602 26.4942C231.329 29.695 231.141 35.7558 231.269 40.5245C232.664 37.9035 235.979 36.7718 239.463 36.0533" fill="#B09D6D"/>
<path d="M234.608 105.813C235.999 96.5966 246.204 90.4217 251.7 82.6248C252.771 80.8164 253.178 78.8034 252.874 76.8183C252.571 74.8333 251.569 72.9572 249.984 71.4067C249.984 71.4067 249.845 71.2834 249.727 71.2757C249.609 71.268 249.516 71.379 249.549 71.5501C249.613 71.8908 249.646 72.0435 249.675 72.2825C250.714 80.2875 240.893 85.5851 235.468 91.5318C233.455 93.9635 232.104 96.7047 231.503 99.5784C231.406 100.016 230.969 99.8313 230.824 99.415C226.477 87.0806 235.631 77.0882 247.727 66.5747C253.917 61.2895 260.418 55.7606 264.103 49.319C268.067 40.5215 265.411 30.3287 260.74 22.5164C259.598 20.8821 258.118 17.5965 257.147 17.8216C256.987 17.9542 256.981 18.2101 257.085 18.5463C257.279 19.2031 260.277 23.6111 260.693 24.2725C265.411 31.7425 264.982 41.6716 259.569 47.8435C250.922 59.7353 232.488 67.5877 227.212 80.7407C223.106 90.4201 227.431 100.681 234.256 108.513C235.467 109.346 234.472 106.7 234.612 105.815" fill="#B09D6D"/>
<path d="M269.352 68.3C274.574 58.8627 274.3 45.6495 267.804 36.8119L267.315 36.7086C274.882 47.862 268.204 60.3844 261.618 70.6004C256.086 78.6851 251.259 87.0634 247.17 95.6761C244.243 101.879 242.294 108.348 241.367 114.933C240.569 123.527 242.068 132.159 245.765 140.257C246.978 142.949 248.406 143.982 247.754 141.874C245.128 133.652 244.482 125.107 245.85 116.692C249.934 99.341 261.444 84.5459 269.336 68.3016" fill="#B09D6D"/>
<path d="M252.054 5.11412C252.325 4.51128 252.283 3.88993 252.497 3.27784C253.757 0.75238 249.572 1.20413 248.265 0.00152588C247.504 1.24598 246.999 2.5796 246.768 3.95161L250.133 5.30376L248.952 8.71267C249.983 9.14746 251.182 9.45582 252.188 9.95999C252.437 10.0878 252.674 10.2317 252.894 10.3901C253.163 10.569 253.598 10.8758 254.306 11.4139C254.502 10.1085 254.794 8.81323 255.178 7.53474C255.354 6.09779 253.051 5.94515 252.054 5.11412Z" fill="#026BB7"/>
<path d="M235.167 116.779C236.275 117.815 237.152 118.995 237.759 120.268C237.227 121.836 235.157 122.34 233.824 123.351L231.406 120.436C230.501 119.551 232.385 119.284 232.927 118.772C237.463 117.23 231.948 115.38 231.582 113.578C232.91 112.882 234.102 112.036 235.122 111.065C236.148 111.994 237.056 113.002 237.83 114.074C238.024 115.507 235.803 115.736 235.169 116.771" fill="#026BB7"/>
<path d="M77.7335 97.7252V96.2389L69.725 96.3206C69.6051 96.538 57.5383 118.132 53.3445 123.754C50.0193 128.2 45.2529 133.313 37.8693 133.313C34.7541 133.211 31.7154 132.514 29.0097 131.279L28.2476 131.874L28.3694 131.97C31.0639 133.766 34.4941 134.708 38.0047 134.616H38.4032C44.7132 134.517 53.7991 131.729 61.2427 118.979C68.4618 106.606 73.7253 97.8023 73.6654 97.7267L77.7335 97.7252Z" fill="#B09D6D"/>
<path d="M48.7948 97.662C50.5358 97.662 51.1684 99.2469 51.1819 99.2778C51.1819 99.2778 54.6 105.425 57.9832 111.484L58.1225 111.746L59.7938 109.05C58.3759 106.416 57.9407 105.624 57.5403 104.878C56.9445 103.787 56.4086 102.813 52.7739 96.2435H45.959V97.6913H46.137C46.137 97.6913 47.2686 97.6681 48.7948 97.6681" fill="#B09D6D"/>
<path d="M86.6241 100.71C87.6088 102.489 89.3536 105.679 91.0945 108.818H82.1634C83.9044 105.679 85.6453 102.485 86.628 100.71M99.8864 115.921C98.7373 113.806 95.4914 107.768 92.8993 102.953L89.9474 97.4723L89.1737 96.2466H80.6275V97.6944H80.8035C80.8035 97.6944 81.9525 97.6712 83.4575 97.6712C83.8392 97.676 84.2142 97.7515 84.553 97.8917C84.8917 98.0319 85.1849 98.233 85.4093 98.4791C84.5795 100.035 77.2674 113.743 76.0023 115.935C74.3329 118.812 72.3927 119.99 69.2919 119.99H69.1274V121.407H82.0996V120.118H79.639C79.218 120.088 78.8095 119.988 78.4399 119.825C78.0704 119.661 77.7481 119.438 77.4938 119.168C77.2872 118.779 77.2028 118.355 77.248 117.933C77.2932 117.512 77.4665 117.106 77.753 116.749C78.459 115.542 79.9176 112.929 81.3297 110.172L91.7929 110.09L93.1063 112.437C94.149 114.304 95.0407 115.888 95.534 116.754C95.8191 117.112 95.9913 117.519 96.0357 117.941C96.0802 118.363 95.9957 118.787 95.7893 119.178C95.5387 119.446 95.2194 119.669 94.8526 119.832C94.4858 119.995 94.0799 120.094 93.6615 120.123H91.17V121.41H106.757V119.983H106.593C103.167 119.983 101.892 119.674 99.8961 115.928" fill="#B09D6D"/>
<path d="M118.101 96.2389H104.009V97.8593H106.137C106.257 97.8593 109.067 97.9641 109.067 102.347V121.395H113.431V97.9148H117.973C118.085 97.9148 129.084 98.0829 129.084 108.26C129.084 118.069 120.06 118.356 118.969 118.356H117.569V120.126H119.283C122.625 120.126 133.547 119.3 133.547 108.694C133.547 96.8402 120.679 96.2419 118.099 96.2419" fill="#B09D6D"/>
<path d="M148.01 100.73C148.995 102.509 150.742 105.699 152.483 108.828H143.561L148.01 100.73ZM194.61 97.6465H196.738V96.2389H187.287V108.826H174.415V96.2389H165.062V97.8593H167.19C167.295 97.8593 169.767 97.9456 170.078 101.544V116.628C170.078 119.545 168.304 119.932 166.983 119.969C164.194 119.873 163.035 119.306 161.222 115.929L151.299 97.4723L151.311 97.4554L150.537 96.2389H141.979V97.6866H142.157C142.157 97.6866 143.306 97.6635 144.817 97.6635C145.198 97.6698 145.572 97.7466 145.91 97.8879C146.248 98.0291 146.54 98.231 146.763 98.4776L146.409 99.1451C143.815 104.002 138.412 114.101 137.358 115.931C135.679 118.808 133.735 119.984 130.64 119.984H130.475V121.401H143.465V120.112H140.991C140.573 120.083 140.167 119.985 139.801 119.823C139.434 119.661 139.115 119.439 138.863 119.172C138.656 118.779 138.571 118.353 138.615 117.93C138.659 117.506 138.831 117.097 139.116 116.737C139.696 115.758 140.768 113.82 142.018 111.591L142.699 110.164L153.16 110.083L154.055 111.694C155.272 113.877 156.325 115.769 156.889 116.74C157.176 117.097 157.35 117.504 157.396 117.926C157.442 118.348 157.359 118.773 157.154 119.164C156.904 119.432 156.585 119.655 156.218 119.818C155.851 119.981 155.445 120.079 155.027 120.107H152.58V121.395H177.994V120.41H177.82C177.329 120.454 176.833 120.402 176.374 120.258C175.915 120.114 175.507 119.883 175.185 119.585C174.557 118.673 174.287 117.632 174.411 116.597L174.429 110.16H187.3L187.316 116.624C187.436 117.661 187.171 118.702 186.555 119.62C186.235 119.917 185.828 120.146 185.37 120.288C184.913 120.43 184.418 120.479 183.93 120.433H183.766V121.395H196.755V120.075H194.63C194.51 120.075 191.695 119.962 191.695 115.576L191.709 102.155C191.709 97.7745 194.523 97.6527 194.637 97.6481" fill="#B09D6D"/>
<path d="M13.4437 97.4754H16.5387C18.5851 97.3974 20.5917 97.945 22.1485 99.0064C22.8419 99.505 23.3899 100.118 23.7541 100.804C24.1184 101.489 24.29 102.23 24.257 102.973C24.3057 103.718 24.1625 104.463 23.8361 105.161C23.5097 105.86 23.0071 106.498 22.3594 107.036C21.6563 107.56 20.8276 107.965 19.9231 108.227C19.0185 108.489 18.0569 108.603 17.0959 108.561L13.436 108.553L13.4437 97.4754ZM46.669 121.401V120.371H46.5046C46.0165 120.417 45.5218 120.366 45.064 120.224C44.6063 120.081 44.1995 119.851 43.8796 119.554C43.2618 118.635 42.9968 117.592 43.1175 116.554L43.1291 96.2466H33.6814V97.5864H35.8093C35.8364 97.5864 38.7457 97.7005 38.7457 102.085L38.7554 115.507C38.7554 119.896 35.9389 120.009 35.819 120.009H35.4901V119.986H35.3121C35.0723 119.999 34.875 119.999 34.6893 119.999V120.131L34.4378 119.999C34.1116 120.002 33.7887 119.948 33.4911 119.842C33.1935 119.735 32.9285 119.579 32.7142 119.383C31.1951 118.074 29.8793 116.625 28.7951 115.066C27.7482 113.597 26.5616 112.194 25.2455 110.869C24.5201 110.167 23.6817 109.545 22.7521 109.019C26.8665 107.956 28.9537 105.892 28.9537 102.872C28.9686 101.954 28.7158 101.045 28.2153 100.218C27.7148 99.3913 26.9803 98.6682 26.0696 98.106C23.8634 96.7843 21.1466 96.1194 18.39 96.2265H3.99414V97.5694H6.15488C6.27094 97.5694 9.07968 97.6866 9.07968 102.062V115.485C9.07968 119.875 6.27482 119.984 6.16069 119.984H4.00577V121.382H17.0049V120.353H16.8405C16.3494 120.398 15.8519 120.345 15.3921 120.201C14.9322 120.056 14.5241 119.823 14.2039 119.523C13.5899 118.608 13.3275 117.57 13.4495 116.537V109.847H15.8095C17.1355 109.849 18.4191 110.219 19.4403 110.894C21.2719 112.325 22.8296 113.964 24.0636 115.756C25.503 117.735 27.1363 119.62 28.948 121.393L46.669 121.401Z" fill="#B09D6D"/>
<path d="M188.439 55.4599L188.348 55.6141C188.225 55.8315 176.291 77.2979 172.084 82.9116C168.78 87.3196 164.066 92.3844 156.785 92.3844C153.767 92.3017 150.828 91.5979 148.252 90.3415L148.024 90.2428L146.958 91.097L147.198 91.2882C149.905 93.1191 153.377 94.0703 156.924 93.9524H157.311C163.673 93.8383 172.807 91.023 180.259 78.2785C186.977 66.7705 191.792 58.6823 192.507 57.4843L196.75 57.4612V55.4568L188.439 55.4599Z" fill="#026BB7"/>
<path d="M151.833 84.5598L148.212 81.6689L145.068 84.1743L141.929 81.6689L138.308 84.5598L141.929 87.4506L145.068 84.9545L148.212 87.4506L151.833 84.5598Z" fill="#026BB7"/>
<path d="M18.3979 51.2801L21.5684 53.8086L25.2244 50.8947L21.5664 47.9945L18.3979 50.5031L15.2158 47.9838L11.5771 50.8839L15.2158 53.8025L18.3979 51.2801Z" fill="#026BB7"/>
<path d="M72.2749 74.0632L72.2536 65.3537C72.1328 62.929 70.8824 60.6273 68.7466 58.8981C65.934 56.6379 61.7189 55.4969 56.2136 55.4969L43.9649 55.4846V61.4436H45.6227V58.8935C45.622 58.5667 45.7737 58.2513 46.0483 58.0085C46.2821 57.8376 46.5569 57.7062 46.8561 57.6222C47.1553 57.5382 47.4727 57.5034 47.7893 57.5198H56.6488C57.0686 57.5198 66.9553 57.6061 66.9553 65.3552L66.9747 73.9892C66.9747 74.9451 66.7812 78.0442 64.2394 78.0442H45.4505C44.6424 78.0292 43.8548 77.8378 43.1738 77.4906C42.4793 77.0805 41.9309 76.5332 41.5825 75.9028C41.2342 75.2723 41.0979 74.5804 41.1871 73.8952V73.6254H38.7266V79.8666H77.2212V78.0735H74.1261C74.1087 78.0735 72.3755 77.8915 72.271 74.0555" fill="#026BB7"/>
<path d="M18.7906 77.8391C16.9206 77.7999 15.1018 77.3438 13.5406 76.5224C10.4339 74.8712 8.86319 71.9448 8.86319 67.8159C8.86319 57.7156 19.4076 57.5336 19.8564 57.5306H30.3331L30.3525 77.8345L18.7906 77.8391ZM25.8085 52.3995V53.7347H28.745C29.1164 53.7347 30.3177 53.8657 30.3177 55.5447L19.7171 55.6234C17.0921 55.6234 4.01172 56.2401 4.01172 68.2461C4.01172 79.0587 15.1306 79.8974 18.5371 79.8974H35.0976V52.3918L25.8085 52.3995Z" fill="#026BB7"/>
<path d="M168.018 78.0411H167.678C167.006 78.0893 166.328 78.0304 165.685 77.8679C165.042 77.7054 164.445 77.4424 163.931 77.0944C163.457 76.7236 163.18 76.2219 163.157 75.6929V60.5679H153.313V61.8939H156.551C156.919 61.8939 158.131 62.0249 158.131 63.7255L158.18 78.0287H94.9713C93.5167 78.1029 92.0586 77.9381 90.6873 77.5445C89.316 77.1509 88.0608 76.5369 86.9996 75.7407C83.7111 73.0456 83.86 68.7502 83.9181 67.139C83.9181 66.9293 83.9336 66.7675 83.9278 66.6626L83.8852 55.5139C83.8852 53.8349 85.1232 53.6483 85.6455 53.7115H88.8237V52.3825H78.9796V66.6626C78.7687 71.5008 79.9467 74.9019 82.5659 77.0666C85.984 79.8804 91.1934 79.8804 94.9983 79.8804H168.026L168.018 78.0411Z" fill="#026BB7"/>
</g>
<defs>
<filter id="filter0_d_606_910" x="0" y="0" width="277" height="151" filterUnits="userSpaceOnUse" color-interpolation-filters="sRGB">
<feFlood flood-opacity="0" result="BackgroundImageFix"/>
<feColorMatrix in="SourceAlpha" type="matrix" values="0 0 0 0 0 0 0 0 0 0 0 0 0 0 0 0 0 0 127 0" result="hardAlpha"/>
<feOffset dy="4"/>
<feGaussianBlur stdDeviation="2"/>
<feComposite in2="hardAlpha" operator="out"/>
<feColorMatrix type="matrix" values="0 0 0 0 0 0 0 0 0 0 0 0 0 0 0 0 0 0 0.25 0"/>
<feBlend mode="normal" in2="BackgroundImageFix" result="effect1_dropShadow_606_910"/>
<feBlend mode="normal" in="SourceGraphic" in2="effect1_dropShadow_606_910" result="shape"/>
</filter>
<clipPath id="clip0_606_910">
<rect width="269" height="143" fill="white" transform="translate(4)"/>
</clipPath>
</defs>
</svg>
