<svg width="109" height="107" xmlns="http://www.w3.org/2000/svg" xmlns:xlink="http://www.w3.org/1999/xlink" xml:space="preserve" overflow="hidden"><defs><clipPath id="clip0"><rect x="430" y="138" width="108" height="105"/></clipPath><clipPath id="clip1"><rect x="430" y="138" width="108" height="105"/></clipPath><clipPath id="clip2"><rect x="430" y="138" width="108" height="105"/></clipPath></defs><g transform="translate(-429 -137)"><g><g clip-path="url(#clip0)"><g clip-path="url(#clip1)"><g clip-path="url(#clip2)"><path d="M439.012 199.014 439.012 146.762 491.953 146.762 491.953 160.783 500.722 160.783 500.722 137.995 430.243 137.995 430.243 207.773 455.035 207.773 455.035 199.01Z" fill="#005E6F" fill-rule="nonzero" fill-opacity="1"/><path d="M486.784 180.209 490.348 180.209 490.348 196.547 486.784 196.547Z" fill="#005E6F" fill-rule="nonzero" fill-opacity="1"/><path d="M496.158 191.449C496.153 191.77 496.217 192.089 496.346 192.384 496.464 192.658 496.631 192.908 496.838 193.123 497.045 193.335 497.294 193.502 497.568 193.615 498.141 193.85 498.785 193.85 499.359 193.615 499.632 193.502 499.881 193.335 500.088 193.123 500.295 192.908 500.463 192.658 500.582 192.384 500.708 192.095 500.771 191.783 500.768 191.469 500.77 191.159 500.706 190.853 500.582 190.569 500.463 190.296 500.295 190.046 500.088 189.832 499.881 189.619 499.633 189.452 499.359 189.339 498.785 189.103 498.141 189.103 497.568 189.339 497.293 189.452 497.045 189.619 496.838 189.832 496.633 190.044 496.466 190.291 496.346 190.56 496.22 190.838 496.155 191.141 496.158 191.446M492.397 191.408C492.391 190.683 492.546 189.966 492.85 189.309 493.149 188.664 493.578 188.087 494.109 187.616 494.674 187.123 495.326 186.739 496.03 186.485 496.81 186.202 497.634 186.062 498.464 186.071 499.285 186.063 500.1 186.198 500.875 186.471 501.583 186.721 502.238 187.102 502.806 187.594 503.347 188.067 503.78 188.651 504.075 189.307 504.384 189.998 504.539 190.748 504.53 191.505 504.539 192.264 504.381 193.015 504.066 193.704 503.764 194.356 503.332 194.939 502.795 195.416 502.229 195.912 501.569 196.29 500.856 196.529 500.066 196.797 499.238 196.93 498.404 196.923 497.588 196.931 496.776 196.797 496.005 196.529 495.304 196.286 494.658 195.904 494.106 195.407 493.574 194.92 493.149 194.327 492.857 193.666 492.548 192.956 492.394 192.187 492.404 191.413" fill="#005E6F" fill-rule="nonzero" fill-opacity="1"/><path d="M514.632 191.526C514.636 190.915 514.395 190.326 513.963 189.892 513.752 189.683 513.505 189.514 513.233 189.393 512.949 189.266 512.641 189.202 512.329 189.205 511.724 189.201 511.145 189.443 510.723 189.875 510.516 190.09 510.349 190.34 510.23 190.614 510.104 190.897 510.041 191.204 510.043 191.513 510.041 191.818 510.101 192.12 510.221 192.4 510.336 192.67 510.503 192.913 510.714 193.117 510.928 193.325 511.179 193.492 511.452 193.61 511.735 193.735 512.042 193.799 512.352 193.796 512.956 193.802 513.535 193.56 513.956 193.128 514.162 192.916 514.329 192.669 514.45 192.399 514.573 192.127 514.637 191.831 514.636 191.532M510.141 180.209 510.141 187.453C510.956 186.583 512.102 186.103 513.292 186.132 514.001 186.124 514.704 186.269 515.351 186.556 515.957 186.824 516.501 187.212 516.951 187.697 517.4 188.191 517.751 188.766 517.984 189.391 518.488 190.74 518.485 192.225 517.975 193.572 517.732 194.207 517.368 194.789 516.903 195.285 516.442 195.771 515.889 196.163 515.277 196.437 514.643 196.721 513.954 196.865 513.258 196.86 512.049 196.911 510.889 196.377 510.141 195.424L510.141 196.548 506.577 196.548 506.577 180.209Z" fill="#005E6F" fill-rule="nonzero" fill-opacity="1"/><path d="M523.694 191.467C523.69 192.084 523.927 192.678 524.355 193.122 524.562 193.335 524.81 193.502 525.084 193.614 525.374 193.733 525.685 193.793 525.999 193.79 526.308 193.792 526.614 193.732 526.898 193.614 527.172 193.501 527.421 193.334 527.628 193.122 527.833 192.909 527.999 192.663 528.12 192.393 528.246 192.114 528.31 191.812 528.308 191.506 528.31 191.197 528.246 190.89 528.12 190.607 528.001 190.334 527.834 190.083 527.628 189.868 527.421 189.656 527.172 189.489 526.898 189.376 526.614 189.257 526.308 189.197 525.999 189.199 525.685 189.196 525.374 189.256 525.084 189.376 524.81 189.488 524.562 189.655 524.355 189.868 524.152 190.077 523.989 190.32 523.872 190.587 523.752 190.863 523.692 191.162 523.694 191.462M528.186 186.453 531.77 186.453 531.77 196.548 528.186 196.548 528.186 195.425C527.446 196.374 526.296 196.909 525.093 196.863 524.397 196.872 523.706 196.736 523.064 196.463 522.455 196.2 521.904 195.814 521.448 195.332 520.982 194.836 520.619 194.255 520.377 193.619 520.115 192.934 519.984 192.206 519.992 191.473 519.989 190.769 520.116 190.071 520.367 189.415 520.604 188.787 520.958 188.211 521.41 187.715 522.346 186.696 523.67 186.124 525.053 186.141 526.238 186.107 527.379 186.585 528.186 187.453Z" fill="#005E6F" fill-rule="nonzero" fill-opacity="1"/><path d="M534.192 180.209 537.756 180.209 537.756 196.547 534.192 196.547Z" fill="#005E6F" fill-rule="nonzero" fill-opacity="1"/><path d="M476.68 213.046 476.68 220.172 473.115 220.172 473.115 213.046 471.932 213.046 471.932 210.075 473.115 210.075 473.115 207.044 476.68 207.044 476.68 210.075 478.707 210.075 478.707 213.046Z" fill="#005E6F" fill-rule="nonzero" fill-opacity="1"/><path d="M497.144 220.168 493.58 220.168 493.58 210.073 497.144 210.073ZM493.346 206.193C493.345 205.925 493.398 205.66 493.503 205.414 493.607 205.175 493.754 204.959 493.937 204.775 494.12 204.59 494.338 204.443 494.577 204.342 495.075 204.131 495.637 204.131 496.134 204.342 496.373 204.444 496.59 204.591 496.774 204.775 496.958 204.959 497.105 205.175 497.209 205.414 497.419 205.912 497.419 206.473 497.209 206.971 497.106 207.21 496.958 207.427 496.774 207.612 496.589 207.795 496.372 207.941 496.134 208.045 495.637 208.253 495.075 208.253 494.577 208.045 494.094 207.838 493.711 207.454 493.504 206.972 493.399 206.727 493.345 206.462 493.347 206.195" fill="#005E6F" fill-rule="nonzero" fill-opacity="1"/><path d="M499.585 210.072 503.151 210.072 503.151 211.35C503.538 210.838 504.046 210.429 504.629 210.16 505.188 209.945 505.782 209.841 506.38 209.854 507.006 209.838 507.626 209.956 508.203 210.199 508.701 210.424 509.142 210.758 509.493 211.174 509.776 211.504 509.979 211.895 510.085 212.316 510.195 212.787 510.248 213.269 510.242 213.753L510.242 220.171 506.677 220.171 506.677 215.073C506.685 214.667 506.649 214.261 506.568 213.862 506.512 213.585 506.378 213.329 506.184 213.124 506.035 212.972 505.853 212.858 505.652 212.79 505.449 212.723 505.237 212.689 505.023 212.69 504.502 212.657 503.993 212.854 503.632 213.231 503.286 213.668 503.114 214.219 503.151 214.775L503.151 220.173 499.585 220.173Z" fill="#005E6F" fill-rule="nonzero" fill-opacity="1"/><path d="M516.228 204.262 516.228 213.711 519.971 210.07 524.857 210.07 519.795 214.736 525.151 220.168 520.148 220.168 516.228 216.051 516.228 220.165 512.664 220.165 512.664 204.262Z" fill="#005E6F" fill-rule="nonzero" fill-opacity="1"/><path d="M476.011 232.823C476.006 233.439 476.242 234.033 476.67 234.476 476.877 234.689 477.125 234.857 477.399 234.97 477.69 235.089 478.002 235.149 478.315 235.147 478.624 235.148 478.93 235.088 479.215 234.97 479.489 234.857 479.737 234.689 479.943 234.476 480.15 234.262 480.317 234.013 480.437 233.74 480.561 233.456 480.624 233.15 480.622 232.84 480.625 232.528 480.562 232.22 480.437 231.935 480.316 231.664 480.146 231.417 479.938 231.207 479.509 230.779 478.929 230.538 478.323 230.536 478.018 230.534 477.716 230.598 477.437 230.722 477.167 230.843 476.92 231.01 476.708 231.216 476.497 231.421 476.327 231.665 476.209 231.934 476.084 232.212 476.02 232.514 476.022 232.819M484.017 227.822 484.017 237.231C484.022 237.738 483.988 238.244 483.918 238.746 483.863 239.148 483.771 239.543 483.642 239.928 483.477 240.375 483.227 240.786 482.905 241.138 482.554 241.524 482.145 241.853 481.693 242.112 481.189 242.4 480.649 242.619 480.087 242.763 479.454 242.924 478.801 243.003 478.148 242.998 477.415 243.004 476.684 242.903 475.981 242.698 475.366 242.521 474.784 242.245 474.257 241.882 473.783 241.552 473.373 241.138 473.047 240.661 472.734 240.201 472.519 239.682 472.416 239.135L476.434 239.135C476.705 239.818 477.405 240.229 478.133 240.134 478.771 240.176 479.397 239.948 479.857 239.505 480.279 239.022 480.494 238.393 480.456 237.753L480.456 236.788C480.22 237.015 479.968 237.222 479.698 237.408 479.466 237.566 479.218 237.7 478.959 237.808 478.706 237.915 478.44 237.991 478.169 238.036 477.87 238.084 477.567 238.106 477.264 238.105 476.582 238.113 475.907 237.985 475.275 237.729 474.078 237.25 473.137 236.288 472.684 235.081 472.434 234.418 472.31 233.714 472.32 233.005 472.313 232.268 472.447 231.537 472.714 230.85 472.962 230.211 473.325 229.623 473.787 229.116 474.242 228.623 474.791 228.229 475.403 227.955 476.045 227.67 476.74 227.526 477.442 227.533 478.594 227.515 479.697 228.004 480.455 228.871L480.455 227.808Z" fill="#005E6F" fill-rule="nonzero" fill-opacity="1"/><path d="M486.784 227.824 490.348 227.824 490.348 229.477C490.695 228.907 491.175 228.431 491.747 228.09 492.335 227.759 493.002 227.592 493.676 227.608L493.981 227.608C494.11 227.609 494.239 227.622 494.366 227.646L494.366 231.051C493.888 230.814 493.363 230.693 492.83 230.697 492.129 230.646 491.443 230.918 490.968 231.436 490.513 232.059 490.293 232.822 490.347 233.591L490.347 237.922 486.784 237.922Z" fill="#005E6F" fill-rule="nonzero" fill-opacity="1"/><path d="M499.41 232.826C499.406 233.148 499.47 233.467 499.596 233.763 499.714 234.037 499.881 234.286 500.089 234.5 500.295 234.712 500.543 234.88 500.816 234.993 501.391 235.228 502.035 235.228 502.61 234.993 502.884 234.88 503.132 234.712 503.338 234.5 503.545 234.285 503.712 234.037 503.832 233.763 503.957 233.473 504.02 233.161 504.017 232.846 504.019 232.536 503.956 232.231 503.832 231.947 503.712 231.674 503.544 231.424 503.338 231.21 503.132 230.997 502.884 230.829 502.61 230.716 502.035 230.48 501.391 230.48 500.816 230.716 500.542 230.829 500.295 230.997 500.089 231.21 499.883 231.422 499.716 231.668 499.596 231.938 499.471 232.216 499.408 232.518 499.41 232.823M495.647 232.785C495.641 232.061 495.796 231.344 496.099 230.686 496.398 230.041 496.828 229.465 497.361 228.993 497.924 228.499 498.576 228.116 499.282 227.863 500.061 227.58 500.885 227.44 501.714 227.449 502.536 227.441 503.353 227.576 504.127 227.849 504.835 228.099 505.489 228.479 506.056 228.971 506.597 229.445 507.031 230.03 507.327 230.684 507.635 231.376 507.789 232.127 507.779 232.883 507.789 233.642 507.631 234.392 507.315 235.082 507.016 235.735 506.583 236.318 506.046 236.795 505.48 237.291 504.821 237.669 504.106 237.907 503.317 238.174 502.487 238.307 501.653 238.3 500.837 238.308 500.025 238.175 499.255 237.907 498.553 237.664 497.907 237.283 497.356 236.785 496.823 236.297 496.396 235.705 496.104 235.044 495.796 234.333 495.642 233.565 495.652 232.79" fill="#005E6F" fill-rule="nonzero" fill-opacity="1"/><path d="M513.392 227.824 513.392 233.512C513.351 234.512 514.13 235.357 515.13 235.397 516.131 235.438 516.974 234.66 517.016 233.66 517.018 233.61 517.018 233.561 517.016 233.512L517.016 227.824 520.582 227.824 520.582 234.202C520.663 235.385 520.158 236.532 519.231 237.273 516.72 238.637 513.688 238.637 511.177 237.273 510.249 236.533 509.744 235.385 509.826 234.202L509.826 227.824Z" fill="#005E6F" fill-rule="nonzero" fill-opacity="1"/><path d="M531.061 232.901C531.063 232.593 531.006 232.288 530.892 232.002 530.784 231.725 530.621 231.473 530.411 231.263 530.197 231.052 529.947 230.882 529.671 230.763 529.097 230.517 528.449 230.514 527.872 230.754 527.601 230.868 527.357 231.035 527.152 231.246 526.945 231.461 526.779 231.711 526.66 231.985 526.535 232.268 526.472 232.574 526.474 232.884 526.471 233.188 526.532 233.49 526.651 233.77 526.764 234.04 526.932 234.283 527.143 234.487 527.358 234.695 527.608 234.862 527.882 234.981 528.166 235.106 528.472 235.169 528.781 235.167 529.086 235.17 529.388 235.109 529.668 234.99 529.939 234.876 530.184 234.709 530.388 234.498 530.594 234.285 530.759 234.039 530.879 233.769 531.004 233.497 531.068 233.201 531.067 232.902M526.576 242.961 523.011 242.961 523.011 227.824 526.576 227.824 526.576 228.945C527.322 227.995 528.48 227.46 529.687 227.508 530.383 227.503 531.071 227.648 531.706 227.933 532.318 228.206 532.87 228.596 533.331 229.082 533.796 229.579 534.16 230.161 534.404 230.795 534.662 231.467 534.793 232.182 534.788 232.901 534.795 233.616 534.664 234.324 534.404 234.989 534.159 235.616 533.798 236.19 533.34 236.682 532.408 237.685 531.095 238.249 529.726 238.236 528.54 238.267 527.394 237.796 526.575 236.937Z" fill="#005E6F" fill-rule="nonzero" fill-opacity="1"/><path d="M476.011 191.453C476.006 192.068 476.242 192.662 476.67 193.106 476.877 193.319 477.125 193.486 477.399 193.599 477.69 193.718 478.002 193.778 478.315 193.776 478.624 193.777 478.93 193.717 479.215 193.599 479.489 193.486 479.737 193.319 479.943 193.106 480.15 192.892 480.317 192.642 480.437 192.369 480.561 192.085 480.624 191.779 480.622 191.47 480.625 191.158 480.562 190.849 480.437 190.564 480.316 190.293 480.146 190.046 479.938 189.836 479.509 189.409 478.929 189.168 478.323 189.166 478.018 189.164 477.716 189.228 477.437 189.352 477.167 189.473 476.921 189.639 476.708 189.845 476.497 190.05 476.327 190.294 476.209 190.563 476.084 190.841 476.02 191.144 476.022 191.449M484.017 186.451 484.017 195.86C484.022 196.367 483.988 196.874 483.918 197.375 483.863 197.777 483.771 198.172 483.642 198.557 483.477 199.005 483.227 199.415 482.905 199.767 482.554 200.153 482.145 200.482 481.693 200.742 481.189 201.03 480.649 201.248 480.087 201.392 479.454 201.553 478.801 201.632 478.148 201.627 477.415 201.635 476.684 201.536 475.981 201.332 475.366 201.156 474.784 200.88 474.257 200.516 473.783 200.186 473.373 199.772 473.047 199.295 472.734 198.836 472.519 198.316 472.416 197.769L476.434 197.769C476.705 198.452 477.405 198.864 478.133 198.769 478.771 198.811 479.397 198.582 479.857 198.139 480.279 197.656 480.494 197.028 480.456 196.387L480.456 195.423C480.22 195.65 479.968 195.857 479.698 196.043 479.466 196.201 479.218 196.335 478.959 196.443 478.706 196.55 478.44 196.626 478.169 196.671 477.87 196.719 477.567 196.742 477.264 196.74 476.582 196.747 475.907 196.62 475.275 196.364 474.078 195.884 473.137 194.924 472.684 193.716 472.434 193.054 472.31 192.349 472.32 191.64 472.313 190.904 472.447 190.172 472.714 189.486 472.962 188.846 473.325 188.258 473.787 187.751 474.242 187.259 474.791 186.864 475.403 186.59 476.045 186.305 476.74 186.161 477.442 186.168 478.594 186.15 479.697 186.639 480.455 187.507L480.455 186.443Z" fill="#005E6F" fill-rule="nonzero" fill-opacity="1"/><path d="M490.181 210.907C489.415 210.16 488.365 209.776 487.297 209.853 486.698 209.84 486.102 209.944 485.544 210.159 484.961 210.429 484.454 210.838 484.067 211.349L484.067 204.139C483.912 204.492 483.702 204.819 483.446 205.108 483.096 205.494 482.687 205.824 482.234 206.083 481.731 206.371 481.19 206.59 480.628 206.734 480.588 206.744 480.543 206.747 480.502 206.758L480.502 220.168 484.067 220.168 484.067 214.77C484.03 214.214 484.202 213.664 484.549 213.227 484.909 212.85 485.418 212.652 485.937 212.686 486.357 212.676 486.765 212.824 487.081 213.099 487.28 213.299 487.417 213.552 487.475 213.828 487.563 214.236 487.602 214.652 487.592 215.068L487.592 220.166 491.157 220.166 491.157 213.748C491.213 212.71 490.863 211.69 490.182 210.904" fill="#005E6F" fill-rule="nonzero" fill-opacity="1"/><path d="M439.012 199.014 439.012 146.762 491.953 146.762 491.953 160.783 500.722 160.783 500.722 137.995 430.243 137.995 430.243 207.773 455.035 207.773 455.035 199.01Z" fill="#005E6F" fill-rule="nonzero" fill-opacity="1"/><path d="M439.012 199.014 439.012 146.762 491.953 146.762 491.953 160.783 500.722 160.783 500.722 137.995 430.243 137.995 430.243 207.773 455.035 207.773 455.035 199.01Z" fill="#005E6F" fill-rule="nonzero" fill-opacity="1"/></g></g></g></g></g></svg>