<svg width="82" height="41" viewBox="0 0 82 41" fill="none" xmlns="http://www.w3.org/2000/svg">
<path d="M34.7743 36.0698H35.6835V40.589H34.7743V38.6083H32.9656V40.589H32.0539V36.0698H32.9631V37.8957H34.7718L34.7743 36.0698ZM39.3746 38.4314C39.3992 38.5543 39.4164 38.6771 39.4287 38.8049C39.441 38.9327 39.4435 39.0507 39.4435 39.1662V39.1932H37.1408C37.1476 39.316 37.1785 39.4362 37.2317 39.5471C37.2806 39.6487 37.3501 39.739 37.4357 39.8125C37.5219 39.8853 37.6212 39.9412 37.7282 39.9771C37.8455 40.0155 37.9684 40.0346 38.0919 40.0336C38.2875 40.0338 38.4818 40.0014 38.6669 39.9378C38.8513 39.8731 39.0291 39.7908 39.1977 39.6921V40.3998C39.0265 40.5002 38.8396 40.5708 38.6448 40.6087C38.4496 40.6459 38.2512 40.6648 38.0525 40.6652C37.8024 40.6686 37.5534 40.6312 37.3153 40.5546C37.1112 40.4859 36.9255 40.3716 36.7722 40.2204C36.6203 40.0682 36.5051 39.8833 36.4355 39.6798C36.3545 39.4426 36.3154 39.1931 36.32 38.9425C36.3176 38.7107 36.3491 38.4797 36.4134 38.2569C36.4715 38.0538 36.5692 37.8642 36.7009 37.6991C36.8329 37.5362 37.0012 37.4066 37.1924 37.3206C37.4066 37.2228 37.6402 37.1749 37.8756 37.1805C37.9965 37.1812 38.1172 37.1902 38.2368 37.2076C38.3561 37.2262 38.4731 37.2575 38.5858 37.301C38.6965 37.3436 38.8007 37.4015 38.8954 37.473C38.9916 37.549 39.0746 37.6404 39.1412 37.7433C39.2053 37.8462 39.258 37.9558 39.2984 38.0701C39.3393 38.1888 39.3714 38.3104 39.3943 38.4338L39.3746 38.4314ZM38.6349 38.5985C38.6318 38.4936 38.6153 38.3895 38.5858 38.2888C38.5584 38.1994 38.5142 38.116 38.4555 38.0431C38.3983 37.9705 38.324 37.9131 38.2393 37.876C38.1415 37.8342 38.0359 37.8141 37.9296 37.817C37.8219 37.8153 37.7149 37.8353 37.6151 37.876C37.5222 37.9126 37.4385 37.9687 37.3693 38.0406C37.302 38.1115 37.2493 38.195 37.2145 38.2864C37.1767 38.3864 37.1543 38.4917 37.1482 38.5985H38.6349ZM42.8888 38.5493C42.8888 38.8934 42.8888 39.2325 42.8888 39.5716C42.8888 39.9108 42.9085 40.2474 42.933 40.5915H42.1663C42.1663 40.5104 42.1491 40.4268 42.1417 40.3457C42.1344 40.2646 42.1294 40.1786 42.1294 40.1C42.0777 40.1907 42.0131 40.2734 41.9377 40.3457C41.8641 40.4168 41.7815 40.4779 41.692 40.5276C41.6011 40.5768 41.5046 40.6148 41.4045 40.6406C41.3051 40.6671 41.2026 40.6804 41.0998 40.6799C40.9547 40.6801 40.8104 40.6577 40.6722 40.6136C40.5376 40.5716 40.4112 40.5068 40.2986 40.4219C40.1901 40.3374 40.1005 40.2311 40.0357 40.1098C39.9673 39.9805 39.9326 39.8359 39.9349 39.6896C39.9345 39.5836 39.9468 39.478 39.9718 39.375C39.9975 39.2702 40.0425 39.171 40.1045 39.0826C40.184 38.9651 40.2879 38.8662 40.4092 38.7926C40.5306 38.7211 40.6613 38.6665 40.7975 38.6304C40.9399 38.5928 41.0855 38.5689 41.2325 38.5592C41.3848 38.5592 41.5322 38.5444 41.6772 38.5444H42.1048C42.1073 38.4298 42.0924 38.3155 42.0606 38.2053C42.0342 38.1204 41.9869 38.0435 41.923 37.9817C41.8523 37.9213 41.7679 37.8791 41.6772 37.8588C41.567 37.8325 41.4539 37.8201 41.3406 37.8219C41.1554 37.8203 40.9715 37.852 40.7975 37.9153C40.62 37.9779 40.454 38.0692 40.306 38.1856L40.2765 37.4484C40.4645 37.3655 40.6605 37.3021 40.8614 37.2592C41.0626 37.2166 41.2677 37.1952 41.4733 37.1953C41.8518 37.169 42.2259 37.2895 42.5177 37.532C42.6453 37.67 42.7428 37.833 42.8041 38.0107C42.8654 38.1883 42.8893 38.3768 42.8741 38.5641L42.8888 38.5493ZM42.0852 39.0556H41.5593C41.4653 39.0563 41.3716 39.0653 41.2792 39.0826C41.1857 39.1 41.096 39.1333 41.0137 39.1809C40.9364 39.2243 40.87 39.2848 40.8196 39.3578C40.768 39.4393 40.7415 39.5342 40.7435 39.6306C40.7412 39.6982 40.7591 39.765 40.7951 39.8223C40.8283 39.8735 40.8729 39.9164 40.9253 39.9476C40.9795 39.9814 41.0395 40.0048 41.1022 40.0164C41.1651 40.0311 41.2294 40.0385 41.2939 40.0386C41.4184 40.0423 41.5419 40.0144 41.6527 39.9575C41.7507 39.906 41.8349 39.8318 41.8984 39.7412C41.9631 39.648 42.0105 39.544 42.0385 39.434C42.0691 39.316 42.0848 39.1947 42.0852 39.0728V39.0556ZM43.7465 40.5939H44.6164V35.7405H43.7465V40.5939ZM46.9681 39.982C46.9008 39.9938 46.8326 39.9995 46.7642 39.9992C46.6968 40.0012 46.63 39.986 46.5701 39.955C46.5194 39.9264 46.4764 39.8859 46.4447 39.837C46.4125 39.7857 46.3892 39.7291 46.3759 39.6699C46.3631 39.606 46.3565 39.541 46.3562 39.4758V37.8957H47.1279V37.2592H46.3562V36.3155L45.4863 36.5932V39.5913C45.4833 39.7465 45.5066 39.901 45.5551 40.0484C45.5953 40.1754 45.6643 40.2914 45.7566 40.3875C45.8482 40.4835 45.961 40.5567 46.086 40.6013C46.2332 40.6509 46.3877 40.675 46.543 40.6726C46.6479 40.6726 46.756 40.6677 46.8674 40.6578C46.9749 40.6465 47.081 40.6251 47.1844 40.5939L47.1598 39.9083C47.1006 39.9436 47.0358 39.9685 46.9681 39.982ZM50.5216 37.559C50.4286 37.44 50.308 37.3456 50.1702 37.2838C50.0067 37.213 49.8298 37.1786 49.6517 37.183C49.4459 37.1811 49.2424 37.2265 49.057 37.3157C48.8723 37.405 48.7153 37.5426 48.6024 37.7138H48.5901V35.7478H47.7226V40.6013H48.5901V38.9696C48.5904 38.844 48.6036 38.7189 48.6294 38.596C48.6521 38.4714 48.6944 38.3511 48.7547 38.2397C48.812 38.1337 48.8916 38.0414 48.9882 37.9694C49.0953 37.8969 49.2225 37.8599 49.3519 37.8637C49.4593 37.8598 49.5659 37.8835 49.6615 37.9325C49.7499 37.9903 49.8151 38.0773 49.8458 38.1783C49.8821 38.2795 49.9036 38.3854 49.9097 38.4928C49.9097 38.5936 49.9097 38.7017 49.9097 38.8123V40.5915H50.7772V38.4879C50.7782 38.313 50.7567 38.1388 50.7133 37.9694C50.6758 37.8196 50.6081 37.6791 50.5143 37.5565L50.5216 37.559ZM52.6178 40.5915H53.5271V36.0698H52.6178V40.5915ZM57.2206 37.5442C57.1268 37.4267 57.0063 37.3332 56.8692 37.2715C56.7057 37.2007 56.5289 37.1663 56.3508 37.1707C56.1388 37.1674 55.9288 37.2119 55.7364 37.301C55.5477 37.3955 55.3836 37.5326 55.2571 37.7015H55.2424V37.2469H54.4167V40.5817H55.2867V38.9499C55.2873 38.8245 55.2997 38.6995 55.3235 38.5764C55.3482 38.4519 55.3912 38.3318 55.4513 38.22C55.5121 38.1128 55.596 38.0204 55.697 37.9497C55.804 37.8769 55.9314 37.8399 56.0607 37.8441C56.1681 37.8402 56.2747 37.8639 56.3704 37.9129C56.4587 37.9701 56.5233 38.0574 56.5522 38.1586C56.5902 38.2586 56.6126 38.3639 56.6186 38.4707C56.6186 38.5739 56.6186 38.682 56.6186 38.7926V40.5718H57.4836V38.4682C57.4854 38.2935 57.4648 38.1192 57.4222 37.9497C57.3857 37.7988 57.3179 37.6573 57.2231 37.5344L57.2206 37.5442ZM60.3441 38.9008C60.273 38.8268 60.1899 38.7653 60.0984 38.7189C60.0088 38.6722 59.916 38.6319 59.8206 38.5985C59.7248 38.5665 59.6339 38.5371 59.543 38.5125C59.4595 38.4894 59.3775 38.4615 59.2972 38.4289C59.2339 38.4045 59.1756 38.3687 59.1252 38.3233C59.104 38.3025 59.0875 38.2776 59.0765 38.2501C59.0655 38.2226 59.0603 38.1931 59.0613 38.1635C59.0588 38.1004 59.0751 38.038 59.108 37.9841C59.1393 37.938 59.1805 37.8994 59.2284 37.8711C59.2794 37.842 59.3352 37.822 59.3931 37.8121C59.4521 37.8004 59.5122 37.7946 59.5724 37.7949C59.7042 37.7937 59.8358 37.8044 59.9657 37.8268C60.0967 37.8513 60.225 37.8883 60.349 37.9374L60.4056 37.2862C60.2516 37.2438 60.0947 37.2126 59.9361 37.1928C59.7781 37.172 59.6188 37.1613 59.4594 37.1609C59.2938 37.1598 59.1286 37.1796 58.9679 37.2199C58.8188 37.2559 58.6773 37.3183 58.5502 37.4042C58.4283 37.4862 58.3273 37.5956 58.2553 37.7236C58.1762 37.868 58.1372 38.0309 58.1422 38.1955C58.1397 38.3098 58.1572 38.4238 58.1938 38.5321C58.2247 38.6216 58.2712 38.7049 58.3314 38.7779C58.3884 38.8438 58.4557 38.9002 58.5305 38.945C58.6091 38.9902 58.6913 39.0288 58.7762 39.0605C58.8565 39.0922 58.9386 39.1193 59.022 39.1416C59.1031 39.1637 59.1842 39.1858 59.2677 39.2104C59.3358 39.2319 59.4024 39.2582 59.4668 39.289C59.5203 39.3141 59.5674 39.3511 59.6044 39.3972C59.6278 39.4275 59.6438 39.4628 59.6511 39.5004C59.6558 39.5379 59.6558 39.5759 59.6511 39.6134C59.6532 39.6795 59.6352 39.7446 59.5995 39.8002C59.563 39.8518 59.5161 39.8954 59.4619 39.928C59.4052 39.9607 59.3439 39.9848 59.28 39.9992C59.2163 40.0137 59.1512 40.0212 59.0859 40.0214C58.7858 40.0219 58.4906 39.9457 58.2282 39.8002L58.1766 40.5128C58.3384 40.5569 58.5025 40.5922 58.6681 40.6185C58.8308 40.6429 58.9951 40.6552 59.1596 40.6554C59.3309 40.6555 59.5016 40.6357 59.6683 40.5964C59.8285 40.5626 59.981 40.4993 60.118 40.4096C60.2495 40.3241 60.3589 40.2087 60.4375 40.073C60.5228 39.9191 60.5652 39.7451 60.5603 39.5692C60.5639 39.4351 60.5414 39.3015 60.494 39.176C60.4558 39.0756 60.3982 38.9837 60.3244 38.9057L60.3441 38.9008ZM63.4257 38.8737C63.4249 39.0006 63.4134 39.1272 63.3913 39.2522C63.3694 39.3775 63.328 39.4985 63.2685 39.611C63.2102 39.7194 63.1257 39.8114 63.0227 39.8788C62.9129 39.9512 62.7831 39.9873 62.6516 39.982C62.5456 39.9849 62.4411 39.9558 62.3518 39.8985C62.2648 39.8387 62.1993 39.7526 62.1651 39.6527C62.1343 39.5744 62.1176 39.4912 62.1159 39.407L62.1012 39.1612V39.0851C62.0986 39.0597 62.0986 39.0342 62.1012 39.0089V37.2297H61.2312V39.3357C61.2301 39.5091 61.2524 39.6819 61.2976 39.8493C61.3382 40.0001 61.4084 40.1413 61.504 40.2646C61.597 40.3843 61.7175 40.4796 61.8554 40.5423C62.0164 40.613 62.1909 40.6474 62.3666 40.6431C62.5777 40.6457 62.7865 40.5986 62.976 40.5055C63.168 40.4141 63.3363 40.2796 63.4675 40.1123V40.5644H64.2883V37.2297H63.4233L63.4257 38.8737ZM66.8981 37.1535C66.7787 37.1532 66.6608 37.181 66.554 37.2346C66.4452 37.2863 66.3482 37.36 66.269 37.4509C66.2031 37.5281 66.1431 37.6103 66.0896 37.6966C66.0379 37.7853 66.003 37.8828 65.9864 37.9841H65.9741V37.2248H65.2295V40.5595H66.097V39.3308C66.097 39.2497 66.097 39.1588 66.097 39.058C66.097 38.9573 66.097 38.859 66.124 38.7582C66.1365 38.659 66.1579 38.5612 66.1879 38.4658C66.2145 38.3779 66.2551 38.2949 66.3083 38.22C66.3602 38.1475 66.4273 38.0871 66.5049 38.0431C66.5951 37.9963 66.6958 37.9734 66.7973 37.9768C66.864 37.977 66.9305 37.9819 66.9964 37.9915C67.0623 37.999 67.1264 38.0182 67.1856 38.048V37.1756C67.1418 37.1667 67.0975 37.1601 67.0529 37.156H66.9202L66.8981 37.1535ZM70.4713 38.5248C70.4713 38.8688 70.4713 39.2079 70.4713 39.5471C70.4713 39.8862 70.4909 40.2229 70.513 40.5669H69.7487C69.7487 40.4858 69.7291 40.4023 69.7217 40.3212C69.7144 40.2401 69.7217 40.1541 69.7217 40.0754H69.707C69.6561 40.166 69.5923 40.2488 69.5178 40.3212C69.444 40.3921 69.3614 40.4532 69.272 40.503C69.182 40.5522 69.0863 40.5902 68.987 40.6161C68.8867 40.6425 68.7835 40.6558 68.6798 40.6554C68.5355 40.6556 68.392 40.6332 68.2546 40.589C68.1198 40.5477 67.9933 40.4828 67.8811 40.3973C67.7711 40.3137 67.6806 40.2072 67.6157 40.0852C67.5481 39.9557 67.5144 39.8111 67.5174 39.665C67.517 39.5591 67.5293 39.4534 67.5543 39.3505C67.579 39.2457 67.6232 39.1465 67.6845 39.058C67.7647 38.9403 67.8695 38.8413 67.9917 38.7681C68.1129 38.6961 68.2436 38.6415 68.38 38.6059C68.5223 38.568 68.668 38.5441 68.815 38.5346C68.9649 38.5346 69.1123 38.5199 69.2597 38.5199H69.6848C69.6873 38.4052 69.6724 38.2909 69.6406 38.1807C69.6142 38.0958 69.5669 38.0189 69.503 37.9571C69.433 37.8957 69.3484 37.8533 69.2572 37.8342C69.1478 37.8079 69.0356 37.7955 68.9231 37.7974C68.7371 37.7956 68.5523 37.8272 68.3775 37.8907C68.2003 37.9541 68.0344 38.0453 67.886 38.1611L67.859 37.4238C68.0462 37.3413 68.2414 37.2779 68.4414 37.2346C68.6434 37.1921 68.8493 37.1707 69.0558 37.1707C69.4334 37.145 69.8065 37.2656 70.0977 37.5074C70.2257 37.6452 70.3237 37.8081 70.3854 37.9858C70.4472 38.1635 70.4714 38.352 70.4565 38.5395L70.4713 38.5248ZM69.6652 39.031H69.1614C69.0666 39.0318 68.9721 39.0409 68.8789 39.058C68.7863 39.0759 68.6974 39.1091 68.6159 39.1563C68.5381 39.1991 68.4715 39.2597 68.4217 39.3333C68.3686 39.414 68.3419 39.5094 68.3455 39.606C68.3436 39.6733 68.3606 39.7397 68.3947 39.7977C68.4286 39.8484 68.473 39.8912 68.5249 39.9231C68.5795 39.956 68.6394 39.9793 68.7019 39.9919C68.7656 40.0064 68.8307 40.0138 68.896 40.014C69.0205 40.0171 69.1438 39.9892 69.2548 39.9329C69.3529 39.8816 69.4372 39.8074 69.5005 39.7166C69.5661 39.624 69.6137 39.5197 69.6406 39.4094C69.6724 39.2917 69.6881 39.1702 69.6873 39.0482L69.6652 39.031ZM74.1083 37.532C74.0153 37.4146 73.8957 37.321 73.7593 37.2592C73.5958 37.1884 73.4189 37.154 73.2408 37.1584C73.0288 37.1548 72.8188 37.1993 72.6265 37.2887C72.4369 37.3818 72.2725 37.5192 72.1472 37.6892H72.1301V37.2346H71.3092V40.5694H72.1792V38.9376C72.1799 38.8122 72.1922 38.6872 72.216 38.5641C72.2388 38.4394 72.2811 38.3192 72.3414 38.2078C72.4015 38.1 72.4856 38.0075 72.5871 37.9374C72.694 37.8643 72.8214 37.8273 72.9508 37.8318C73.0582 37.8279 73.1648 37.8516 73.2605 37.9006C73.3475 37.9592 73.4117 38.046 73.4423 38.1463C73.4795 38.2464 73.5011 38.3517 73.5062 38.4584C73.5062 38.5616 73.5062 38.6698 73.5062 38.7803V40.5595H74.3712V38.456C74.3735 38.281 74.352 38.1066 74.3073 37.9374C74.2709 37.7866 74.203 37.6451 74.1083 37.5221V37.532ZM77.0572 39.9206C76.9463 39.9487 76.8325 39.9636 76.7181 39.9648C76.5778 39.9686 76.4387 39.9382 76.3127 39.8764C76.2013 39.8166 76.1047 39.7326 76.03 39.6306C75.9546 39.5264 75.8996 39.4088 75.8678 39.2841C75.8332 39.1509 75.8158 39.0138 75.8162 38.8762C75.8158 38.7426 75.8332 38.6095 75.8678 38.4805C75.9002 38.3591 75.9552 38.2448 76.03 38.1439C76.1014 38.0416 76.1957 37.9575 76.3053 37.8981C76.4269 37.8364 76.562 37.806 76.6984 37.8096C76.7997 37.8105 76.9007 37.8187 77.0007 37.8342C77.1011 37.85 77.1978 37.8841 77.2858 37.935L77.3644 37.2469C77.2291 37.2046 77.09 37.1758 76.9491 37.1609C76.8079 37.1453 76.666 37.1371 76.524 37.1363C76.2886 37.1318 76.055 37.1771 75.8383 37.269C75.6443 37.3494 75.4712 37.4729 75.3321 37.6303C75.1912 37.7897 75.0841 37.9761 75.0176 38.1783C74.9443 38.4002 74.9078 38.6326 74.9094 38.8664C74.9074 39.1057 74.944 39.3439 75.0176 39.5716C75.084 39.7773 75.1919 39.9672 75.3346 40.1295C75.4776 40.288 75.6537 40.4131 75.8506 40.4956C76.0746 40.5858 76.3145 40.6301 76.5559 40.6259C76.696 40.6259 76.8435 40.6259 76.9934 40.6038C77.1383 40.5876 77.2815 40.558 77.421 40.5153L77.3841 39.7953C77.2787 39.8426 77.1693 39.8804 77.0572 39.9083V39.9206ZM80.8466 38.3896C80.8712 38.513 80.8885 38.6377 80.8982 38.7631C80.9081 38.8877 80.913 39.0081 80.913 39.1244V39.1514H78.6103C78.618 39.2744 78.6497 39.3946 78.7038 39.5053C78.7518 39.6068 78.8204 39.6972 78.9052 39.7707C78.9918 39.843 79.091 39.8988 79.1977 39.9353C79.3152 39.9734 79.4379 39.9925 79.5614 39.9919C79.7571 39.9924 79.9515 39.96 80.1364 39.896C80.3212 39.8323 80.4991 39.75 80.6673 39.6503V40.358C80.4964 40.459 80.3093 40.5297 80.1143 40.5669C79.9199 40.604 79.7224 40.6229 79.5245 40.6234C79.2744 40.6268 79.0254 40.5895 78.7873 40.5128C78.5825 40.4441 78.396 40.3299 78.2417 40.1786C78.0898 40.0264 77.9747 39.8415 77.9051 39.638C77.8251 39.4006 77.786 39.1513 77.7896 38.9008C77.788 38.6688 77.8203 38.4378 77.8854 38.2151C77.9417 38.0118 78.0386 37.822 78.1704 37.6573C78.3029 37.4949 78.4711 37.3654 78.6619 37.2788C78.8762 37.1813 79.1097 37.1334 79.3451 37.1388C79.466 37.1392 79.5867 37.1482 79.7064 37.1658C79.8257 37.1841 79.9428 37.2154 80.0554 37.2592C80.1666 37.3007 80.2709 37.3587 80.365 37.4312C80.4624 37.5059 80.5456 37.5975 80.6107 37.7015C80.6749 37.8044 80.7276 37.914 80.768 38.0284C80.8097 38.147 80.8425 38.2686 80.8663 38.3921L80.8466 38.3896ZM80.1069 38.5567C80.1031 38.4517 80.0857 38.3477 80.0554 38.2471C80.0279 38.1576 79.9837 38.0742 79.9251 38.0013C79.8682 37.9294 79.7948 37.8721 79.7113 37.8342C79.6135 37.7925 79.5079 37.7724 79.4016 37.7752C79.2939 37.7732 79.1868 37.7933 79.0871 37.8342C78.9944 37.871 78.9106 37.9272 78.8413 37.9989C78.7748 38.0699 78.7231 38.1534 78.689 38.2446C78.6503 38.3445 78.6271 38.4498 78.6202 38.5567H80.1069ZM4.2576 39.81C4.17285 39.8349 4.08667 39.8546 3.99955 39.869C3.91108 39.8837 3.82263 39.896 3.73662 39.9034C3.65061 39.9108 3.56705 39.9157 3.49087 39.9157C3.27014 39.9188 3.05108 39.877 2.84702 39.7928C2.66068 39.7176 2.49297 39.6027 2.35553 39.4561C2.21993 39.3085 2.1162 39.1345 2.05081 38.945C1.97955 38.7387 1.94381 38.5218 1.94512 38.3036C1.9434 38.0855 1.9783 37.8687 2.04835 37.6622C2.11225 37.4714 2.21331 37.2952 2.34569 37.1437C2.4772 36.9939 2.63995 36.8748 2.82245 36.7947C3.02275 36.7062 3.23998 36.6626 3.45892 36.6669C3.55722 36.6669 3.64568 36.6669 3.72924 36.6669C3.81186 36.6739 3.89395 36.6862 3.97498 36.7038C4.05253 36.7239 4.12886 36.7485 4.20354 36.7775C4.28784 36.8117 4.36992 36.8511 4.44928 36.8955L4.51318 36.1312C4.35281 36.0744 4.18855 36.0292 4.02169 35.996C3.85102 35.9615 3.67727 35.9442 3.50314 35.9444C3.22033 35.9431 2.93832 35.9744 2.66271 36.0378C2.41134 36.0952 2.17186 36.1958 1.95496 36.3352C1.74353 36.4737 1.56216 36.6534 1.42168 36.8635C1.26513 37.1033 1.15665 37.3712 1.10223 37.6524C1.07766 37.7654 1.058 37.8809 1.04325 38.0013C1.03065 38.1205 1.02407 38.2403 1.02358 38.3601C1.02202 38.5246 1.03353 38.6889 1.05798 38.8516C1.07957 39.0064 1.11915 39.1582 1.17594 39.3038C1.22976 39.4487 1.30248 39.5858 1.39219 39.7117C1.48541 39.8433 1.59619 39.9616 1.72148 40.0631C1.84622 40.1661 1.98128 40.2559 2.12451 40.331C2.26385 40.4024 2.40945 40.4608 2.55949 40.5055C2.71058 40.5501 2.86511 40.5822 3.02149 40.6013C3.18469 40.6194 3.34877 40.6285 3.51298 40.6283C3.68648 40.6284 3.85975 40.6161 4.0315 40.5915C4.20347 40.5691 4.37353 40.5337 4.54021 40.4858L4.50334 39.7289C4.43053 39.7626 4.35486 39.7897 4.27724 39.81H4.2576ZM7.93148 37.6278C8.08666 37.7869 8.20643 37.977 8.28291 38.1856C8.36804 38.416 8.4097 38.6601 8.40578 38.9057C8.40956 39.1476 8.36615 39.388 8.27799 39.6134C8.19847 39.8187 8.07617 40.0046 7.91921 40.159C7.76084 40.3115 7.57257 40.4294 7.36628 40.5055C7.13983 40.5892 6.89997 40.6309 6.65853 40.6283C6.41765 40.6313 6.17838 40.5887 5.95325 40.503C5.748 40.4252 5.56072 40.3065 5.40278 40.1541C5.24717 39.9986 5.12504 39.813 5.04397 39.6085C4.95714 39.3845 4.91376 39.1459 4.91618 38.9057C4.91346 38.6608 4.95595 38.4175 5.04151 38.1881C5.11805 37.98 5.23688 37.7901 5.39048 37.6303C5.54604 37.473 5.73268 37.35 5.93849 37.269C6.16791 37.1798 6.41239 37.1355 6.65853 37.1388C6.9052 37.1362 7.15018 37.1796 7.38101 37.2665C7.58818 37.3463 7.77587 37.4695 7.93148 37.6278ZM7.46213 39.2202C7.48669 39.0823 7.499 38.9425 7.49896 38.8025C7.49904 38.6747 7.48254 38.5475 7.44983 38.424C7.41784 38.3106 7.36537 38.204 7.29501 38.1095C7.22613 38.0181 7.13693 37.9441 7.0345 37.8932C6.91839 37.8363 6.79023 37.8085 6.66099 37.8121C6.53399 37.8101 6.40838 37.8387 6.29484 37.8957C6.19848 37.9515 6.11479 38.0269 6.04909 38.1168C5.97759 38.2123 5.92351 38.3196 5.88935 38.4338C5.85469 38.5536 5.83729 38.6778 5.83772 38.8025C5.83772 38.8344 5.83772 38.8663 5.83772 38.8983C5.83772 38.9302 5.83772 38.9622 5.83772 38.9941C5.83772 39.0801 5.86477 39.1662 5.87951 39.2399C5.89345 39.3182 5.9157 39.3948 5.94587 39.4684C5.97745 39.5391 6.01702 39.6059 6.06382 39.6675C6.1174 39.7356 6.18325 39.7931 6.25797 39.837C6.31628 39.8774 6.38114 39.9073 6.44966 39.9255C6.51824 39.9407 6.5883 39.9481 6.65853 39.9476C6.80453 39.9544 6.94943 39.9195 7.07629 39.8469C7.17867 39.7809 7.2631 39.6905 7.32203 39.5839C7.38641 39.4688 7.4297 39.3432 7.44983 39.2129L7.46213 39.2202ZM11.136 38.8393C11.1356 38.9663 11.1232 39.093 11.0991 39.2178C11.078 39.3429 11.0374 39.464 10.9787 39.5766C10.9192 39.684 10.8349 39.7758 10.733 39.8444C10.6222 39.9167 10.4916 39.9527 10.3594 39.9476C10.2542 39.9502 10.1506 39.9211 10.0621 39.8641C9.9751 39.8037 9.90897 39.7179 9.87287 39.6183C9.84329 39.5396 9.82671 39.4566 9.82374 39.3726C9.82374 39.2915 9.82374 39.2129 9.82374 39.1268C9.82374 39.1023 9.82374 39.0752 9.82374 39.0507C9.82242 39.0253 9.82242 38.9999 9.82374 38.9745V37.1953H8.95625V39.3013C8.95509 39.4747 8.97742 39.6475 9.0226 39.8149C9.06334 39.9652 9.13258 40.1062 9.22656 40.2302C9.32095 40.3494 9.44223 40.4446 9.58045 40.5079C9.74061 40.5783 9.91424 40.6127 10.0891 40.6087C10.3011 40.6113 10.5106 40.5642 10.701 40.4711C10.8936 40.3807 11.0621 40.2459 11.1925 40.0779H11.2073V40.53H12.0281V37.1953H11.163L11.136 38.8393ZM15.6921 37.5049C15.5988 37.3869 15.4782 37.2933 15.3407 37.2321C15.1772 37.1614 15.0003 37.127 14.8222 37.1314C14.6102 37.1283 14.4003 37.1728 14.2078 37.2616C14.0192 37.3561 13.8551 37.4933 13.7286 37.6622H13.7139V37.2076H12.8857V40.5423H13.7532V38.9106C13.7535 38.7851 13.7667 38.6599 13.7925 38.5371C13.8152 38.4124 13.8575 38.2921 13.9178 38.1807C13.9786 38.0734 14.0626 37.9811 14.1636 37.9104C14.2707 37.8379 14.398 37.8009 14.5273 37.8047C14.6347 37.8008 14.7413 37.8245 14.8369 37.8735C14.9253 37.9313 14.9905 38.0183 15.0212 38.1193C15.0573 38.2197 15.0788 38.3248 15.0851 38.4314C15.0851 38.5346 15.0851 38.6427 15.0851 38.7533V40.5325H15.9526V38.4289C15.9536 38.2541 15.9322 38.0798 15.8887 37.9104C15.8523 37.7595 15.7844 37.618 15.6897 37.4951L15.6921 37.5049ZM18.6386 39.8936C18.5269 39.9216 18.4122 39.9365 18.297 39.9378C18.1575 39.9414 18.0192 39.911 17.894 39.8493C17.7822 39.7902 17.6855 39.7061 17.6114 39.6036C17.536 39.4993 17.481 39.3818 17.4492 39.2571C17.4145 39.1239 17.3972 38.9868 17.3976 38.8491C17.3972 38.7156 17.4145 38.5825 17.4492 38.4535C17.4815 38.332 17.5366 38.2178 17.6114 38.1168C17.6818 38.0147 17.7752 37.9305 17.8842 37.8711C18.0068 37.8095 18.1427 37.7791 18.2798 37.7826C18.3802 37.7834 18.4805 37.7916 18.5797 37.8072C18.6809 37.8225 18.7784 37.8567 18.8672 37.9079L18.9458 37.2199C18.8105 37.1776 18.6714 37.1488 18.5305 37.1338C18.3893 37.1184 18.2474 37.1102 18.1053 37.1093C17.87 37.1048 17.6364 37.15 17.4197 37.242C17.2253 37.3229 17.0515 37.4463 16.911 37.6032C16.7709 37.7633 16.664 37.9495 16.5965 38.1512C16.5241 38.3733 16.4884 38.6057 16.4908 38.8393C16.488 39.0786 16.5237 39.3167 16.5965 39.5446C16.6647 39.75 16.7734 39.9396 16.9159 40.1025C17.058 40.2621 17.2344 40.3873 17.432 40.4686C17.656 40.5587 17.8959 40.603 18.1373 40.5989C18.2774 40.5989 18.4224 40.5989 18.5747 40.5767C18.7197 40.5606 18.8628 40.5309 19.0023 40.4883L18.9655 39.7682C18.8601 39.8155 18.7507 39.8534 18.6386 39.8813V39.8936ZM19.5946 40.5202H20.462V37.1855H19.5946V40.5202ZM21.391 40.5202H22.2609V35.6667H21.391V40.5202ZM20.0394 35.824C19.9244 35.8247 19.8144 35.8708 19.7334 35.9523C19.6523 36.0338 19.6068 36.1441 19.6068 36.259C19.6065 36.316 19.6175 36.3725 19.6391 36.4253C19.6607 36.478 19.6925 36.526 19.7327 36.5664C19.7729 36.6068 19.8207 36.6389 19.8733 36.6608C19.9259 36.6827 19.9824 36.694 20.0394 36.694C20.1547 36.694 20.2654 36.6481 20.3469 36.5666C20.4285 36.485 20.4743 36.3744 20.4743 36.259C20.4743 36.1436 20.4285 36.033 20.3469 35.9514C20.2654 35.8699 20.1547 35.824 20.0394 35.824ZM25.8316 37.2076C26.0621 37.1965 26.2924 37.234 26.5075 37.3178C26.7225 37.4016 26.9175 37.5297 27.0798 37.6938C27.242 37.8579 27.3679 38.0544 27.4493 38.2704C27.5306 38.4864 27.5655 38.7171 27.5518 38.9474C27.5626 39.1751 27.5253 39.4025 27.4423 39.6147C27.3594 39.827 27.2326 40.0194 27.0703 40.1794C26.908 40.3393 26.7138 40.4633 26.5004 40.5432C26.2869 40.6231 26.0591 40.6572 25.8316 40.6431C25.6041 40.6572 25.3763 40.6231 25.1628 40.5432C24.9494 40.4633 24.7552 40.3393 24.5929 40.1794C24.4306 40.0194 24.3038 39.827 24.2208 39.6147C24.1379 39.4025 24.1006 39.1751 24.1114 38.9474C24.0973 38.717 24.1319 38.4861 24.2131 38.2699C24.2943 38.0538 24.4202 37.8572 24.5825 37.693C24.7449 37.5288 24.94 37.4006 25.1553 37.317C25.3705 37.2334 25.601 37.1961 25.8316 37.2076ZM25.8316 39.982C26.4877 39.982 26.6598 39.3947 26.6598 38.8467C26.6598 38.3429 26.3919 37.8637 25.8316 37.8637C25.2713 37.8637 25.0083 38.3552 25.0083 38.8467C25.0083 39.3873 25.1804 39.982 25.8316 39.982ZM28.5594 36.8242V37.2838H27.9278V37.9079H28.5594V40.5669H29.4146V37.9079H30.1518V37.2838H29.4146V36.8758C29.4146 36.6301 29.503 36.3843 29.7906 36.3843C29.9222 36.3853 30.0505 36.4255 30.1592 36.4998L30.2304 35.7921C30.0247 35.746 29.8146 35.7221 29.6038 35.7208C28.928 35.7208 28.5594 36.1804 28.5594 36.8365" fill="#002554"/>
<path d="M2.70785 34.415C2.6584 34.3931 2.61343 34.3623 2.57516 34.3241C2.53777 34.2851 2.50705 34.2403 2.48424 34.1914C2.4633 34.139 2.45246 34.0831 2.45229 34.0267C2.45241 33.9711 2.46326 33.916 2.48424 33.8645C2.50639 33.8145 2.53717 33.7687 2.57516 33.7294C2.61429 33.6928 2.65909 33.663 2.70785 33.6409C2.75994 33.619 2.81601 33.6081 2.87251 33.6089C2.929 33.6081 2.98507 33.619 3.03717 33.6409C3.08592 33.663 3.13073 33.6928 3.16985 33.7294C3.20709 33.7688 3.23704 33.8146 3.25831 33.8645C3.28125 33.9155 3.29299 33.9708 3.29272 34.0267C3.29296 34.0834 3.28123 34.1395 3.25831 34.1914C3.23625 34.2401 3.20637 34.2849 3.16985 34.3241C3.13158 34.3623 3.08661 34.3931 3.03717 34.415C2.98507 34.4369 2.929 34.4477 2.87251 34.4469C2.81601 34.4477 2.75994 34.4369 2.70785 34.415ZM3.69083 34.415C3.74293 34.4369 3.79899 34.4477 3.85549 34.4469C3.91198 34.4477 3.96805 34.4369 4.02015 34.415C4.0696 34.3931 4.11456 34.3623 4.15283 34.3241C4.19022 34.2851 4.22094 34.2403 4.24375 34.1914C4.26469 34.139 4.27553 34.0831 4.2757 34.0267C4.27558 33.9711 4.26473 33.916 4.24375 33.8645C4.2216 33.8145 4.19082 33.7687 4.15283 33.7294C4.11371 33.6928 4.0689 33.663 4.02015 33.6409C3.96805 33.619 3.91198 33.6081 3.85549 33.6089C3.79899 33.6081 3.74293 33.619 3.69083 33.6409C3.64207 33.663 3.59727 33.6928 3.55815 33.7294C3.52091 33.7688 3.49096 33.8146 3.46968 33.8645C3.44674 33.9155 3.43501 33.9708 3.43527 34.0267C3.43503 34.0834 3.44676 34.1395 3.46968 34.1914C3.49175 34.2401 3.52163 34.2849 3.55815 34.3241C3.59641 34.3623 3.64138 34.3931 3.69083 34.415ZM23.1047 27.077H23.9452V31.7953H17.4944C17.2367 31.7996 16.9794 31.774 16.7276 31.7192C16.53 31.6804 16.3441 31.5963 16.1846 31.4734C16.1051 31.5776 16.0024 31.6617 15.8847 31.7192C15.7399 31.7849 15.5817 31.8161 15.4227 31.8101H7.29838C7.175 31.8096 7.0524 31.7906 6.93469 31.7536C6.81727 31.7174 6.70909 31.6562 6.61766 31.5742C6.52076 31.4866 6.44366 31.3794 6.39157 31.2596C6.3318 31.1097 6.30337 30.9491 6.30802 30.7878V29.8048C6.19605 29.8041 6.08423 29.8132 5.97381 29.8318C5.88438 29.849 5.80021 29.8869 5.72807 29.9424C5.65401 30.0083 5.59958 30.0933 5.57079 30.1882C5.53241 30.3156 5.51499 30.4484 5.51919 30.5814V31.5643C5.51839 31.7817 5.46796 31.9961 5.37175 32.191C5.27079 32.4005 5.12673 32.5864 4.94904 32.7366C4.74829 32.9053 4.51844 33.0361 4.27078 33.1224C3.97866 33.2241 3.67081 33.2732 3.36154 33.2674C3.07773 33.2724 2.79447 33.241 2.51865 33.174C2.3008 33.122 2.09145 33.0392 1.8969 32.9282C1.73495 32.8369 1.58888 32.7198 1.46439 32.5817C1.35599 32.4619 1.26425 32.328 1.19161 32.1836C1.12843 32.059 1.08135 31.9269 1.05152 31.7904C1.02621 31.6782 1.01224 31.5638 1.00977 31.4488C1.00985 31.3226 1.02217 31.1967 1.0466 31.0729C1.07038 30.9486 1.10324 30.8262 1.14491 30.7067C1.18554 30.5917 1.23483 30.48 1.29235 30.3725C1.34882 30.2732 1.41205 30.178 1.48158 30.0874L2.15492 30.4511C2.10889 30.5146 2.0686 30.582 2.03451 30.6526C1.99727 30.7318 1.96686 30.814 1.94358 30.8984C1.91709 30.9785 1.89737 31.0607 1.8846 31.1441C1.87062 31.2253 1.86323 31.3075 1.8625 31.3899C1.86241 31.4723 1.86981 31.5545 1.8846 31.6356C1.9022 31.7207 1.93026 31.8032 1.96815 31.8814C2.01222 31.9706 2.06847 32.0533 2.13527 32.1271C2.21456 32.2118 2.30762 32.2824 2.4105 32.336C2.53686 32.4016 2.67165 32.4496 2.81107 32.4785C2.99186 32.5177 3.17658 32.5359 3.36154 32.5326C3.54703 32.5354 3.73185 32.5097 3.90954 32.4564C4.05687 32.412 4.19564 32.3431 4.31995 32.2524C4.42224 32.1751 4.50616 32.076 4.5657 31.9625C4.62325 31.8595 4.65369 31.7437 4.65416 31.6258V30.5175C4.63982 30.3283 4.66495 30.1382 4.72799 29.9592C4.79102 29.7803 4.89058 29.6164 5.02032 29.478C5.33906 29.2224 5.74351 29.0984 6.15074 29.1315H7.16567V30.5543C7.16434 30.6512 7.16927 30.7481 7.18043 30.8443C7.18754 30.903 7.20589 30.9597 7.23449 31.0114C7.25593 31.0473 7.29019 31.0736 7.33033 31.0851C7.3791 31.0988 7.42958 31.1055 7.48023 31.1048H12.9505C12.9191 31.0378 12.892 30.9689 12.8694 30.8984C12.8422 30.8185 12.8224 30.7362 12.8104 30.6526C12.7932 30.5298 12.7711 30.4069 12.7466 30.2865C12.7227 30.1716 12.6847 30.0602 12.6335 29.9547C12.5862 29.8583 12.5172 29.7742 12.432 29.709C12.3362 29.6429 12.2214 29.61 12.1052 29.6156C12.0585 29.6156 12.0044 29.6156 11.9381 29.6156L11.7292 29.6451C11.6555 29.6598 11.5817 29.677 11.5055 29.6991C11.433 29.72 11.3617 29.7446 11.2917 29.7729V29.0921C11.4441 29.0455 11.5989 29.0061 11.7513 28.9717C11.9217 28.9354 12.0956 28.9181 12.2698 28.9201C12.4372 28.9192 12.6036 28.9475 12.7613 29.0037C12.9018 29.0553 13.0306 29.1347 13.1398 29.2371C13.2431 29.3396 13.3264 29.4605 13.3855 29.5935C13.4521 29.7369 13.4976 29.8892 13.5206 30.0456C13.5403 30.1808 13.5624 30.311 13.5821 30.4339C13.5992 30.5442 13.623 30.6534 13.6534 30.7608C13.672 30.8415 13.7036 30.9186 13.7467 30.9893C13.7591 31.0142 13.7779 31.0354 13.8013 31.0505C13.8246 31.0657 13.8516 31.0742 13.8795 31.0753H15.1082C15.1714 31.0771 15.2344 31.0688 15.295 31.0507C15.3426 31.0382 15.3854 31.0117 15.4178 30.9746C15.4531 30.9328 15.4775 30.883 15.4891 30.8296C15.5053 30.7537 15.5128 30.6762 15.5112 30.5986V29.7557H16.3639V30.7141C16.3676 30.773 16.3676 30.8321 16.3639 30.891C16.4825 30.9617 16.6134 31.0093 16.7497 31.0311C16.8797 31.0546 17.011 31.0694 17.1429 31.0753C17.1945 30.9377 17.2634 30.7878 17.3445 30.6231C17.4315 30.4538 17.5283 30.2897 17.6344 30.1316C17.7481 29.9639 17.8738 29.8046 18.0104 29.6549C18.1487 29.5038 18.3028 29.3678 18.47 29.2494C18.636 29.1303 18.8181 29.0352 19.0106 28.9668C19.2107 28.8942 19.422 28.8576 19.6348 28.8587C19.8628 28.8536 20.0892 28.898 20.2983 28.9889C20.4779 29.0724 20.636 29.196 20.7603 29.3502C20.8847 29.5108 20.9757 29.6946 21.0282 29.8908C21.0887 30.1101 21.1185 30.3367 21.1166 30.5642V31.0729H23.0826L23.1047 27.077ZM20.2885 30.6305C20.2921 30.4579 20.2706 30.2857 20.2246 30.1194C20.1938 29.9986 20.1368 29.8862 20.0575 29.7901C19.9925 29.7106 19.9077 29.6496 19.8118 29.6131C19.714 29.5783 19.6108 29.5609 19.507 29.5615C19.351 29.5638 19.1981 29.6052 19.0622 29.6819C18.9052 29.7704 18.762 29.8814 18.6371 30.0112C18.4962 30.1563 18.3725 30.3171 18.2685 30.4904C18.1571 30.6738 18.0649 30.8682 17.9932 31.0704H20.2909L20.2885 30.6305ZM24.8102 31.7904H25.6654V27.0795H24.8127L24.8102 31.7904ZM29.7251 28.9103C29.7634 28.9485 29.8084 28.9793 29.8578 29.0012C29.9099 29.0231 29.966 29.034 30.0225 29.0332C30.079 29.034 30.135 29.0231 30.1871 29.0012C30.2366 28.9793 30.2815 28.9485 30.3198 28.9103C30.3575 28.8721 30.3876 28.8271 30.4083 28.7776C30.4312 28.7257 30.4429 28.6696 30.4427 28.6129C30.4429 28.557 30.4312 28.5017 30.4083 28.4507C30.3876 28.4012 30.3575 28.3562 30.3198 28.318C30.2815 28.2798 30.2366 28.249 30.1871 28.2271C30.135 28.2053 30.079 28.1944 30.0225 28.1952C29.966 28.1944 29.9099 28.2053 29.8578 28.2271C29.8084 28.249 29.7634 28.2798 29.7251 28.318C29.6866 28.3561 29.6558 28.4011 29.6342 28.4507C29.6132 28.5023 29.6024 28.5573 29.6022 28.6129C29.6024 28.6693 29.6133 28.7252 29.6342 28.7776C29.6558 28.8272 29.6866 28.8722 29.7251 28.9103ZM32.0474 30.7927C32.0302 30.6698 32.0081 30.547 31.9786 30.4216C31.9491 30.2963 31.9196 30.1759 31.8852 30.0628C31.8508 29.9498 31.8189 29.8417 31.7845 29.7483L30.9538 29.994C30.9989 30.0953 31.0366 30.1995 31.0669 30.3061C31.1013 30.4143 31.1283 30.5224 31.1504 30.6256C31.1725 30.7288 31.1922 30.8271 31.2045 30.918C31.2153 30.9937 31.2211 31.0701 31.2217 31.1466C31.2453 31.5033 31.1397 31.8565 30.9244 32.1418C30.8066 32.2654 30.6628 32.361 30.5034 32.4218C30.3439 32.4826 30.1729 32.507 30.0028 32.4933C29.8347 32.497 29.6676 32.4669 29.5113 32.4048C29.3724 32.3487 29.2461 32.2651 29.1402 32.159C29.034 32.0533 28.9504 31.927 28.8945 31.788C28.8356 31.642 28.8064 31.4858 28.8085 31.3284C28.8083 31.2462 28.8141 31.1641 28.8257 31.0827C28.8355 31 28.8503 30.9179 28.8699 30.8369C28.8886 30.7582 28.9132 30.6809 28.9436 30.6059C28.9713 30.5367 29.005 30.4701 29.0444 30.4069L28.3612 30.026C28.2979 30.1283 28.2405 30.2341 28.1892 30.343C28.1372 30.4585 28.0913 30.5766 28.0516 30.6969C28.0124 30.8159 27.9812 30.9374 27.9582 31.0606C27.9372 31.1757 27.9265 31.2925 27.9262 31.4095C27.925 31.6442 27.9658 31.8773 28.0467 32.0976C28.1275 32.3164 28.2559 32.5145 28.4227 32.6776C28.6074 32.854 28.8266 32.9904 29.0665 33.0781C29.3614 33.1825 29.6728 33.2324 29.9856 33.2256C30.2843 33.2315 30.5813 33.1797 30.8605 33.0732C31.1061 32.9775 31.3282 32.83 31.5117 32.6407C31.6924 32.4527 31.8306 32.2281 31.9172 31.9821C32.0125 31.7148 32.0599 31.4328 32.0572 31.149C32.0574 31.0338 32.0483 30.9188 32.0302 30.805L32.0474 30.7927ZM47.2664 28.1755C47.3038 28.2148 47.349 28.2457 47.3991 28.2664C47.4503 28.2885 47.5056 28.2994 47.5614 28.2984C47.6179 28.2995 47.674 28.2886 47.726 28.2664C47.7761 28.2457 47.8213 28.2148 47.8587 28.1755C47.8969 28.1372 47.9277 28.0923 47.9496 28.0428C47.9715 27.9907 47.9824 27.9347 47.9816 27.8782C47.9826 27.8224 47.9717 27.7671 47.9496 27.716C47.9283 27.6654 47.8975 27.6195 47.8587 27.5808C47.8205 27.5431 47.7755 27.513 47.726 27.4923C47.6741 27.4694 47.618 27.4577 47.5614 27.4579C47.5054 27.4577 47.4501 27.4694 47.3991 27.4923C47.3496 27.513 47.3046 27.5431 47.2664 27.5808C47.2276 27.6195 47.1968 27.6654 47.1755 27.716C47.1534 27.7671 47.1425 27.8224 47.1435 27.8782C47.1427 27.9347 47.1536 27.9907 47.1755 28.0428C47.1974 28.0923 47.2282 28.1372 47.2664 28.1755ZM53.1299 31.7953H46.3252C46.0676 31.7995 45.8103 31.7739 45.5585 31.7192C45.3609 31.6804 45.175 31.5963 45.0154 31.4734C44.9364 31.577 44.8346 31.661 44.7181 31.7192C44.5723 31.7849 44.4133 31.816 44.2536 31.8101H38.2722C37.9753 31.7738 37.6992 31.6388 37.4882 31.4267C37.3679 31.5563 37.2224 31.66 37.0606 31.7315C36.8762 31.8114 36.6767 31.8508 36.4757 31.847C36.3363 31.8478 36.1972 31.8347 36.0604 31.8076C35.9477 31.7835 35.8374 31.749 35.7311 31.7044C35.6447 31.6641 35.5624 31.6156 35.4854 31.5594C35.4117 31.5054 35.3478 31.4513 35.2888 31.3997C35.1931 31.5336 35.0654 31.6414 34.9172 31.7131C34.7691 31.7848 34.6053 31.8181 34.441 31.8101H33.8291C33.6682 31.8137 33.5082 31.7871 33.3572 31.7315C33.2344 31.6847 33.1248 31.6088 33.0378 31.5103C32.9505 31.411 32.8867 31.2935 32.851 31.1662C32.8103 31.0215 32.7905 30.8718 32.792 30.7214V27.1016H33.6448V30.542C33.6426 30.6328 33.6509 30.7235 33.6693 30.8124C33.6819 30.8726 33.7071 30.9295 33.7431 30.9795C33.773 31.0207 33.8151 31.0517 33.8635 31.0679C33.9193 31.0845 33.9773 31.0928 34.0355 31.0925H34.3402C34.441 31.0935 34.5397 31.0635 34.6228 31.0065C34.7097 30.9402 34.7719 30.8468 34.7998 30.7411C34.8832 30.4379 35.0063 30.147 35.1659 29.8761C35.2796 29.6849 35.4241 29.5139 35.5935 29.3698C35.7187 29.2596 35.865 29.176 36.0236 29.1241C36.1481 29.0871 36.2771 29.0673 36.4069 29.0651C36.5568 29.0629 36.7062 29.0844 36.8493 29.129C36.9769 29.1677 37.0979 29.2258 37.2081 29.301C37.3112 29.3692 37.4039 29.452 37.4833 29.5468C37.5594 29.6415 37.6245 29.7446 37.6774 29.854C37.7271 29.9609 37.7651 30.073 37.7905 30.1882C37.8153 30.2979 37.8284 30.4099 37.8298 30.5224C37.8297 30.5857 37.8247 30.649 37.815 30.7116C37.8069 30.7748 37.7938 30.8373 37.7757 30.8984L37.8544 30.9352C38.0882 31.032 38.3386 31.0821 38.5916 31.0827H43.9636C44.026 31.0843 44.0882 31.076 44.1479 31.0581C44.1965 31.0461 44.2402 31.0195 44.2732 30.9819C44.3077 30.94 44.3313 30.8902 44.3421 30.8369C44.3605 30.7614 44.3688 30.6837 44.3667 30.6059V29.763H45.2194V30.7214C45.2194 30.7804 45.2194 30.8394 45.2194 30.8984C45.3376 30.9699 45.4686 31.0175 45.6052 31.0384C45.7343 31.0621 45.8648 31.0769 45.9959 31.0827C46.05 30.9451 46.1164 30.7952 46.1975 30.6305C46.2845 30.4612 46.3813 30.2971 46.4874 30.139C46.6011 29.9713 46.7268 29.8119 46.8634 29.6623C47.0017 29.5111 47.1557 29.3752 47.3229 29.2568C47.4899 29.1377 47.6727 29.0426 47.8661 28.9742C48.0653 28.9015 48.2758 28.8649 48.4878 28.8661C48.7159 28.8604 48.9423 28.9048 49.1513 28.9963C49.3313 29.0791 49.4895 29.2028 49.6133 29.3576C49.7375 29.5186 49.8293 29.7022 49.8836 29.8982C49.942 30.1178 49.9709 30.3443 49.9696 30.5715V31.0802H52.287V27.077H53.1398L53.1299 31.7953ZM36.9697 30.7878C37.0044 30.696 37.0211 30.5984 37.0188 30.5003C37.0174 30.4165 37.0025 30.3335 36.9746 30.2545C36.9462 30.166 36.903 30.0829 36.8468 30.0088C36.7893 29.932 36.7175 29.8669 36.6355 29.8171C36.548 29.7647 36.4474 29.7383 36.3455 29.7409C36.2411 29.7413 36.1396 29.7748 36.0555 29.8368C35.9592 29.9028 35.8759 29.9861 35.8098 30.0825C35.7369 30.1951 35.6767 30.3154 35.6304 30.4413C35.578 30.5767 35.5377 30.7165 35.51 30.8591C35.5492 30.8943 35.593 30.924 35.6402 30.9475C35.7056 30.9795 35.7729 31.0074 35.8417 31.0311C35.9175 31.0559 35.9946 31.0764 36.0727 31.0925C36.1478 31.1089 36.2244 31.1172 36.3013 31.1171C36.399 31.1178 36.4964 31.1062 36.5912 31.0827C36.6733 31.0628 36.7504 31.026 36.8173 30.9746C36.8799 30.9234 36.9288 30.8575 36.9599 30.7829L36.9697 30.7878ZM49.0899 30.6256C49.0942 30.4531 49.0735 30.281 49.0284 30.1144C48.9956 29.9945 48.9387 29.8825 48.8613 29.7851C48.796 29.706 48.7114 29.645 48.6155 29.6082C48.5177 29.5734 48.4146 29.5559 48.3108 29.5566C48.1556 29.5589 48.0035 29.6004 47.8685 29.677C47.7104 29.7648 47.5662 29.8758 47.4409 30.0063C47.3015 30.1526 47.178 30.3132 47.0723 30.4855C46.9619 30.6694 46.8697 30.8637 46.7971 31.0655H49.0948L49.0899 30.6256ZM53.9654 31.7855H54.8182V27.0746H53.9654V31.7855ZM75.0995 32.8889C75.1214 32.8368 75.1323 32.7808 75.1315 32.7243C75.1323 32.6678 75.1214 32.6117 75.0995 32.5596C75.0777 32.5102 75.0469 32.4652 75.0087 32.4269C74.9712 32.3884 74.9259 32.3582 74.8759 32.3384C74.8241 32.3155 74.768 32.3038 74.7113 32.304C74.6554 32.3038 74.6001 32.3155 74.5491 32.3384C74.4991 32.3582 74.4539 32.3884 74.4164 32.4269C74.3782 32.4652 74.3474 32.5102 74.3255 32.5596C74.3036 32.6117 74.2927 32.6678 74.2935 32.7243C74.2927 32.7808 74.3036 32.8368 74.3255 32.8889C74.3474 32.9384 74.3782 32.9833 74.4164 33.0216C74.4545 33.0594 74.4996 33.0894 74.5491 33.1101C74.6001 33.133 74.6554 33.1448 74.7113 33.1445C74.768 33.1447 74.8241 33.133 74.8759 33.1101C74.9254 33.0894 74.9705 33.0594 75.0087 33.0216C75.0469 32.9833 75.0777 32.9384 75.0995 32.8889ZM78.4171 31.3727C78.3226 31.5072 78.1955 31.6155 78.0476 31.6873C77.8997 31.7591 77.7359 31.792 77.5718 31.7831H68.0417C67.8523 31.7871 67.6634 31.7622 67.4814 31.7093C67.3372 31.6636 67.2 31.5983 67.0735 31.5152C67.0282 31.5649 66.9761 31.6079 66.9187 31.643C66.8786 31.668 66.8367 31.6902 66.7934 31.7093C66.6609 31.7598 66.5198 31.784 66.378 31.7806H65.7219C65.5325 31.7846 65.3436 31.7598 65.1616 31.7069C65.0174 31.6612 64.8801 31.5959 64.7537 31.5127C64.6731 31.597 64.576 31.6639 64.4686 31.7093C64.3352 31.7596 64.1934 31.7838 64.0508 31.7806H63.9059C63.7072 31.7837 63.5094 31.753 63.321 31.6897C63.1576 31.6319 63.0041 31.549 62.8663 31.4439C62.7891 31.5483 62.688 31.6325 62.5714 31.6897C62.4267 31.7557 62.2685 31.7868 62.1095 31.7806H61.9669C61.8239 31.7821 61.6811 31.7664 61.5418 31.7339C61.4161 31.7039 61.2942 31.6603 61.1781 31.6037C61.1368 31.8322 61.0579 32.0522 60.9446 32.2549C60.8348 32.4487 60.6907 32.621 60.5195 32.7636C60.34 32.9078 60.1361 33.0185 59.9174 33.0904C59.67 33.1712 59.4109 33.2102 59.1507 33.2059C58.8379 33.2128 58.5265 33.1628 58.2316 33.0585C57.9917 32.9708 57.7724 32.8344 57.5877 32.6579C57.421 32.4948 57.2926 32.2967 57.2118 32.078C57.1319 31.8573 57.0911 31.6245 57.0913 31.3899C57.0927 31.2787 57.1026 31.1678 57.1208 31.0581C57.1438 30.9349 57.175 30.8134 57.2142 30.6944C57.2568 30.5667 57.3078 30.442 57.3666 30.3209C57.4159 30.2111 57.4734 30.1051 57.5386 30.0039L58.2193 30.3848C58.1799 30.448 58.1462 30.5146 58.1186 30.5838C58.0881 30.6588 58.0635 30.7361 58.0448 30.8148C58.0252 30.8958 58.0105 30.9778 58.0006 31.0606C57.989 31.142 57.9832 31.2241 57.9834 31.3063C57.9824 31.4636 58.0116 31.6196 58.0694 31.7659C58.1254 31.9049 58.209 32.0312 58.3152 32.1369C58.4211 32.243 58.5473 32.3266 58.6863 32.3827C58.8426 32.4446 59.0097 32.4747 59.1777 32.4711C59.3478 32.4849 59.5188 32.4605 59.6782 32.3997C59.8377 32.3389 59.9816 32.2433 60.0993 32.1197C60.315 31.8337 60.4206 31.4795 60.3966 31.122C60.3959 31.0463 60.3901 30.9708 60.3794 30.8959C60.3794 30.805 60.3499 30.7067 60.3278 30.6035C60.3057 30.5003 60.2762 30.3921 60.2442 30.284C60.2121 30.1777 60.1735 30.0735 60.1287 29.9719L60.9594 29.7262L61.0405 29.9867C61.0675 30.08 61.0945 30.1759 61.1216 30.2766C61.1486 30.3774 61.1683 30.4806 61.1879 30.5838C61.2076 30.687 61.2223 30.7878 61.2346 30.8861C61.4229 30.9877 61.6326 31.0432 61.8465 31.0483C61.9089 31.0501 61.9711 31.0418 62.0308 31.0237C62.0794 31.0117 62.1231 30.9851 62.1562 30.9475C62.1914 30.9057 62.2159 30.856 62.2274 30.8025C62.2437 30.7266 62.2511 30.6491 62.2496 30.5715V29.4337H63.1023V30.687C63.1023 30.7141 63.1023 30.7411 63.1023 30.7681C63.1023 30.7952 63.1023 30.8222 63.1023 30.8468C63.2143 30.9097 63.333 30.96 63.4562 30.9967C63.5653 31.03 63.6787 31.0474 63.7928 31.0483C63.856 31.0501 63.919 31.0418 63.9796 31.0237C64.0281 31.0117 64.0718 30.9851 64.1049 30.9475C64.1392 30.9051 64.1636 30.8556 64.1762 30.8025C64.1924 30.7266 64.1999 30.6491 64.1983 30.5715V29.0921H65.051V30.6993C65.051 30.7386 65.051 30.778 65.051 30.8148C65.051 30.8517 65.051 30.891 65.051 30.9279C65.1624 30.9738 65.2786 31.0068 65.3975 31.0262C65.5249 31.049 65.654 31.0605 65.7834 31.0606H66.1569C66.2192 31.0622 66.2815 31.0539 66.3412 31.036C66.3898 31.0239 66.4335 30.9974 66.4665 30.9598C66.5009 30.9174 66.5252 30.8679 66.5378 30.8148C66.5541 30.7389 66.5614 30.6614 66.5599 30.5838V27.0574H67.4078V30.6993C67.4078 30.7386 67.4078 30.778 67.4078 30.8148C67.4078 30.8517 67.4078 30.891 67.4078 30.9279C67.5191 30.9738 67.6353 31.0068 67.7542 31.0262C67.8816 31.049 68.0107 31.0605 68.1401 31.0606H75.4141C75.3816 30.994 75.3545 30.925 75.3331 30.8541C75.3058 30.7742 75.286 30.692 75.2741 30.6084C75.2544 30.4855 75.2348 30.3626 75.2102 30.2422C75.1863 30.1274 75.1483 30.016 75.0971 29.9105C75.0498 29.8141 74.9809 29.73 74.8956 29.6647C74.7997 29.5989 74.685 29.5662 74.5688 29.5713C74.5221 29.5713 74.4656 29.5713 74.4017 29.5713L74.1928 29.6008C74.119 29.6156 74.0453 29.6328 73.9692 29.6549C73.8965 29.6754 73.8251 29.7 73.7553 29.7286V29.0921C73.9077 29.0455 74.0601 29.0061 74.2149 28.9717C74.3845 28.9356 74.5575 28.9182 74.7309 28.9201C74.9033 28.9178 75.0747 28.9461 75.2372 29.0037C75.377 29.0554 75.5049 29.1348 75.6132 29.2371C75.7164 29.3397 75.7997 29.4605 75.8589 29.5935C75.9245 29.7373 75.97 29.8894 75.9941 30.0456C76.0138 30.1808 76.0334 30.311 76.0555 30.4339C76.0776 30.5568 76.0998 30.6674 76.1243 30.7608C76.1448 30.8413 76.1771 30.9183 76.2202 30.9893C76.2321 31.014 76.2505 31.0351 76.2734 31.0502C76.2964 31.0654 76.323 31.0741 76.3504 31.0753H76.7903C77.1394 31.0759 77.488 31.0471 77.8323 30.9893C77.9191 30.923 77.9814 30.8296 78.0092 30.7239C78.0921 30.4213 78.2152 30.1312 78.3754 29.8613C78.4699 29.6679 78.5952 29.4912 78.7464 29.3379C78.8716 29.2276 79.0179 29.144 79.1765 29.0921C79.3002 29.0554 79.4284 29.0355 79.5574 29.0332C79.7081 29.0307 79.8583 29.0523 80.0022 29.0971C80.1297 29.1363 80.2506 29.1943 80.361 29.2691C80.4641 29.3373 80.5568 29.42 80.6362 29.5148C80.711 29.61 80.7752 29.713 80.8279 29.822C80.8791 29.9286 80.9178 30.0408 80.9434 30.1562C80.9674 30.266 80.9798 30.378 80.9803 30.4904C80.9807 30.6583 80.9507 30.8248 80.8918 30.9819C80.8339 31.1374 80.7462 31.2802 80.6337 31.4022C80.5149 31.527 80.3719 31.6265 80.2135 31.6946C80.0308 31.7713 79.8342 31.8089 79.6361 31.8052C79.4975 31.8059 79.3591 31.7928 79.2232 31.7659C79.1104 31.7418 79.0002 31.7072 78.8939 31.6626C78.8075 31.6224 78.7252 31.5738 78.6482 31.5177C78.579 31.468 78.5125 31.4147 78.4491 31.3579L78.4171 31.3727ZM78.8202 30.4265C78.7678 30.562 78.7275 30.7018 78.6998 30.8443C78.739 30.8795 78.7828 30.9093 78.83 30.9328C78.8949 30.9657 78.9623 30.9937 79.0315 31.0163C79.1073 31.0412 79.1844 31.0617 79.2625 31.0778C79.3368 31.0941 79.4126 31.1023 79.4886 31.1023C79.5871 31.1031 79.6853 31.0916 79.781 31.0679C79.8625 31.0486 79.9389 31.0117 80.0047 30.9598C80.0687 30.9094 80.1186 30.8434 80.1496 30.7681C80.1843 30.6763 80.201 30.5787 80.1988 30.4806C80.1971 30.3969 80.1822 30.3139 80.1545 30.2349C80.1262 30.1463 80.083 30.0632 80.0268 29.9891C79.9692 29.9123 79.8975 29.8473 79.8155 29.7974C79.728 29.7451 79.6273 29.7187 79.5254 29.7213C79.421 29.7216 79.3195 29.7552 79.2355 29.8171C79.1391 29.8832 79.0558 29.9665 78.9897 30.0628C78.9159 30.1749 78.8556 30.2953 78.8103 30.4216" fill="#002554"/>
<path d="M12.4936 9.24736V15.8039C12.4941 16.1929 12.4167 16.5782 12.266 16.9369C12.1154 17.2957 11.8945 17.6206 11.6163 17.8927C11.3401 18.1671 11.0116 18.3831 10.6502 18.5279C10.2888 18.6728 9.90198 18.7434 9.51273 18.7356C8.73655 18.7131 7.99995 18.388 7.46037 17.8296C6.92079 17.2712 6.62105 16.5238 6.62522 15.7473V14.1524C6.62522 12.8489 6.10739 11.5988 5.18567 10.6771C4.26394 9.75535 3.01383 9.23753 1.71031 9.23753H0.990265V15.7056C0.984244 17.9769 1.87467 20.159 3.46809 21.7777C5.06151 23.3964 7.22923 24.3211 9.50043 24.3509H9.5496C10.6704 24.3562 11.7812 24.1396 12.8179 23.7137C13.8546 23.2877 14.7968 22.6607 15.59 21.8689C16.3927 21.0763 17.0295 20.1318 17.4632 19.0905C17.8969 18.0491 18.1189 16.9319 18.1163 15.8039V14.1524C18.1163 12.8489 17.5985 11.5988 16.6767 10.6771C15.755 9.75535 14.5049 9.23753 13.2014 9.23753L12.4936 9.24736ZM7.35754 5.31543C7.39423 5.85432 7.62473 6.36171 8.00643 6.74386C8.38813 7.12602 8.89524 7.35711 9.43408 7.39444C9.75042 7.41463 10.0674 7.3672 10.364 7.25529C10.6606 7.14338 10.9299 6.96956 11.1541 6.74542C11.3782 6.52128 11.552 6.25195 11.6639 5.95538C11.7758 5.65881 11.8233 5.3418 11.8031 5.02546C11.7668 4.48665 11.5364 3.97927 11.1546 3.59742C10.7727 3.21557 10.2653 2.98515 9.72653 2.9489C9.67738 2.9489 9.62824 2.9489 9.58155 2.9489C9.2779 2.95063 8.97782 3.01437 8.69969 3.13623C8.42157 3.25809 8.17127 3.43549 7.96416 3.65755C7.75706 3.87961 7.59749 4.14165 7.49529 4.42758C7.39309 4.71352 7.35042 5.01732 7.36984 5.32035L7.35754 5.31543ZM65.7688 5.32035C65.8055 5.85962 66.0364 6.36733 66.4186 6.74954C66.8008 7.13175 67.3085 7.36259 67.8478 7.39935C68.164 7.41958 68.481 7.37216 68.7774 7.26023C69.0739 7.1483 69.3431 6.97444 69.567 6.75025C69.791 6.52606 69.9645 6.2567 70.0762 5.96013C70.1878 5.66355 70.2349 5.34659 70.2143 5.03037C70.1791 4.49121 69.949 3.98325 69.567 3.60119C69.1849 3.21914 68.677 2.98904 68.1378 2.95382C68.0886 2.95382 68.0395 2.95382 67.9928 2.95382C67.6882 2.95422 67.3869 3.01698 67.1075 3.13822C66.8281 3.25946 66.5765 3.43662 66.3681 3.65878C66.1598 3.88095 65.9992 4.14341 65.8961 4.43001C65.793 4.71662 65.7497 5.02128 65.7688 5.32526V5.32035ZM75.6846 9.23507H60.3157C58.9025 9.23507 57.5471 9.79631 56.5476 10.7954C55.548 11.7945 54.9861 13.1496 54.9855 14.5628C54.9855 14.5628 54.9855 15.9366 54.9855 16.0373H52.4076C52.3787 14.7752 51.857 13.5746 50.954 12.6923C50.0511 11.81 48.8386 11.3162 47.5762 11.3165H46.7997V15.1895C46.7766 15.4187 46.6693 15.6312 46.4987 15.786C46.328 15.9408 46.1061 16.0268 45.8757 16.0275H43.8581C43.7361 14.0244 42.8546 12.1433 41.3933 10.7679C39.932 9.39247 38.001 8.62629 35.9943 8.62563C33.9875 8.62629 32.0565 9.39247 30.5952 10.7679C29.134 12.1433 28.2524 14.0244 28.1304 16.0275H26.0072C25.5919 16.0275 25.4592 15.9267 25.4272 15.8948C25.3953 15.8628 25.297 15.7572 25.297 15.1575V5.89294C25.297 4.58942 24.7791 3.33929 23.8574 2.41757C22.9357 1.49584 21.6856 0.978027 20.3821 0.978027H19.662V16.5779C19.662 18.0524 19.9938 19.1607 20.645 19.898C21.2962 20.6352 22.4021 21.0505 23.8618 21.0505H26.9852C27.183 21.0521 27.3807 21.043 27.5775 21.0235L27.8232 21.0038C28.2563 20.9689 28.6837 20.8823 29.0962 20.7458C29.1724 20.7188 29.251 20.6917 29.3272 20.6598C30.0333 21.7916 31.0168 22.7242 32.1845 23.3693C33.3521 24.0144 34.6652 24.3506 35.9992 24.346C37.4565 24.3485 38.8858 23.9461 40.1277 23.1836L40.2285 23.1197L40.339 23.0509C41.3207 22.4364 42.1534 21.6113 42.7768 20.6352C42.853 20.6647 42.9292 20.6942 43.0079 20.7188C43.323 20.8236 43.6471 20.8992 43.9761 20.9448C44.1137 20.967 44.2513 20.9842 44.3914 20.9965C44.7158 21.021 45.0475 21.0358 45.3744 21.0407H46.5539C47.3305 21.0407 47.8441 21.0137 48.3995 20.9621C48.8594 20.9237 49.3059 20.788 49.7093 20.5639C50.1137 20.788 50.5609 20.9237 51.0216 20.9621C51.577 21.0137 52.2503 21.0407 53.0244 21.0407H75.6797C77.0929 21.0407 78.4483 20.4795 79.4478 19.4804C80.4474 18.4813 81.0093 17.1262 81.0099 15.7129V14.5161C81.0008 13.1072 80.4342 11.7591 79.434 10.7667C78.4338 9.77434 77.0813 9.21835 75.6723 9.22033L75.6846 9.23507ZM39.4101 16.7377C39.3538 17.5603 39.0014 18.3347 38.4181 18.9175C37.8349 19.5003 37.0602 19.8521 36.2376 19.9078C36.1638 19.9078 36.0901 19.9078 36.0164 19.9078C35.5513 19.9074 35.0913 19.8117 34.6647 19.6265C34.2381 19.4414 33.854 19.1707 33.5362 18.8312C33.2183 18.4917 32.9735 18.0906 32.8168 17.6528C32.6601 17.2149 32.5948 16.7496 32.6251 16.2855C32.6803 15.4629 33.0321 14.6883 33.6151 14.1053C34.198 13.5224 34.9726 13.1706 35.7952 13.1154C36.2763 13.0863 36.7581 13.1597 37.2087 13.3308C37.6594 13.5018 38.0685 13.7667 38.4091 14.1077C38.7497 14.4488 39.014 14.8583 39.1844 15.3091C39.3549 15.76 39.4276 16.2419 39.3978 16.7229L39.4101 16.7377ZM75.085 16.6124H60.994C60.6079 16.6124 60.2376 16.4592 59.9644 16.1864C59.6911 15.9136 59.5374 15.5436 59.5367 15.1575C59.5367 14.771 59.6902 14.4004 59.9635 14.1271C60.2368 13.8538 60.6075 13.7003 60.994 13.7003H75.085C75.4715 13.7003 75.8422 13.8538 76.1155 14.1271C76.3888 14.4004 76.5423 14.771 76.5423 15.1575C76.5377 15.5432 76.3805 15.9113 76.105 16.1812C75.8296 16.4512 75.4584 16.6009 75.0727 16.5976L75.085 16.6124Z" fill="url(#paint0_linear_6563_10620)"/>
<defs>
<linearGradient id="paint0_linear_6563_10620" x1="1.00009" y1="12.6878" x2="81.0025" y2="12.6878" gradientUnits="userSpaceOnUse">
<stop offset="0.15" stop-color="#005EB8"/>
<stop offset="0.51" stop-color="#2093B3"/>
<stop offset="0.8" stop-color="#40C1AC"/>
</linearGradient>
</defs>
</svg>
