<?xml version="1.0" encoding="utf-8"?>
<!-- Generator: Adobe Illustrator 25.4.1, SVG Export Plug-In . SVG Version: 6.00 Build 0)  -->
<svg version="1.1" id="Layer_1" xmlns="http://www.w3.org/2000/svg" xmlns:xlink="http://www.w3.org/1999/xlink" x="0px" y="0px"
	 viewBox="0 0 516.6 174.4" style="enable-background:new 0 0 516.6 174.4;" xml:space="preserve">
<style type="text/css">
	.st0{fill:#24477E;}
	.st1{fill:#FFFFFF;}
	.st2{fill:#3085C7;}
	.st3{fill:#00BBBC;}
	.st4{fill:none;}
</style>
<g>
	<g>
		<g>
			<path class="st0" d="M2.4,99.9h3.9v7.5h7.2v-7.5h3.9v19.5h-3.9V111H6.3v8.4H2.4V99.9z"/>
			<path class="st0" d="M32.4,119.4H29v-2h-0.1c-0.4,0.8-1,1.4-1.7,1.8c-0.7,0.4-1.4,0.6-2.2,0.6c-0.9,0-1.7-0.1-2.3-0.4
				c-0.6-0.3-1.1-0.7-1.4-1.2c-0.3-0.5-0.6-1.1-0.7-1.8c-0.1-0.7-0.2-1.5-0.2-2.4v-8.7h3.5v8c0,1.2,0.2,2,0.5,2.6s0.9,0.9,1.7,0.9
				c1,0,1.7-0.3,2.1-0.9c0.4-0.6,0.6-1.7,0.6-3.1v-7.5h3.5v14.1H32.4z"/>
			<path class="st0" d="M35.2,105.3h3.3v1.9l0,0c0.5-0.7,1-1.3,1.7-1.7s1.4-0.6,2.2-0.6c0.8,0,1.6,0.2,2.2,0.5
				c0.7,0.4,1.2,1,1.5,1.8c0.4-0.6,0.9-1.2,1.6-1.6c0.7-0.5,1.4-0.7,2.3-0.7c0.7,0,1.3,0.1,1.9,0.3s1.1,0.5,1.5,0.9s0.7,0.9,1,1.6
				c0.2,0.6,0.3,1.4,0.3,2.3v9.4h-3.5v-8c0-0.5,0-0.9,0-1.3c0-0.4-0.1-0.8-0.3-1.1c-0.1-0.3-0.4-0.6-0.7-0.7
				c-0.3-0.2-0.7-0.3-1.2-0.3s-0.9,0.1-1.2,0.3c-0.3,0.2-0.5,0.5-0.7,0.8s-0.3,0.7-0.3,1.1c-0.1,0.4-0.1,0.9-0.1,1.3v7.9h-3.5v-7.9
				c0-0.4,0-0.8,0-1.2s-0.1-0.8-0.2-1.1s-0.3-0.6-0.6-0.8c-0.3-0.2-0.7-0.3-1.3-0.3c-0.2,0-0.4,0-0.7,0.1c-0.3,0.1-0.5,0.2-0.8,0.5
				c-0.3,0.2-0.5,0.6-0.7,1s-0.3,1-0.3,1.7v8.2h-3.5L35.2,105.3L35.2,105.3z"/>
			<path class="st0" d="M57.4,109.6c0-0.9,0.3-1.7,0.6-2.3c0.4-0.6,0.8-1.1,1.4-1.4c0.6-0.4,1.2-0.6,1.9-0.8
				c0.7-0.2,1.4-0.2,2.1-0.2c0.6,0,1.3,0,2,0.1s1.3,0.3,1.8,0.6s1,0.7,1.3,1.2s0.5,1.2,0.5,2v7.3c0,0.6,0,1.2,0.1,1.8s0.2,1,0.3,1.3
				h-3.6c-0.1-0.2-0.1-0.4-0.2-0.7c0-0.2-0.1-0.5-0.1-0.7c-0.6,0.6-1.2,1.1-2,1.4c-0.8,0.3-1.5,0.4-2.3,0.4c-0.6,0-1.2-0.1-1.7-0.3
				s-1-0.4-1.4-0.8c-0.4-0.3-0.7-0.8-0.9-1.3c-0.2-0.5-0.3-1.2-0.3-1.9c0-0.8,0.1-1.5,0.4-2s0.6-0.9,1-1.2s0.9-0.5,1.4-0.7
				s1.1-0.3,1.6-0.4c0.5-0.1,1.1-0.2,1.6-0.2c0.5-0.1,0.9-0.1,1.3-0.2c0.4-0.1,0.7-0.3,0.9-0.5c0.2-0.2,0.3-0.5,0.3-0.9
				s-0.1-0.8-0.2-1s-0.3-0.4-0.5-0.6c-0.2-0.1-0.4-0.2-0.7-0.3c-0.3,0-0.6-0.1-0.9-0.1c-0.7,0-1.2,0.2-1.6,0.5s-0.6,0.9-0.7,1.6
				h-3.4V109.6z M65.6,112.5c-0.1,0.1-0.3,0.3-0.6,0.3c-0.2,0.1-0.5,0.1-0.7,0.2c-0.3,0.1-0.5,0.1-0.8,0.1s-0.6,0.1-0.8,0.1
				c-0.3,0.1-0.5,0.1-0.8,0.2c-0.2,0.1-0.5,0.2-0.7,0.4s-0.3,0.4-0.5,0.6c-0.1,0.2-0.2,0.5-0.2,0.9s0.1,0.7,0.2,0.9s0.3,0.4,0.5,0.5
				s0.4,0.2,0.7,0.3c0.3,0.1,0.5,0.1,0.8,0.1c0.7,0,1.2-0.1,1.6-0.4c0.4-0.3,0.7-0.6,0.8-0.9c0.2-0.4,0.3-0.7,0.3-1.1
				c0-0.4,0.1-0.7,0.1-0.9L65.6,112.5L65.6,112.5z"/>
			<path class="st0" d="M71.8,105.3h3.4v2h0.1c0.4-0.8,1-1.4,1.7-1.8c0.7-0.4,1.4-0.6,2.2-0.6c0.9,0,1.7,0.1,2.3,0.4
				c0.6,0.3,1.1,0.7,1.4,1.2s0.6,1.1,0.7,1.8s0.2,1.5,0.2,2.4v8.7h-3.5v-8c0-1.2-0.2-2-0.5-2.6s-0.9-0.9-1.7-0.9
				c-1,0-1.7,0.3-2.1,0.9c-0.4,0.6-0.6,1.7-0.6,3.1v7.4h-3.5L71.8,105.3L71.8,105.3z"/>
			<path class="st0" d="M93.8,99.9h9.6c0.8,0,1.5,0.1,2.1,0.4c0.6,0.3,1.2,0.7,1.6,1.2c0.5,0.5,0.8,1.1,1,1.7
				c0.2,0.7,0.4,1.3,0.4,2.1c0,1.1-0.2,2.1-0.7,3c-0.4,0.8-1.2,1.5-2.1,1.9v0.1c0.5,0.1,0.9,0.4,1.2,0.7s0.6,0.7,0.8,1.1
				c0.2,0.4,0.3,0.9,0.4,1.4c0.1,0.5,0.2,1,0.2,1.5c0,0.3,0,0.7,0,1.1c0,0.4,0,0.8,0.1,1.3c0,0.4,0.1,0.8,0.2,1.2
				c0.1,0.4,0.2,0.7,0.4,1h-3.9c-0.1-0.3-0.2-0.7-0.3-1c-0.1-0.4-0.1-0.8-0.1-1.2s-0.1-0.8-0.1-1.3c0-0.4-0.1-0.8-0.1-1.2
				c-0.1-1-0.4-1.8-0.8-2.2c-0.4-0.5-1.1-0.7-2.1-0.7h-3.9v7.6h-3.9L93.8,99.9L93.8,99.9z M97.7,108.7h4.3c0.9,0,1.5-0.2,2-0.7
				c0.5-0.4,0.7-1.1,0.7-2.1c0-0.9-0.2-1.6-0.7-2.1c-0.5-0.4-1.1-0.6-2-0.6h-4.3V108.7z"/>
			<path class="st0" d="M115,103.1h-3.5v-3.2h3.5V103.1z M111.5,105.3h3.5v14.1h-3.5V105.3z"/>
			<path class="st0" d="M130.1,118.5c0,0.4,0,0.8-0.1,1.3s-0.2,0.9-0.3,1.4c-0.2,0.5-0.4,0.9-0.7,1.3c-0.3,0.4-0.7,0.8-1.2,1.1
				s-1.1,0.6-1.8,0.8s-1.6,0.3-2.5,0.3c-0.6,0-1.3-0.1-1.9-0.3c-0.7-0.2-1.2-0.4-1.8-0.8c-0.5-0.4-1-0.8-1.3-1.4
				c-0.4-0.6-0.6-1.3-0.6-2.1h3.5c0.2,0.7,0.5,1.2,1,1.5s1,0.4,1.7,0.4c1,0,1.7-0.3,2.2-1s0.7-1.5,0.7-2.5v-1.9l0,0
				c-0.4,0.7-0.9,1.3-1.6,1.7c-0.7,0.4-1.4,0.5-2.2,0.5c-1,0-1.8-0.2-2.5-0.6c-0.7-0.4-1.3-0.9-1.7-1.5s-0.8-1.4-1-2.3
				c-0.2-0.9-0.3-1.8-0.3-2.7s0.1-1.8,0.4-2.6c0.2-0.8,0.6-1.6,1.1-2.2c0.5-0.6,1-1.2,1.7-1.5c0.7-0.4,1.5-0.6,2.4-0.6
				c0.8,0,1.6,0.2,2.2,0.5c0.6,0.3,1.2,0.9,1.6,1.7l0,0v-1.7h3.4v13.2H130.1z M123.8,116c0.5,0,0.9-0.1,1.3-0.3
				c0.4-0.2,0.7-0.5,0.9-0.9s0.4-0.8,0.6-1.2c0.1-0.5,0.2-1,0.2-1.5c0-0.6,0-1.1-0.1-1.6s-0.3-1-0.5-1.4s-0.5-0.7-0.9-1
				c-0.4-0.2-0.9-0.4-1.4-0.4s-0.9,0.1-1.3,0.3c-0.4,0.2-0.7,0.5-0.9,0.9s-0.4,0.8-0.5,1.3s-0.2,1-0.2,1.5s0,1,0.1,1.5
				s0.2,1,0.5,1.4c0.2,0.4,0.5,0.7,0.9,1C122.8,115.9,123.2,116,123.8,116z"/>
			<path class="st0" d="M132.9,99.9h3.5v7.3h0.1c0.4-0.8,1-1.4,1.7-1.8c0.7-0.4,1.4-0.6,2-0.6c0.9,0,1.7,0.1,2.3,0.4
				c0.6,0.3,1.1,0.7,1.4,1.2s0.6,1.1,0.7,1.8c0.1,0.7,0.2,1.5,0.2,2.4v8.7h-3.5v-8c0-1.2-0.2-2-0.5-2.6s-0.9-0.9-1.7-0.9
				c-1,0-1.7,0.3-2.1,0.9c-0.4,0.6-0.6,1.7-0.6,3.1v7.4h-3.5V99.9z"/>
			<path class="st0" d="M152.1,105.3h2.6v2.6h-2.6v7c0,0.7,0.1,1.1,0.3,1.3s0.6,0.3,1.2,0.3c0.4,0,0.8,0,1.1-0.1v3
				c-0.3,0.1-0.6,0.1-1,0.1s-0.7,0-1.1,0c-0.5,0-1.1,0-1.6-0.1s-0.9-0.2-1.3-0.5c-0.4-0.2-0.7-0.6-0.9-1s-0.3-1-0.3-1.7v-8.3h-2.1
				v-2.6h2.1v-4.2h3.5v4.2H152.1z"/>
			<path class="st0" d="M159.1,114.8c0,0.4,0.1,0.8,0.2,1.1c0.2,0.3,0.4,0.5,0.6,0.7c0.2,0.2,0.5,0.3,0.9,0.4c0.3,0.1,0.7,0.1,1,0.1
				c0.2,0,0.5,0,0.8-0.1s0.5-0.2,0.7-0.3s0.4-0.3,0.6-0.5c0.1-0.2,0.2-0.5,0.2-0.9c0-0.3-0.1-0.5-0.3-0.8c-0.2-0.2-0.4-0.4-0.8-0.6
				c-0.3-0.2-0.8-0.3-1.3-0.5c-0.5-0.1-1.1-0.3-1.7-0.4c-0.5-0.1-1-0.3-1.5-0.5s-0.9-0.4-1.3-0.7c-0.4-0.3-0.7-0.6-0.9-1.1
				c-0.2-0.4-0.3-1-0.3-1.6c0-0.9,0.2-1.6,0.5-2.2c0.3-0.6,0.7-1.1,1.3-1.4c0.5-0.3,1.1-0.6,1.8-0.7c0.7-0.1,1.3-0.2,2-0.2
				s1.4,0.1,2,0.2c0.7,0.1,1.2,0.4,1.8,0.7c0.5,0.3,0.9,0.8,1.3,1.4c0.3,0.6,0.5,1.3,0.6,2.2h-3.4c0-0.7-0.3-1.3-0.8-1.5
				c-0.5-0.3-1-0.4-1.6-0.4c-0.2,0-0.4,0-0.6,0c-0.2,0-0.4,0.1-0.6,0.2c-0.2,0.1-0.4,0.2-0.5,0.4s-0.2,0.4-0.2,0.7s0.1,0.6,0.3,0.8
				s0.5,0.4,0.9,0.5s0.8,0.3,1.3,0.4c0.5,0.1,1,0.2,1.5,0.4c0.5,0.1,1,0.3,1.5,0.5s0.9,0.4,1.3,0.7c0.4,0.3,0.7,0.7,0.9,1.1
				s0.3,1,0.3,1.7c0,0.9-0.2,1.7-0.5,2.3s-0.8,1.1-1.3,1.5s-1.2,0.7-1.9,0.8c-0.7,0.2-1.4,0.2-2.1,0.2c-0.7,0-1.5-0.1-2.2-0.2
				c-0.7-0.2-1.3-0.4-1.9-0.8c-0.6-0.4-1-0.9-1.4-1.5s-0.6-1.4-0.6-2.3h3.4V114.8z"/>
			<path class="st0" d="M188.8,106.4c-0.1-0.5-0.2-0.9-0.4-1.4c-0.2-0.4-0.5-0.8-0.9-1.1s-0.7-0.6-1.2-0.7c-0.4-0.2-0.9-0.3-1.4-0.3
				c-0.9,0-1.6,0.2-2.2,0.6c-0.6,0.4-1.1,0.9-1.5,1.5s-0.7,1.3-0.8,2.1c-0.2,0.8-0.3,1.6-0.3,2.5c0,0.8,0.1,1.6,0.3,2.4
				c0.2,0.8,0.5,1.5,0.8,2.1c0.4,0.6,0.9,1.1,1.5,1.5s1.4,0.6,2.2,0.6c1.2,0,2.1-0.4,2.8-1.2s1.1-1.9,1.2-3.2h3.8
				c-0.1,1.2-0.4,2.3-0.8,3.3s-1,1.8-1.6,2.5c-0.7,0.7-1.5,1.2-2.4,1.6c-0.9,0.4-1.9,0.6-3,0.6c-1.4,0-2.6-0.3-3.7-0.8
				c-1.1-0.5-2-1.2-2.7-2.2c-0.7-0.9-1.3-2-1.7-3.2s-0.6-2.6-0.6-4s0.2-2.8,0.6-4c0.4-1.3,1-2.3,1.7-3.3s1.7-1.7,2.7-2.2
				c1.1-0.5,2.3-0.8,3.7-0.8c1,0,1.9,0.2,2.8,0.5c0.9,0.3,1.6,0.8,2.3,1.4c0.7,0.6,1.3,1.3,1.7,2.2s0.7,1.9,0.8,3L188.8,106.4
				L188.8,106.4z"/>
			<path class="st0" d="M194.6,112.3c0-1.1,0.2-2.2,0.5-3.1s0.8-1.7,1.3-2.3c0.6-0.6,1.3-1.1,2.1-1.5s1.7-0.5,2.7-0.5
				s1.9,0.2,2.7,0.5c0.8,0.4,1.5,0.9,2.1,1.5s1,1.4,1.3,2.3c0.3,0.9,0.5,1.9,0.5,3.1c0,1.1-0.2,2.1-0.5,3.1
				c-0.3,0.9-0.8,1.7-1.3,2.3c-0.6,0.6-1.3,1.1-2.1,1.5s-1.7,0.5-2.7,0.5s-1.9-0.2-2.7-0.5c-0.8-0.4-1.5-0.9-2.1-1.5s-1-1.4-1.3-2.3
				S194.6,113.5,194.6,112.3z M198.1,112.3c0,0.6,0,1.1,0.1,1.7c0.1,0.5,0.3,1,0.5,1.4s0.6,0.8,1,1c0.4,0.3,0.9,0.4,1.5,0.4
				s1.1-0.1,1.5-0.4c0.4-0.3,0.7-0.6,1-1s0.4-0.9,0.5-1.4s0.1-1.1,0.1-1.7c0-0.6,0-1.1-0.1-1.7c-0.1-0.5-0.3-1-0.5-1.4s-0.6-0.8-1-1
				c-0.4-0.3-0.9-0.4-1.5-0.4s-1.1,0.1-1.5,0.4c-0.4,0.3-0.7,0.6-1,1c-0.2,0.4-0.4,0.9-0.5,1.4C198.2,111.2,198.1,111.8,198.1,112.3
				z"/>
			<path class="st0" d="M210.3,105.3h3.3v1.9l0,0c0.5-0.7,1-1.3,1.7-1.7s1.4-0.6,2.2-0.6c0.8,0,1.6,0.2,2.2,0.5s1.2,1,1.5,1.8
				c0.4-0.6,0.9-1.2,1.6-1.6c0.7-0.5,1.4-0.7,2.3-0.7c0.7,0,1.3,0.1,1.9,0.3s1.1,0.5,1.5,0.9s0.7,0.9,1,1.6c0.2,0.6,0.3,1.4,0.3,2.3
				v9.4h-3.5v-8c0-0.5,0-0.9,0-1.3c0-0.4-0.1-0.8-0.3-1.1c-0.1-0.3-0.4-0.6-0.7-0.7c-0.3-0.2-0.7-0.3-1.2-0.3s-0.9,0.1-1.2,0.3
				c-0.3,0.2-0.5,0.5-0.7,0.8s-0.3,0.7-0.3,1.1c-0.1,0.4-0.1,0.9-0.1,1.3v7.9h-3.5v-7.9c0-0.4,0-0.8,0-1.2s-0.1-0.8-0.2-1.1
				s-0.3-0.6-0.6-0.8c-0.3-0.2-0.7-0.3-1.3-0.3c-0.2,0-0.4,0-0.7,0.1s-0.5,0.2-0.8,0.5c-0.3,0.2-0.5,0.6-0.7,1s-0.3,1-0.3,1.7v8.2
				h-3.5v-14.3H210.3z"/>
			<path class="st0" d="M232.8,105.3h3.3v1.9l0,0c0.5-0.7,1-1.3,1.7-1.7s1.4-0.6,2.2-0.6c0.8,0,1.6,0.2,2.2,0.5
				c0.7,0.4,1.2,1,1.5,1.8c0.4-0.6,0.9-1.2,1.6-1.6c0.7-0.5,1.4-0.7,2.3-0.7c0.7,0,1.3,0.1,1.9,0.3s1.1,0.5,1.5,0.9s0.7,0.9,1,1.6
				c0.2,0.6,0.3,1.4,0.3,2.3v9.4h-3.5v-8c0-0.5,0-0.9,0-1.3c0-0.4-0.1-0.8-0.3-1.1c-0.1-0.3-0.4-0.6-0.7-0.7
				c-0.3-0.2-0.7-0.3-1.2-0.3s-0.9,0.1-1.2,0.3c-0.3,0.2-0.5,0.5-0.7,0.8s-0.3,0.7-0.3,1.1c-0.1,0.4-0.1,0.9-0.1,1.3v7.9h-3.5v-7.9
				c0-0.4,0-0.8,0-1.2s-0.1-0.8-0.2-1.1s-0.3-0.6-0.6-0.8c-0.3-0.2-0.7-0.3-1.3-0.3c-0.2,0-0.4,0-0.7,0.1c-0.3,0.1-0.5,0.2-0.8,0.5
				c-0.3,0.2-0.5,0.6-0.7,1s-0.3,1-0.3,1.7v8.2h-3.5v-14.3H232.8z"/>
			<path class="st0" d="M258.8,103.1h-3.5v-3.2h3.5V103.1z M255.3,105.3h3.5v14.1h-3.5V105.3z"/>
			<path class="st0" d="M264.3,114.8c0,0.4,0.1,0.8,0.2,1.1c0.2,0.3,0.4,0.5,0.6,0.7s0.5,0.3,0.9,0.4c0.3,0.1,0.7,0.1,1,0.1
				c0.2,0,0.5,0,0.8-0.1s0.5-0.2,0.7-0.3s0.4-0.3,0.6-0.5c0.1-0.2,0.2-0.5,0.2-0.9c0-0.3-0.1-0.5-0.3-0.8c-0.2-0.2-0.4-0.4-0.8-0.6
				c-0.3-0.2-0.8-0.3-1.3-0.5c-0.5-0.1-1.1-0.3-1.7-0.4c-0.5-0.1-1-0.3-1.5-0.5s-0.9-0.4-1.3-0.7s-0.7-0.6-0.9-1.1
				c-0.2-0.4-0.3-1-0.3-1.6c0-0.9,0.2-1.6,0.5-2.2c0.3-0.6,0.7-1.1,1.3-1.4c0.5-0.3,1.1-0.6,1.8-0.7c0.7-0.1,1.3-0.2,2-0.2
				s1.4,0.1,2,0.2c0.7,0.1,1.2,0.4,1.8,0.7c0.5,0.3,0.9,0.8,1.3,1.4c0.3,0.6,0.5,1.3,0.6,2.2h-3.4c0-0.7-0.3-1.3-0.8-1.5
				c-0.5-0.3-1-0.4-1.6-0.4c-0.2,0-0.4,0-0.6,0s-0.4,0.1-0.6,0.2c-0.2,0.1-0.4,0.2-0.5,0.4s-0.2,0.4-0.2,0.7s0.1,0.6,0.3,0.8
				c0.2,0.2,0.5,0.4,0.9,0.5s0.8,0.3,1.3,0.4c0.5,0.1,1,0.2,1.5,0.4c0.5,0.1,1,0.3,1.5,0.5s0.9,0.4,1.3,0.7s0.7,0.7,0.9,1.1
				c0.2,0.4,0.3,1,0.3,1.7c0,0.9-0.2,1.7-0.5,2.3s-0.8,1.1-1.3,1.5s-1.2,0.7-1.9,0.8c-0.7,0.2-1.4,0.2-2.1,0.2s-1.5-0.1-2.2-0.2
				c-0.7-0.2-1.3-0.4-1.9-0.8c-0.6-0.4-1-0.9-1.4-1.5s-0.6-1.4-0.6-2.3h3.4V114.8z"/>
			<path class="st0" d="M277.6,114.8c0,0.4,0.1,0.8,0.2,1.1c0.2,0.3,0.4,0.5,0.6,0.7s0.5,0.3,0.9,0.4c0.3,0.1,0.7,0.1,1,0.1
				c0.2,0,0.5,0,0.8-0.1s0.5-0.2,0.7-0.3s0.4-0.3,0.6-0.5c0.1-0.2,0.2-0.5,0.2-0.9c0-0.3-0.1-0.5-0.3-0.8c-0.2-0.2-0.4-0.4-0.8-0.6
				c-0.3-0.2-0.8-0.3-1.3-0.5c-0.5-0.1-1.1-0.3-1.7-0.4c-0.5-0.1-1-0.3-1.5-0.5s-0.9-0.4-1.3-0.7s-0.7-0.6-0.9-1.1
				c-0.2-0.4-0.3-1-0.3-1.6c0-0.9,0.2-1.6,0.5-2.2c0.3-0.6,0.7-1.1,1.3-1.4c0.5-0.3,1.1-0.6,1.8-0.7c0.7-0.1,1.3-0.2,2-0.2
				s1.4,0.1,2,0.2c0.7,0.1,1.2,0.4,1.8,0.7c0.5,0.3,0.9,0.8,1.3,1.4s0.5,1.3,0.6,2.2h-3.4c0-0.7-0.3-1.3-0.8-1.5
				c-0.5-0.3-1-0.4-1.6-0.4c-0.2,0-0.4,0-0.6,0s-0.4,0.1-0.6,0.2c-0.2,0.1-0.4,0.2-0.5,0.4s-0.2,0.4-0.2,0.7s0.1,0.6,0.3,0.8
				c0.2,0.2,0.5,0.4,0.9,0.5s0.8,0.3,1.3,0.4c0.5,0.1,1,0.2,1.5,0.4c0.5,0.1,1,0.3,1.5,0.5s0.9,0.4,1.3,0.7s0.7,0.7,0.9,1.1
				c0.2,0.4,0.3,1,0.3,1.7c0,0.9-0.2,1.7-0.5,2.3s-0.8,1.1-1.3,1.5s-1.2,0.7-1.9,0.8c-0.7,0.2-1.4,0.2-2.1,0.2s-1.5-0.1-2.2-0.2
				c-0.7-0.2-1.3-0.4-1.9-0.8c-0.6-0.4-1-0.9-1.4-1.5s-0.6-1.4-0.6-2.3h3.4V114.8z"/>
			<path class="st0" d="M291.8,103.1h-3.5v-3.2h3.5V103.1z M288.3,105.3h3.5v14.1h-3.5V105.3z"/>
			<path class="st0" d="M294.2,112.3c0-1.1,0.2-2.2,0.5-3.1c0.3-0.9,0.8-1.7,1.3-2.3c0.6-0.6,1.3-1.1,2.1-1.5
				c0.8-0.4,1.7-0.5,2.7-0.5s1.9,0.2,2.7,0.5c0.8,0.4,1.5,0.9,2.1,1.5s1,1.4,1.3,2.3s0.5,1.9,0.5,3.1c0,1.1-0.2,2.1-0.5,3.1
				c-0.3,0.9-0.8,1.7-1.3,2.3c-0.6,0.6-1.3,1.1-2.1,1.5c-0.8,0.4-1.7,0.5-2.7,0.5s-1.9-0.2-2.7-0.5c-0.8-0.4-1.5-0.9-2.1-1.5
				s-1-1.4-1.3-2.3S294.2,113.5,294.2,112.3z M297.7,112.3c0,0.6,0,1.1,0.1,1.7c0.1,0.5,0.3,1,0.5,1.4s0.6,0.8,1,1
				c0.4,0.3,0.9,0.4,1.5,0.4s1.1-0.1,1.5-0.4c0.4-0.3,0.7-0.6,1-1c0.2-0.4,0.4-0.9,0.5-1.4s0.1-1.1,0.1-1.7c0-0.6,0-1.1-0.1-1.7
				c-0.1-0.5-0.3-1-0.5-1.4s-0.6-0.8-1-1c-0.4-0.3-0.9-0.4-1.5-0.4s-1.1,0.1-1.5,0.4c-0.4,0.3-0.7,0.6-1,1c-0.2,0.4-0.4,0.9-0.5,1.4
				C297.8,111.2,297.7,111.8,297.7,112.3z"/>
			<path class="st0" d="M309.8,105.3h3.4v2h0.1c0.4-0.8,1-1.4,1.7-1.8c0.7-0.4,1.4-0.6,2.2-0.6c0.9,0,1.7,0.1,2.3,0.4
				c0.6,0.3,1.1,0.7,1.4,1.2s0.6,1.1,0.7,1.8s0.2,1.5,0.2,2.4v8.7h-3.5v-8c0-1.2-0.2-2-0.5-2.6s-0.9-0.9-1.7-0.9
				c-1,0-1.7,0.3-2.1,0.9c-0.4,0.6-0.6,1.7-0.6,3.1v7.4h-3.5v-14H309.8z"/>
		</g>
		<g>
			<rect x="12.3" y="52.2" class="st0" width="4.1" height="4.2"/>
			<path class="st0" d="M21.9,69.8c0,2.4-0.6,4.5-1.8,6.3c-1.5,2-3.4,3-5.7,3c-2.4,0-4.3-1-5.8-3c-1.2-1.8-1.9-3.9-1.9-6.3v-9.9H2.5
				v10.4c0,3.6,1.2,6.7,3.6,9.2c2.3,2.4,5.1,3.7,8.3,3.7c3.3,0,6.1-1.3,8.4-3.8c2.3-2.5,3.5-5.5,3.5-9V60h-4.4V69.8z"/>
			<rect x="82.8" y="52.2" class="st0" width="4.1" height="4.2"/>
			<path class="st0" d="M82.8,68.7c0,1.4-0.1,2.3-0.3,2.7c-0.4,0.8-1.3,1.2-2.7,1.2h-2.3h-1.3h-5.1c0.6-1.4,0.9-2.9,0.9-4.7v-8.1
				h-4.2v8.6c0,2.7-1.1,4.1-3.2,4.1h-4.1c0.6-0.6,0.9-2.1,0.9-4.6v-8.2h-4.2v8.6c0,2.8-1.1,4.2-3.2,4.2h-3.9v-0.2
				c0.5-0.7,0.7-2.1,0.7-4.4v-8.2h-4.2V68c0,3-1.1,4.4-3.2,4.4h-2.3h-1.6h-0.9c-1.6,0-2.7-0.2-3.2-0.6c-0.8-0.6-1.2-1.8-1.2-3.6
				V52.5H30v17.4c0,2.1,0.5,3.7,1.5,4.9c1.1,1.3,2.6,2,4.7,2h3.3h1.6h35.2h1.3h3.2c4.2,0,6.3-2.3,6.3-6.8V59.8h-4.2v8.9H82.8z"/>
			<path class="st0" d="M104.7,68.2c0,1.7-0.3,2.9-1.1,3.6c-0.6,0.6-1.4,0.8-2.6,0.8l-4.7-17.3h-4.4l4.7,17.3h-5.7v4.3h11.2
				c4.1,0,6.6-2.3,6.6-5.9V52.7h-4.1v15.5H104.7z"/>
			<path class="st0" d="M93.9,81.5c0-0.7,0.5-1.5,1.3-1.5c0.6,0,0.9,0.3,1.1,0.8l1.4-0.6c-0.5-1.2-1.3-1.7-2.4-1.7
				c-1.6,0-2.9,1.4-2.9,3.1c0,0.2,0.1,0.6,0.3,1.3h-1.5v1.7h6.5v-1.7h-3C94.1,82.6,93.9,82.1,93.9,81.5z"/>
			<rect x="112.7" y="52.7" class="st0" width="4.2" height="24.3"/>
			<rect x="139.8" y="52.2" class="st0" width="4.1" height="4.2"/>
			<rect x="146.9" y="52.2" class="st0" width="4.1" height="4.2"/>
			<path class="st0" d="M145.4,58.7c-4.8,0-7.7,3.1-7.7,8s3,8,7.8,8c1.4,0,2.6-0.3,3.6-1.1c-1.1,3.4-4.5,5.7-8.3,5.7
				c-5.2,0-8.5-3.5-8.5-9v-6.5h-4v7c0,6.9,5.4,12.3,12.6,12.3c7,0,12.4-5.4,12.4-12.3c0-2.6,0-4.1,0-4.2
				C153.3,61.6,150.2,58.7,145.4,58.7z M145.5,71.5c-2.4,0-3.9-2.1-3.9-4.9c0-2.8,1.7-4.9,3.9-4.9s3.9,2.1,3.9,5.1
				C149.4,69.6,147.9,71.5,145.5,71.5z"/>
			<rect x="191.6" y="49.4" class="st0" width="4.1" height="4.2"/>
			<rect x="184.5" y="49.4" class="st0" width="4.1" height="4.2"/>
			<path class="st0" d="M222.3,61.9c-2-1.4-4.4-2.1-7.2-2.1c-1.7,0-3.3,0.3-5,1.1c-1.5,0.7-2.9,1.6-4,2.7c0.9,1.4,1.6,2.5,2,3.3
				c0.9-1,2-1.8,3.4-2.4c1.2-0.5,2.2-0.7,3.2-0.7c2.7,0,4.9,0.9,6.5,2.9c1.3,1.7,2,3.6,2,6h-20.4h-1.5h-2.4c-1.9,0-3.1-0.2-3.5-0.4
				c1.2-0.9,2.1-2.1,2.7-3.5c0.6-1.3,0.9-2.6,0.9-4c0-5.3-4.5-8.2-8.7-8.2c-3.8,0-6.9,2.2-8.3,5.8c-0.3,0.8-0.5,1.6-0.5,2.6
				c0,1.4,0.3,2.7,0.9,3.9c0.6,1.4,1.6,2.6,2.8,3.5c-0.5,0.3-1.6,0.4-3.5,0.4h-3.4h-1h-4.1v-4.5c0-4.9-3.2-8.4-7.8-8.4
				c-4.8,0-8.4,3.4-8.4,8.3c0,5,3.7,8.7,8.2,8.7h4c-0.6,2-2,2.9-4.2,2.9v3.3c4.9,0,7.6-2.1,8.2-6.2h4.1h1h3.6c3.6,0,6.3-0.7,8.3-2.1
				c2,1.4,4.8,2.1,8.4,2.1h2.7h1.5h24.9v-2.6C227.6,68.4,225.8,64.3,222.3,61.9z M168.9,72.6h-3.7c-2.3,0-4-2.1-4-4.7
				c0-2.5,1.6-4.2,4.1-4.2c2.2,0,3.5,1.6,3.7,3.8v5.1H168.9z M192.5,69.3c-0.6,0.5-1.4,0.9-2.3,1.4c-0.9-0.4-1.7-0.9-2.3-1.4
				c-1.7-1.2-2.5-2.8-2.5-4.8c0-1.3,0.4-2.4,1.2-3.3c0.9-0.9,2.1-1.4,3.6-1.4s2.7,0.5,3.6,1.4c0.8,0.9,1.2,2,1.2,3.3
				C194.9,66.5,194.1,68.1,192.5,69.3z"/>
			<rect x="244.5" y="49" class="st0" width="4.1" height="4.2"/>
			<rect x="251.6" y="49" class="st0" width="4.1" height="4.2"/>
			<path class="st0" d="M272.9,57.3h-4.7c-0.4-0.4-0.6-0.9-0.6-1.7c0-1.4,0.6-2.1,1.7-2.1c0.8,0,1.4,0.4,1.6,1.1l1.8-1.2
				c-0.6-1.5-1.8-2.3-3.5-2.3c-2.4,0-4,1.8-4,4.2c0,0.7,0.1,1.3,0.3,1.8h-2v2.5h9.3L272.9,57.3z"/>
			<rect x="277.8" y="80.9" class="st0" width="4.1" height="4.2"/>
			<rect x="284.9" y="80.9" class="st0" width="4.1" height="4.2"/>
			<path class="st0" d="M308.9,54.5l-0.5,4c5.4,1.1,9.3,6.8,9.3,13.1c0,0.3,0,0.7,0,1h-5c0.6-1.5,1-2.8,1-3.9c0-4.5-3-7.3-7.4-7.3
				c-4.5,0-7.4,2.9-7.4,7.3c0,1.1,0.3,2.4,1,3.9h-4.5h-1h-6c0.6-0.7,0.9-2.1,0.9-4.4v-8.4h-4.2v8.6c0,1.3-0.1,2.3-0.5,2.9
				c-0.5,0.9-1.3,1.3-2.6,1.3h-2.8H278h-6c0.6-0.7,0.9-2.1,0.9-4.4v-6.3h-4.2v6.5c0,1.3-0.2,2.3-0.5,2.9c-0.5,0.9-1.3,1.3-2.5,1.3
				h-2.8h-1h-1.6c-2.8,0-4.2-1.6-4.2-4.5V56.2h-9.3c-4.8,0-7.8,3.5-7.8,9.1c0,5.2,3,8.8,7.8,8.8c1.9,0,3.5-0.9,4.8-2.8
				c0.9,3.3,3.5,5.6,6.8,5.6h3.5h1.1h15h1.2h15.1h1h26.2c0.3-1.5,0.4-3,0.4-4.5C321.8,63.1,316.9,56.1,308.9,54.5z M251.7,64.9
				c0,3.2-1.7,5.7-4.4,5.7c-2.5,0-4.1-2.5-4.1-5.4c0-3.5,1.8-5.8,4.7-5.8h3.8V64.9z M306.2,72.7c-2,0-3.5-1.7-3.5-4s1.2-3.9,3.5-3.9
				c2.2,0,3.5,1.7,3.5,3.9C309.7,71,308.3,72.7,306.2,72.7z"/>
		</g>
	</g>
	<g>
		<path class="st1" d="M342.7,82.9c0.2-0.6,0.1-1.2,0.2-1.9c0.5-7,1.7-13.8,3.9-20.4c3.9-12.3,10.3-23.1,19.1-32.5
			c6.9-7.4,14.8-13.4,23.8-17.9c7.3-3.7,14.9-6.3,22.9-7.8c4-0.8,8-1.2,12-1.4c0.1,0,0.2,0,0.3-0.1c2.5,0,5,0,7.5,0
			c0.7,0.2,1.4,0.1,2.1,0.2c6.9,0.5,13.6,1.7,20.1,3.8c12.5,4,23.5,10.4,33,19.4c10.6,10,18.2,21.9,22.7,35.7
			c1.7,5.2,2.9,10.5,3.6,15.8c0.7,5,0.8,10,0.6,15.1c-0.9,18.7-7.2,35.4-19,50c-11.9,14.7-27.1,24.5-45.5,29.3
			c-5.5,1.4-11.1,2.3-16.8,2.6c-14.8,0.7-28.8-2-42.1-8.5c-8-3.9-15.3-8.9-21.7-15c-10.6-10.1-18.2-22.1-22.7-36
			c-1.7-5.3-2.9-10.6-3.5-16.1c-0.2-2.1-0.4-4.1-0.5-6.2c0-0.1,0-0.2-0.1-0.2C342.7,88.1,342.7,85.5,342.7,82.9z"/>
		<g>
			<g>
				<path class="st0" d="M342.7,82.9c0.2-0.6,0.1-1.2,0.2-1.9c0.5-7,1.7-13.8,3.9-20.4c3.9-12.3,10.3-23.1,19.1-32.5
					c6.9-7.4,14.8-13.4,23.8-17.9c7.3-3.7,14.9-6.3,22.9-7.8c4-0.8,8-1.2,12-1.4c0.1,0,0.2,0,0.3-0.1c2.5,0,5,0,7.5,0
					c0.7,0.2,1.4,0.1,2.1,0.2c6.9,0.5,13.6,1.7,20.1,3.8c12.5,4,23.5,10.4,33,19.4c10.6,10,18.2,21.9,22.7,35.7
					c1.7,5.2,2.9,10.5,3.6,15.8c0.7,5,0.8,10,0.6,15.1c-0.9,18.7-7.2,35.4-19,50c-11.9,14.7-27.1,24.5-45.5,29.3
					c-5.5,1.4-11.1,2.3-16.8,2.6c-14.8,0.7-28.8-2-42.1-8.5c-8-3.9-15.3-8.9-21.7-15c-10.6-10.1-18.2-22.1-22.7-36
					c-1.7-5.3-2.9-10.6-3.5-16.1c-0.2-2.1-0.4-4.1-0.5-6.2c0-0.1,0-0.2-0.1-0.2C342.7,88.1,342.7,85.5,342.7,82.9z M513.8,86.9
					c0-46.7-37.6-84.8-84.4-85.2c-47.4-0.4-85.5,37.7-85.8,84.5c-0.3,47.4,37.6,85,83.6,85.8C475.3,172.8,513.9,134,513.8,86.9z"/>
				<path class="st0" d="M369,86.9c0-33,26.8-59.8,59.9-59.6c32.9,0.1,60,27.1,59.4,60.8c-0.6,32.4-27.3,59.1-60.8,58.5
					C395.2,145.9,369,119.5,369,86.9z M487.4,86.9c0.1-32-25.8-58.6-58.4-58.8c-32.7-0.2-58.9,26.1-59.1,58.5
					c-0.1,32.8,26.2,58.5,57.6,59.1C460.8,146.2,487.5,119.4,487.4,86.9z"/>
				<path class="st0" d="M450.8,18.2C450.9,18.2,450.9,18.3,450.8,18.2c1.9,0.6,3.6,1.5,5.4,2.1c0.2,0.1,0.3,0.2,0.5-0.1
					c0.2-0.3,0.3,0,0.5,0.1c1.3,0.7,2.7,1.5,4,2.2c0.9,0.5,1.8,0.7,2.8,0.8c0.1-0.2-0.1-0.3-0.1-0.4c-0.4-0.6-0.8-1.1-1.3-1.7
					c-0.6-0.7-1.3-1.1-2.2-1.1c-0.2,0-0.5,0-0.5-0.2s0.2-0.3,0.4-0.4c0.9-0.4,1.8-0.7,2.8-0.8c0.9-0.1,1.5,0.5,2.1,1.1
					c0.4,0.5,0.7,1,1.1,1.6c1.1,1.9,2.4,3.6,4,5c0,0,0.1,0.1,0.1,0.2c-0.8,0.3-1.5,0.6-2.2,1c-0.3,0.1-0.4,0-0.6-0.1
					c-0.8-0.5-1.7-1.1-2.5-1.7s-1.7-0.9-2.7-0.8c-1.5,0.1-2.8-0.3-4-1.1c-0.3-0.2-0.7-0.4-1-0.6c-0.2-0.1-0.4-0.4-0.7-0.1
					c0,0-0.2-0.1-0.4-0.1c-1.5-0.6-3.1-1.2-4.6-1.8c-2.6-1-5.3-1.5-7.9-2.3c-1.6-0.5-3.2-0.5-4.8-0.8c-2.3-0.4-4.7-0.6-7-0.7
					c-2.1-0.1-4.1-0.1-6.2,0c-0.3,0-0.4,0.1-0.5,0.3c-0.2,0.9-0.5,1.8-1,2.6c-0.4,0.7-0.9,1.3-1.5,1.8c-0.8,0.7-1.6,0.9-2.6,0.6
					c-1.3-0.3-2.5-0.5-3.7-1.1c-0.3-0.1-0.8-0.2-0.7-0.6c0.1-0.4,0.5-0.1,0.8-0.1s0.6,0,0.9,0.1c1.1,0.3,2,0,2.9-0.5
					c1.3-0.8,2.3-1.8,3.3-3.1c-0.8,0-1.4,0-2.1,0s-1.3-0.2-1.8-0.6c-0.4-0.3-0.6-0.7-0.5-1.1c0.1-1.7,0.5-3.3,1.4-4.7
					c0.9-1.6,2.1-1.7,3.2,0c0.6,0.9,1,2,1.3,3c0.1,0.4,0.2,0.5,0.6,0.5c2.3,0.2,4.6,0,6.9,0.2c2.8,0.2,5.6,0.6,8.4,0.9
					c1.3,0.2,2.5,0.5,3.7,0.8c0.3,0.1,0.4,0,0.4-0.2c0.1-0.5,0.4-0.8,0.8-1.1c1.5-0.9,2.9-1.8,4.7-2c1.2-0.2,1.8,0.3,1.9,1.5
					c0.1,1.1-0.2,2.1-1.1,2.8C451.1,17.8,451,18,450.8,18.2z M448.7,15.3c-0.4,0-0.9,0.1-1.4,0.3c-0.4,0.2-0.5,0.5-0.3,0.8
					c0.5,0.9,1.8,1.4,2.8,1.1c0.1,0,0.3-0.1,0.4-0.2C450.5,16.6,449.8,15.3,448.7,15.3z M422,14.9c0.3-0.1,0.6,0,0.9-0.1
					c0.2-0.1,0.3-0.2,0.2-0.4c-0.3-0.5-0.5-1.1-1.1-1.4c-0.2-0.1-0.4-0.2-0.6-0.1c-0.4,0.2-0.9,0.8-0.9,1.1c0.1,0.5,0.5,0.7,0.9,0.9
					C421.6,14.8,421.8,14.8,422,14.9z"/>
				<path class="st0" d="M485.4,44.5c-1.2,0.4-2,0-2.6-1.1c-1-1.6-2.5-2.9-3.8-4.3c-0.3-0.4-0.6-0.8-1-1.1c-0.3-0.3-0.2-0.8,0-1.3
					c0.3-0.5,0.6-1,0.9-1.5c-0.5-0.1-0.9,0.1-1.3,0.3c-1,0.4-1.1,0.3-1.7-0.5c-0.6-0.8-1.1-1.5-1.7-2.3c-0.2-0.3-0.2-0.5,0.1-0.6
					c0.9-0.5,1.7-1,2.6-1.4c0.7-0.3,1.4-0.1,2.1,0.1c0.7,0.1,1.3,0.2,2,0.4c0.3,0.1,0.4,0,0.5-0.2c0.1-0.4,0.3-0.5,0.6-0.6
					c0.7-0.2,1.3-0.4,2.1-0.6c-0.6,0.8-1.1,1.6-1.6,2.3c-0.8,1.2-1.6,2.4-2.4,3.7c-0.2,0.4-0.2,0.7,0.1,1c0.7,0.6,1.1,1.5,1.8,2.1
					c1.5,1.3,2.5,3,3.7,4.5c0.2,0.2,0.3,0.3,0.5,0.1c0,0,0.1,0,0.1-0.1c1.2-1.2,2.7-1.2,4.3-0.9c-0.2,0.3-0.5,0.5-0.8,0.7
					c-0.4,0.3-0.8,0.5-1.2,0.8c-0.6,0.3-0.9,0.8-0.9,1.5c0,0.3,0.1,0.5,0.2,0.8c0.7,1.2,1.4,2.4,2.2,3.6c1.3,2.2,2.4,4.4,3.6,6.7
					c0.8,1.5,1.2,3,1.9,4.5c0.2,0.4,0.3,0.5,0.7,0.4c0.3-0.1,0.7-0.1,0.9-0.3c0.7-0.4,1.4-0.3,2.1,0.1c0.3,0.2,0.7,0.3,1,0.5
					c-0.2,0.2-0.4,0.3-0.6,0.3c-0.5,0.2-1.1,0.3-1.6,0.4c-1.1,0.2-1.5,0.9-1.2,2c0.4,1.5,0.7,3.1,1.3,4.6c0.4,1.1,0.6,2.1,0.8,3.2
					c0,0.2,0.1,0.2,0.3,0.3c1.2,0.1,2.3,0.6,3.4,1.2c0.9,0.5,1.8,0.4,2.7,0.6c0.9,0.2,0.9,0.2,0.5,1c-0.7,1.6-1.5,3.1-2.7,4.5
					c-0.2,0.3-0.4,0.5-0.7,0.7c-1.2,1.2-2.5,1.3-4.1,0.6c-0.4-0.2-0.7-0.5-0.8-1c-0.4-2.9-0.8-5.8-1.4-8.7c-0.1-0.8-0.5-1.6-0.7-2.4
					c-0.5-1.6-1-3.3-1.5-4.9c-0.1-0.3,0-0.6,0.1-0.9c0.1-0.4,0.4-0.7,0.7-1.1c-0.4-0.1-0.8-0.2-1.2-0.2c-0.3,0-0.4-0.2-0.6-0.4
					c-1.6-4.1-3.7-8-6-11.8c-0.6-1-1.3-2-2-3c-0.3-0.4-0.2-0.9-0.1-1.3C485.2,45.1,485.4,44.8,485.4,44.5
					C485.5,44.6,485.5,44.5,485.4,44.5C485.5,44.4,485.5,44.5,485.4,44.5z M477.5,32L477.5,32C477.4,32,477.4,32,477.5,32
					c0.3,0.9,1,1.7,1.7,2.3c0.2,0.2,0.3,0.1,0.4,0c0.4-0.5,0.8-1.1,1.1-1.7c0.1-0.1,0.3-0.3,0.1-0.4c-0.1-0.1-0.4,0-0.5,0
					c-0.6,0.3-1.2,0.3-1.9,0.1C478.1,32.2,477.8,32.1,477.5,32z M502.3,75.3c-0.1-0.4-0.4-0.7-0.8-1c-0.3-0.3-0.6-0.7-1-0.5
					c-0.4,0.1-0.5,0.6-0.6,1c-0.2,0.7,0.6,1.6,1.3,1.6C501.6,76.4,502.3,75.8,502.3,75.3z M500,79.1c0,0.2,0.1,0.6,0.1,0.9
					c0,0.2,0.1,0.2,0.3,0.1c0.6-0.4,1.2-0.9,1.5-1.6c0.2-0.4,0.1-0.7-0.3-0.8C500.7,77.3,500.1,77.8,500,79.1z"/>
				<path class="st0" d="M369.3,39.8c0.8,0.6,1.7,1.1,2.3,1.9c0.4,0.4,0.5,0.4,0.9,0c1.5-1.5,2.8-3.2,4.3-4.8c1.3-1.5,2.8-2.7,4.2-4
					c0.3-0.3,0.2-0.4-0.1-0.6c-0.8-0.5-1.6-0.8-2.6-0.9c-0.2,0-0.4-0.1-0.4-0.4c-0.1-0.7-0.3-1.4-0.4-2.1c-0.1-0.2,0-0.3,0.2-0.3
					c1.9,0.3,3.6,1,4.6,2.7c0.4,0.7,0.8,1.5,1.2,2.2c0.1,0.2,0.1,0.4-0.1,0.5c-0.8,0.7-1.5,1.3-2.2,2c-2.2,2-4.2,4.3-6.1,6.6
					c-0.4,0.5-0.8,1.1-1.7,0.9c0.7,0.7,0.1,1-0.2,1.5c-0.4,0.6-0.8,1.1-1.2,1.6c-0.1,0.2-0.2,0.3-0.4,0.2c-0.4-0.1-0.5,0.1-0.4,0.4
					s0,0.5-0.2,0.7c-0.5,0.7-1,1.4-1.4,2.2c-0.3,0.6-0.7,0.9-1.5,0.9c0.5,0.9,0.1,1.6-0.4,2.4c-2.2,4.1-4.1,8.4-5.4,12.9
					c-0.2,0.8-0.5,1.6-0.6,2.4c-0.1,0.4-0.2,0.6-0.7,0.5c-1.9-0.3-3.9-0.7-5.8-1c-1.6-0.3-3.2-0.5-4.8-0.8c-0.4-0.1-0.6-0.2-0.8-0.5
					c-0.4-0.6-0.8-1.2-1.2-1.9c1.6,0.3,3.1,0.5,4.7,0.8c1.9,0.3,3.8,0.6,5.8,0.9c0.3,0,0.8-0.5,1-1c0.6-1.8,1.2-3.5,1.9-5.3
					c0.7-1.9,1.6-3.7,2.5-5.6c0.7-1.5,1.5-2.8,2.3-4.2c0.2-0.3,0.1-0.5-0.1-0.7c-0.1,0-0.1-0.1-0.1-0.1c-1-0.5-1.2-1.5-1.5-2.4
					c-0.1-0.3-0.2-0.7-0.3-1.1c0.3,0,0.5,0.2,0.7,0.4c0.5,0.5,0.9,1,1.4,1.5s0.9,0.5,1.3-0.1c0.2-0.3,0.4-0.5,0.6-0.8
					c0.1-0.2,0.2-0.3,0.4-0.5c0.2-0.3,0.5-0.6,0.6-0.9c0-0.4-0.5-0.4-0.7-0.6s-0.3-0.4-0.4-0.6c-0.2-0.8-0.3-1.6-0.4-2.5
					c0.4,0.4,0.7,0.8,1,1.2c0.2,0.3,0.5,0.6,0.7,0.9c0.5,0.6,0.6,0.6,1.1,0c0.2-0.3,0.5-0.7,0.7-1c0.2-0.2,0.1-0.4-0.1-0.5
					c-0.1,0-0.1-0.1-0.2-0.1c-0.4-0.2-0.8-0.1-1.1-0.6C369.6,41.6,369.3,40.4,369.3,39.8z"/>
				<path class="st0" d="M385.8,27.7c0.2-0.1,0.3,0,0.5,0.1c0.7,0.3,1.1,0.2,1.5-0.5c0.5-0.8,0.7-1.7,0.9-2.6
					c0.1-0.2-0.1-0.3-0.2-0.3c-1-0.4-2.1-0.6-3.2-0.7c-0.4,0-0.3,0.2-0.3,0.4c0.1,0.3,0,0.4-0.4,0.5c-0.9,0-1.7,0-2.6,0.2
					c-0.7,0.1-1.2-0.3-1.5-0.8c-0.8-1.2-0.7-1.4,0.5-2.2c0.3-0.2,0.7-0.3,0.3-0.8c-0.1-0.2,0.2-0.2,0.3-0.2c1.2,0.1,2.5,0.2,3.6,0.5
					c1.2,0.3,2.3,0.6,3.5,1.3c-0.4-1.6-0.8-3-2.3-3.7c-0.2-0.1-0.2-0.2-0.2-0.3c0-1,0-2.1,0-3.2c0.7,0.9,1.6,0.7,2.4,0.7
					c1.3,0,1.2-0.2,1.2,1.1c0,0.3,0,0.7,0,1c0,0.4,0,0.7-0.5,0.8c-0.2,0-0.1,0.2-0.1,0.3c0.2,0.4,0.3,0.9,0.5,1.3
					c0.3,0.7,0.3,1.4,0.3,2.2c0,0.4,0.1,0.6,0.5,0.8c1.5,0.7,2.2,2,2.8,3.4c0.1,0.2,0,0.2-0.1,0.3c-1.8,1.2-3.5,2.3-5.3,3.5
					c-0.3,0.2-0.5,0-0.7-0.1C386.6,29.6,386.1,28.7,385.8,27.7z M389.4,26.6c0.5-0.3,1.1-0.6,1.6-1c-0.4-0.3-0.8-0.5-1.3-0.7
					C389.6,25.4,389.5,25.9,389.4,26.6c-0.1-0.1-0.1,0-0.1,0C389.4,26.6,389.4,26.6,389.4,26.6z"/>
				<path class="st0" d="M416.1,18.4c0.4,1.6-0.4,2.7-1.6,3.7c-1.6,1.3-3.2,2.5-5.3,2.8c-2.5,0.4-3.9-0.6-4.3-3.1
					c-0.2-1.5-0.2-3,0.3-4.5c0.1-0.2,0.1-0.7,0.5-0.6c0.3,0.1,0.1,0.5,0.1,0.7c0,0.6-0.1,1.2-0.1,1.8c0,2,1.2,3.2,3.2,2.9
					c2.3-0.4,4.4-1.3,6-3.1c0.2-0.3,0.3-0.5,0.1-0.8c-0.3-0.5-0.5-0.9-0.8-1.3c-0.1-0.2-0.2-0.2-0.4,0c-0.7,1.2-1.9,1.6-3.2,1.3
					c-0.9-0.2-1.4-0.8-1.4-1.7c0-1.3,0.2-2.6,0.8-3.8c0.7-1.4,1.8-1.6,3-0.6c1.4,1.3,2.3,2.9,3,4.7
					C416.2,17.3,416.1,17.8,416.1,18.4z M411.6,15.6c0.3-0.1,0.6-0.1,1-0.3c0.3-0.1,0.4-0.3,0.1-0.5s-0.6-0.4-0.9-0.6
					c-0.7-0.4-0.8-0.4-1.1,0.4c0,0.1-0.1,0.2-0.1,0.3c0,0.1,0,0.2,0.1,0.3C410.9,15.4,411.2,15.5,411.6,15.6z"/>
				<path class="st0" d="M460.6,149.7c0.3-2,2-2.9,3.9-2.1c0.1-1,0.6-1.8,1.6-2.3c0.9-0.5,1.9-0.4,2.7,0.3c0.4,0.3,0.7,0.7,0.9,1.1
					c0.7,1.3,1.4,2.5,2.2,3.8c0.1,0.2,0.1,0.3-0.1,0.5c-0.5,0.2-0.9,0.5-1.4,0.8c-0.3,0.2-0.4,0.2-0.6-0.2c-0.6-1.1-1.2-2.1-1.8-3.1
					c-0.2-0.3-0.4-0.6-0.6-0.8c-0.3-0.3-0.7-0.5-1.1-0.3s-0.6,0.6-0.6,1c0,0.3,0.1,0.6,0.3,0.9c0.6,1.1,1.3,2.2,1.9,3.3
					c0.2,0.3,0.1,0.5-0.2,0.7c-0.4,0.2-0.9,0.5-1.3,0.7c-0.3,0.2-0.4,0.1-0.5-0.1c-0.6-1.1-1.2-2.2-1.8-3.3
					c-0.1-0.2-0.2-0.4-0.3-0.5c-0.4-0.6-1-0.7-1.4-0.4c-0.5,0.3-0.7,0.9-0.4,1.5c0.3,0.6,0.6,1.2,1,1.8c0.4,0.7,0.7,1.3,1.1,2
					c0.1,0.2,0.2,0.4-0.1,0.5c-0.5,0.2-0.9,0.5-1.4,0.8c-0.3,0.2-0.4,0.1-0.5-0.1c-1.1-2-2.2-4-3.5-6c-0.1-0.2-0.1-0.3,0.1-0.4
					c0.4-0.2,0.7-0.4,1.1-0.6c0.3-0.3,0.5-0.2,0.7,0.2C460.4,149.4,460.5,149.5,460.6,149.7z"/>
				<path class="st0" d="M368.5,125.3c2,0.2,3.1,2,2.4,3.7c0.6,0.1,1.1,0.2,1.6,0.5c1.4,1,1.7,2.7,0.5,3.9c-0.5,0.6-1.1,0.9-1.8,1.4
					c-0.9,0.6-1.8,1.2-2.6,1.8c-0.2,0.2-0.3,0.2-0.5-0.1c-0.3-0.4-0.5-0.8-0.8-1.2c-0.3-0.3-0.3-0.5,0.1-0.8c1-0.6,1.9-1.3,2.9-1.9
					c0.3-0.2,0.5-0.4,0.7-0.6c0.4-0.4,0.4-0.9,0.1-1.3c-0.3-0.4-0.8-0.6-1.3-0.4c-0.2,0.1-0.5,0.2-0.7,0.4c-1.1,0.7-2.1,1.4-3.1,2.1
					c-0.2,0.2-0.4,0.1-0.5-0.1c-0.3-0.4-0.5-0.8-0.8-1.2c-0.2-0.3-0.2-0.4,0.1-0.6c1.1-0.7,2.1-1.4,3.1-2.1c0.2-0.1,0.4-0.3,0.6-0.5
					c0.3-0.4,0.4-0.7,0.2-1.2c-0.2-0.4-0.7-0.6-1.2-0.5c-0.3,0.1-0.6,0.3-0.9,0.4c-1,0.7-2,1.3-3,2.1c-0.4,0.3-0.5,0.2-0.7-0.2
					s-0.5-0.8-0.8-1.2c-0.1-0.2-0.2-0.3,0.1-0.5c1.9-1.3,3.8-2.6,5.7-4c0.2-0.1,0.3-0.1,0.4,0.1c0.2,0.3,0.4,0.7,0.7,1
					c0.3,0.4,0.2,0.6-0.1,0.8C368.7,125.1,368.6,125.1,368.5,125.3z"/>
				<path class="st0" d="M471.9,142.7c0.1-2.2,1.4-3.1,3.5-2.7c0-0.9,0.2-1.6,0.8-2.3c0.9-0.9,2-1,3.1-0.4c0.6,0.4,1.1,1,1.6,1.6
					c0.7,0.9,1.4,1.7,2.2,2.6c0.2,0.2,0.3,0.4,0,0.6c-0.4,0.3-0.8,0.6-1.2,1c-0.2,0.2-0.4,0.2-0.5-0.1c-0.7-0.9-1.5-1.8-2.2-2.7
					c-0.2-0.3-0.5-0.6-0.8-0.8c-0.5-0.3-0.9-0.3-1.3,0c-0.4,0.3-0.5,0.9-0.3,1.3c0.1,0.2,0.3,0.4,0.4,0.6c0.8,1,1.7,2,2.5,3
					c0.2,0.2,0.2,0.3,0,0.5c-0.4,0.3-0.9,0.7-1.3,1.1c-0.2,0.2-0.3,0.1-0.5-0.1c-0.8-1-1.6-2-2.4-2.9c-0.2-0.2-0.4-0.5-0.7-0.6
					c-0.3-0.2-0.7-0.3-1.1,0c-0.4,0.3-0.6,0.6-0.5,1.1c0,0.3,0.2,0.6,0.4,0.9c0.8,1,1.6,1.9,2.4,2.9c0.3,0.3,0.3,0.5-0.1,0.8
					c-0.3,0.2-0.6,0.5-0.8,0.7c-0.5,0.4-0.5,0.4-1-0.1c-1.4-1.7-2.7-3.4-4.2-5c-0.2-0.2-0.2-0.3,0-0.5c0.3-0.2,0.6-0.5,0.9-0.7
					c0.3-0.3,0.6-0.4,0.8,0C471.6,142.5,471.7,142.5,471.9,142.7z"/>
				<path class="st0" d="M357,114.8c-0.3,0.1-0.3-0.1-0.3-0.3c-0.1-0.6-0.2-1.1-0.4-1.7c-0.1-0.3,0-0.3,0.3-0.4
					c1.2-0.2,2.3-0.5,3.5-0.8c0.3-0.1,0.4-0.2,0.3-0.5c-0.2-1-0.5-2-0.7-3c-0.1-0.3-0.1-0.4-0.4-0.3c-1.1,0.3-2.3,0.5-3.4,0.8
					c-0.4,0.1-0.6,0-0.6-0.4c-0.1-0.5-0.2-1-0.3-1.4c-0.1-0.3,0-0.4,0.3-0.5c1.8-0.4,3.6-0.8,5.4-1.2c1.3-0.3,2.6-0.6,4-0.9
					c0.3-0.1,0.4,0,0.5,0.3c0.1,0.5,0.2,1.1,0.4,1.6c0.1,0.3,0,0.4-0.3,0.5c-1.1,0.2-2.1,0.5-3.1,0.7c-0.3,0.1-0.4,0.1-0.3,0.4
					c0.2,1,0.5,2,0.7,3c0.1,0.3,0.2,0.3,0.5,0.3c1.1-0.3,2.1-0.5,3.2-0.7c0.2-0.1,0.3,0,0.4,0.2c0.1,0.6,0.3,1.2,0.4,1.7
					c0,0.2,0,0.3-0.2,0.4C363.4,113.3,360.2,114,357,114.8C357,114.7,357,114.7,357,114.8z"/>
				<path class="st0" d="M397.9,152.8c0.7,1,0.4,2,0.2,3c-0.1,0.8-0.3,1.5-0.4,2.4c-0.7-0.3-1.3-0.6-2-0.9c-0.2-0.1-0.2-0.3-0.1-0.4
					c0.1-0.9,0.3-1.7,0.5-2.6c0.2-1-0.3-1.7-1.3-2c-0.3-0.1-0.3,0.2-0.3,0.3c-0.5,0.9-0.9,1.9-1.3,2.8c-0.2,0.4-0.3,0.6-0.7,0.3
					c-0.2-0.1-0.4-0.2-0.6-0.3c-1-0.5-1-0.5-0.6-1.5c1.2-2.6,2.5-5.2,3.7-7.8c0.2-0.4,0.3-0.4,0.7-0.3c1.4,0.5,2.8,1.1,4,2
					c1.1,0.9,1.6,1.9,1.2,3.1c-0.4,1.3-1.2,2-2.7,2.1C398.1,152.8,398,152.8,397.9,152.8z M396.8,151.2c0.9,0,1.4-0.3,1.6-0.9
					c0.2-0.6,0.1-1.1-0.4-1.5c-0.4-0.3-0.8-0.5-1.3-0.7c-0.2-0.1-0.3,0-0.4,0.2c-0.3,0.7-0.6,1.3-1,2c-0.1,0.1-0.1,0.3,0,0.3
					C396,150.8,396.5,151.2,396.8,151.2z"/>
				<path class="st0" d="M408.9,160.8c-1.2,0.6-2.3,0.5-3.3-0.3c-1.1-0.9-1.3-2.1-1.1-3.4c0.3-1.6,1.1-3,2.9-3.4
					c1.4-0.3,2.6,0.2,3.3,1.5c0.4-0.7,0.4-0.7,1.3-0.5c1,0.3,1,0.3,0.7,1.3c-0.5,1.9-1,3.7-1.6,5.6c-0.4,1.3-1,2.4-2.5,2.8
					c-1.8,0.4-3.4-0.2-4.9-1.2c-0.1-0.1-0.2-0.2-0.1-0.4c0.2-0.4,0.5-0.8,0.7-1.2c0.1-0.2,0.2-0.1,0.3,0c0.5,0.4,1.1,0.8,1.7,0.9
					C407.8,162.9,408.7,162.3,408.9,160.8z M406.9,158c0,0.9,0.4,1.5,1.2,1.6c0.7,0.1,1.3-0.3,1.5-1.2c0.1-0.3,0.2-0.7,0.3-1.1
					c0.2-0.7-0.1-1.3-0.7-1.6s-1.3-0.1-1.7,0.5C407.1,156.7,406.9,157.3,406.9,158z"/>
				<path class="st0" d="M416.9,156.5c0.8-0.7,1.6-0.9,2.6-0.7c1.2,0.3,1.9,1.3,1.9,2.6c0,1-0.2,2-0.3,3c-0.1,0.7-0.2,1.3-0.3,2
					c0,0.3-0.1,0.4-0.5,0.3c-0.5-0.1-1-0.2-1.5-0.2c-0.4,0-0.4-0.1-0.4-0.5c0.2-1.3,0.4-2.5,0.5-3.8c0-0.2,0-0.3,0-0.5
					c-0.1-0.7-0.4-1.1-1.1-1.2c-0.7,0-1.2,0.4-1.3,1.1c-0.2,1.4-0.4,2.7-0.6,4.1c0,0.3-0.1,0.4-0.4,0.3c-0.5-0.1-1.1-0.2-1.6-0.2
					c-0.2,0-0.3-0.1-0.3-0.4c0.5-3.4,1-6.7,1.4-10.1c0-0.3,0.1-0.5,0.5-0.4c0.5,0.1,1,0.2,1.5,0.2c0.3,0,0.4,0.1,0.3,0.4
					c-0.2,1.2-0.3,2.3-0.5,3.5C416.9,156.2,416.9,156.3,416.9,156.5z"/>
				<path class="st0" d="M352.2,72.5c2.5-1,4.8-1.7,7.3-0.4c0.3,0.1,0.6,0.3,0.9,0.4c1.1,0.5,1.8,1.4,2.1,2.5c0.6,2,0.9,4.1,0.2,6.1
					c-0.7,1.9-2.2,2.6-4.1,2.1c-1.2-0.3-2.4-0.9-3.4-1.6c-0.3-0.2-0.6-0.4-0.9-0.8c-0.1-0.1-0.3-0.3-0.1-0.5c0.2-0.2,0.4,0,0.6,0.1
					s0.4,0.3,0.5,0.4c0.5,0.4,1.1,0.6,1.8,0.8c1.3,0.2,2.3-0.3,2.8-1.5c0.6-1.2,0.6-2.6,0.5-3.9c-0.1-0.7-0.2-1.4-0.4-2.1
					c-0.4-1-0.8-1.2-1.8-1s-2,0.5-2.9,0.9c-0.6,0.2-1,0.2-1.4-0.2C353.4,73.4,352.9,73,352.2,72.5z"/>
				<path class="st0" d="M450.2,158.7c0.2,0.5,0.4,1,0.7,1.5c0.1,0.2,0.1,0.3-0.1,0.5c-1.7,1-3.5,1.5-5.4,1c-2-0.5-3-2-3.4-3.9
					c-0.8-3.4,1.1-6.1,4.7-6.7c0.6-0.1,1.2-0.2,1.8-0.1c0.3,0,0.4,0.1,0.4,0.4c0,0.4,0,0.9,0,1.3c0,0.3-0.1,0.3-0.4,0.3
					c-0.8-0.1-1.6,0-2.3,0.4c-1.7,0.7-2.3,2.4-1.6,4.3c0.6,1.7,2,2.4,3.8,2C448.9,159.3,449.5,159.1,450.2,158.7z"/>
				<path class="st0" d="M360.6,122c-1.1-0.3-1.7-1-2-2s-0.1-1.8,0.7-2.6c0.4-0.4,0.8-0.6,1.3-0.8c1.3-0.5,2.6-1.1,3.8-1.6
					c0.3-0.1,0.4-0.1,0.5,0.2c0.2,0.5,0.4,1,0.6,1.5c0.1,0.3,0.1,0.4-0.2,0.5c-1.1,0.4-2.2,0.9-3.3,1.4c-0.2,0.1-0.4,0.2-0.7,0.3
					c-0.7,0.4-0.9,1-0.6,1.6s1,0.8,1.7,0.5c1.2-0.5,2.4-1,3.6-1.5c0.4-0.2,0.6-0.2,0.7,0.3c0.2,0.5,0.4,1,0.6,1.4
					c0.1,0.2,0.1,0.3-0.2,0.4c-2.2,0.9-4.3,1.8-6.4,2.8c-0.2,0.1-0.3,0-0.3-0.1c-0.1-0.2-0.2-0.4-0.3-0.7c-0.1-0.3-0.4-0.6-0.4-0.9
					C359.8,122.3,360.3,122.3,360.6,122z"/>
				<path class="st0" d="M496.4,107.1c-0.7-0.9-0.9-1.8-0.5-2.8c0.4-1.3,1.6-2,3.1-1.7c1.6,0.3,3.1,0.7,4.7,1
					c0.3,0.1,0.3,0.2,0.2,0.4c-0.1,0.6-0.3,1.1-0.4,1.7c0,0.3-0.2,0.3-0.4,0.2c-1.2-0.3-2.4-0.5-3.7-0.8c-0.2,0-0.3-0.1-0.5-0.1
					c-0.8-0.1-1.3,0.2-1.4,0.9c-0.1,0.7,0.3,1.3,1,1.4c1.1,0.3,2.1,0.5,3.2,0.7c1.2,0.2,1.2,0.2,0.9,1.4c-0.3,1.1-0.3,1.1-1.4,0.9
					c-1.9-0.4-3.9-0.9-5.8-1.2c-0.4-0.1-0.5-0.2-0.3-0.6c0.1-0.2,0.1-0.4,0.1-0.6C495.4,107.1,495.4,107.1,496.4,107.1z"/>
				<path class="st0" d="M382.5,141.4c0.8-0.1,1.4-0.1,2.1,0.3c1.4,0.7,1.9,2.1,1.3,3.5c-0.2,0.4-0.4,0.7-0.6,1
					c-0.9,1.1-1.7,2.2-2.6,3.3c-0.2,0.2-0.3,0.2-0.5,0.1c-0.4-0.4-0.9-0.7-1.3-1c-0.3-0.2-0.3-0.3-0.1-0.6c0.8-1,1.5-1.9,2.3-2.9
					c0.1-0.1,0.2-0.2,0.3-0.4c0.5-0.7,0.4-1.3-0.2-1.7s-1.3-0.3-1.8,0.3c-0.6,0.7-1.2,1.5-1.8,2.3c-0.3,0.3-0.5,0.7-0.8,1
					c-0.1,0.2-0.3,0.2-0.5,0.1c-0.4-0.4-0.9-0.7-1.4-1.1c-0.3-0.2-0.2-0.3,0-0.5c1-1.3,2-2.6,3.1-3.9c0.4-0.5,0.8-1,1.1-1.5
					c0.2-0.3,0.3-0.3,0.6-0.1c0.3,0.3,0.7,0.6,1,0.8s0.3,0.3,0.1,0.6C382.7,141,382.7,141.1,382.5,141.4z"/>
				<path class="st0" d="M458.8,155.4c0,2.1-1.9,3.9-4.2,3.9c-2.4,0-3.7-2.1-3.8-4.2c0-2.1,1.9-3.8,4.2-3.8
					C457.1,151.2,458.8,153,458.8,155.4z M453.1,154.7c0.1,0.8,0.4,1.8,1.2,2.4c0.8,0.6,1.9,0.2,2-0.8c0.2-1-0.2-1.9-0.8-2.7
					c-0.4-0.5-1-0.7-1.6-0.5C453.4,153.4,453.1,153.9,453.1,154.7z"/>
				<path class="st0" d="M500.7,115.2c0,2.3-1.7,4.1-3.8,4.1c-2.3,0-4.2-1.7-4.2-3.9c0-2.4,1.7-4.2,3.8-4.2
					C498.9,111.3,500.7,113,500.7,115.2z M496.2,113.7c-0.9,0-1.4,0.3-1.6,0.8c-0.2,0.6,0,1.2,0.5,1.6c0.6,0.5,1.4,0.8,2.2,0.9
					c0.7,0.1,1.2-0.3,1.5-0.8c0.2-0.5,0.1-1.1-0.4-1.5C497.7,114,496.9,113.7,496.2,113.7z"/>
				<path class="st0" d="M373.9,141.4c-1.1,0-1.7-0.3-2.3-0.9c-0.8-0.8-1-1.9-0.4-2.8c0.5-1,1.7-1.5,2.8-1.2c1,0.2,1.8,0.8,2.5,1.5
					c0.1,0.1,0.2,0.3,0.4,0.2c0.2-0.1,0.3-0.3,0.3-0.6s-0.2-0.5-0.3-0.8c-0.5-0.6-1.1-1-1.8-1.2c-0.3-0.1-0.3-0.2-0.1-0.4
					c0.1-0.1,0.1-0.2,0.2-0.4c0.5-0.8,0.5-0.8,1.3-0.4c0.8,0.4,1.5,1,2.1,1.8c1,1.3,1,2.6-0.1,3.8c-0.6,0.7-1.4,1.4-2.1,2.1
					c-0.3,0.3-0.7,0.7-1,1.1c-0.4,0.5-0.4,0.5-0.9,0c-0.2-0.2-0.3-0.4-0.5-0.5C373.5,142.2,373.2,141.9,373.9,141.4z M374.3,140.2
					c0.4,0,1.4-0.6,1.3-0.9c-0.1-0.4-0.5-0.5-0.7-0.7c-0.2-0.1-0.4-0.2-0.6-0.3c-0.3-0.1-0.6,0-0.8,0.1c-0.3,0.2-0.5,0.6-0.4,0.9
					C373.3,139.9,373.8,140.2,374.3,140.2z"/>
				<path class="st0" d="M483.1,131.4c0-1.2,1.2-2.9,2.3-3.4c0.2-0.1,0.3-0.1,0.4,0.1c0,0,0,0.1,0.1,0.1c0.2,0.3,0.6,0.6,0.7,1
					c0,0.4-0.6,0.4-0.8,0.7c-0.2,0.2-0.5,0.5-0.6,0.8c-0.1,0.2-0.1,0.5,0.1,0.7c0.2,0.2,0.4,0.2,0.6,0.1c0.4-0.2,0.8-0.4,1.2-0.6
					c1.1-0.6,2.1-0.5,2.9,0.2c0.7,0.7,0.9,1.5,0.5,2.4c-0.4,1.3-1.3,2.2-2.5,2.9c-0.2,0.1-0.4,0.1-0.5-0.1c-0.2-0.4-0.7-0.7-0.7-1
					c0-0.4,0.6-0.4,0.9-0.7c0.3-0.3,0.7-0.6,0.9-0.9c0.1-0.2,0.2-0.5,0-0.8c-0.2-0.2-0.5-0.3-0.8-0.1c-0.2,0.1-0.5,0.3-0.7,0.4
					c-0.4,0.2-0.8,0.4-1.2,0.5C484.4,134,483.1,133,483.1,131.4z"/>
				<path class="st0" d="M490.5,123.7c-0.5,0.4-1,0.7-1.3,1.2c-0.2,0.3-0.3,0.6,0,0.9c0.3,0.3,0.6,0.1,0.8,0
					c0.4-0.3,0.8-0.6,1.2-0.8c0.9-0.6,1.8-0.5,2.6,0.1s1.1,1.5,0.8,2.6c-0.4,1.2-1.1,2.2-2.1,3c-0.2,0.2-0.4,0.2-0.6,0
					c-0.3-0.3-0.8-0.6-0.8-1c-0.1-0.4,0.6-0.5,0.8-0.8c0.3-0.3,0.6-0.6,0.8-1.1c0.1-0.2,0.1-0.5-0.1-0.7c-0.2-0.2-0.5-0.2-0.7,0
					c-0.6,0.3-1,0.8-1.6,1c-1.4,0.6-2.8,0.1-3.1-1.3c-0.2-0.6-0.1-1.2,0.1-1.7c0.3-0.9,0.9-1.6,1.7-2.2c0.2-0.2,0.4-0.2,0.6,0
					C489.9,123,490.2,123.3,490.5,123.7z"/>
				<path class="st0" d="M429.3,162.1c0.7,0.3,1.5,0.5,2.3,0.4c0.3,0,0.7-0.1,0.7-0.5c0.1-0.4-0.2-0.6-0.6-0.7
					c-0.5-0.2-1-0.3-1.5-0.5c-0.8-0.4-1.3-0.9-1.3-1.9s0.4-1.7,1.3-2.1c1.1-0.6,2.3-0.6,3.5-0.2c0.2,0.1,0.3,0.1,0.2,0.3
					c0,0,0,0,0,0.1c-0.1,0.4,0,0.9-0.3,1.2s-0.7-0.1-1.1-0.1c-0.3,0-0.7-0.1-1,0s-0.4,0.2-0.5,0.5c0,0.3,0.1,0.4,0.4,0.5
					c0.4,0.2,0.9,0.3,1.3,0.5c1.5,0.6,2.1,1.9,1.5,3.2c-0.3,0.7-1,1.1-1.7,1.3c-1.1,0.3-2.2,0.3-3.3-0.1c-0.3-0.1-0.5-0.2-0.3-0.5
					C429.1,163,429.2,162.6,429.3,162.1z"/>
				<path class="st0" d="M426.2,154.5c0,0.5,0,1-0.1,1.5c-0.1,0.4,0.1,0.6,0.5,0.5c0.2,0,0.3,0,0.5,0c0.7,0,0.7,0,0.7,0.7
					c0,1,0,1-1.1,1c-0.7,0-0.7,0-0.7,0.7s-0.1,1.4-0.1,2.1c0,0.9,0.3,1.2,1.2,1.2c0.3,0,0.4,0.1,0.4,0.4c0,0.2,0,0.4,0,0.6
					c0,0.9,0,0.9-0.9,0.9c-0.3,0-0.6,0-0.9,0c-1.4-0.2-2-0.9-2.1-2.2c-0.1-1.1,0-2.3,0.1-3.4c0-0.3,0-0.5-0.4-0.4
					c-0.5,0.1-0.8-0.2-0.6-0.7c0-0.1,0-0.2,0-0.3c0-0.7,0-0.7,0.7-0.7c0.2,0,0.3-0.1,0.3-0.3c0-0.1,0-0.1,0-0.2c0.1-1,0.1-1,1-1.2
					C425.3,154.7,425.7,154.6,426.2,154.5z"/>
				<path class="st0" d="M399.2,24c-0.7-1.1-1.3-2.1-2-3.1c-1-1.6-2.1-3.2-3.1-4.9c-0.1-0.2-0.3-0.4-0.2-0.6c0-1.1,0.1-2.1,0.3-3.2
					c0.2,0.1,0.2,0.2,0.3,0.4c1.2,2.1,2.5,4.2,3.7,6.4C399.1,20.5,399.5,22.2,399.2,24z"/>
				<path class="st0" d="M402.3,151.7c0.4,0.1,0.8,0.3,1.2,0.4c1,0.4,1,0.4,0.6,1.3c-0.7,1.9-1.4,3.8-2.1,5.7
					c-0.1,0.3-0.2,0.4-0.6,0.3c-0.5-0.2-1-0.4-1.5-0.5c-0.3-0.1-0.4-0.2-0.2-0.5c0.8-2.1,1.6-4.3,2.4-6.4
					C402.1,151.9,402.1,151.7,402.3,151.7z"/>
				<path class="st0" d="M485,139.8c-0.1-0.1-0.2-0.2-0.2-0.2c-1.7-1.6-3.3-3.2-5-4.7c-0.2-0.2-0.2-0.3,0-0.5
					c0.4-0.4,0.8-0.8,1.1-1.2c0.2-0.2,0.3-0.2,0.6,0c1.5,1.5,3.1,2.9,4.6,4.4c0.6,0.6,0.6,0.6,0,1.2c-0.3,0.3-0.5,0.6-0.8,0.9
					C485.1,139.7,485.1,139.7,485,139.8z"/>
				<path class="st0" d="M491.2,118.8c0.1,0,0.2,0.1,0.3,0.1c2,1.1,3.9,2.1,5.9,3.1c0.3,0.2,0.4,0.3,0.2,0.7
					c-0.3,0.4-0.5,0.9-0.7,1.4c-0.1,0.2-0.2,0.3-0.5,0.2c-2-1.1-4.1-2.2-6.1-3.3c-0.2-0.1-0.3-0.2-0.1-0.5c0.3-0.5,0.5-1,0.8-1.5
					C491,118.9,491,118.8,491.2,118.8z"/>
				<path class="st0" d="M490.4,39.5c0-0.4-0.2-0.6-0.3-0.8c-0.2-0.4-0.1-0.7,0.3-1c0.9-0.7,3-0.5,3.8,0.4c0.2,0.3,0.4,0.6,0.2,1
					c-0.3,0.4-0.7,0.4-1.1,0.4c-0.2,0-0.1-0.2-0.1-0.3c-0.1-0.8-0.3-1.1-1.1-1.4c-0.4-0.1-0.5,0-0.5,0.4s0.2,0.8,0.4,1.1
					c0.4,0.7,0.9,1.4,1.4,2c-0.6,0.4-1.2,0.3-1.6-0.1c-0.8-0.8-1.8-1.2-2.9-1.5c-0.2-0.1-0.4-0.1-0.5-0.3
					C489,39.1,489.7,39.3,490.4,39.5z"/>
				<path class="st0" d="M489.3,64.9c0.1-0.5,0.1-1,0.2-1.4c0.1-0.3,0-0.4-0.3-0.6c-1-0.5-1-0.5-0.8-1.6c0.2-1,0.2-1,1.2-0.7
					c0.3,0.1,0.7,0.1,1,0.4c0.2,0.3-0.1,0.6-0.1,1c-0.2,1-0.2,1,0.8,1.4c0.4,0.2,0.6,0.4,0.5,0.9c-0.1,0.4-0.1,0.9-0.2,1.3
					c0,0.2-0.1,0.4-0.3,0.3c-0.5-0.2-1-0.2-1.5-0.5C489.4,65.2,489.2,65.1,489.3,64.9z"/>
				<path class="st0" d="M407.6,8.1c0.5,0.1,0.9,0.2,1.3,0.4c0.4,0.1,0.6,0.1,0.8-0.3c0.6-0.9,0.6-0.9,1.7-0.6c0.4,0.1,0.9,0,1,0.3
					c0.1,0.3-0.2,0.7-0.4,1c-0.5,1.1-0.3,0.9-1.4,0.7c0,0,0,0-0.1,0c-0.4-0.1-0.8-0.3-1.1-0.3c-0.3,0.1-0.4,0.6-0.6,0.9
					c-0.2,0.2-0.3,0.3-0.6,0.2c-0.5-0.1-1-0.2-1.5-0.3c-0.1,0-0.3-0.1-0.2-0.3c0.3-0.6,0.5-1.1,0.8-1.7
					C407.5,8.1,407.6,8.1,407.6,8.1z"/>
				<path class="st0" d="M448.1,10.9c-0.1-0.1-0.2-0.1-0.3-0.2c-0.4-0.4-0.7-0.7-1.1-1.1c-0.2-0.2-0.1-0.2,0-0.4
					c1.3-1,1.4-1,2.6,0.2c0.4,0.4,0.7,0.5,1.2,0.2c0.7-0.5,1.2-0.3,1.7,0.3c0.8,0.9,0.9,0.8-0.1,1.5c-0.8,0.5-0.8,0.5-1.5-0.1
					c-0.3-0.2-0.6-0.5-0.8-0.7c-0.2-0.3-0.4-0.3-0.7-0.1C448.7,10.6,448.4,10.8,448.1,10.9z"/>
				<path class="st0" d="M484.8,28.3c-0.5,0-0.8,0.1-1.2,0.1c-1,0-0.8,0.2-1.1-0.8v-0.1c-0.1-0.3-0.1-0.7-0.4-1c-0.2-0.2-0.6,0-1,0
					c-0.3,0-0.5-0.1-0.5-0.4c-0.1-0.4-0.3-0.9-0.4-1.3c-0.1-0.3,0-0.4,0.3-0.4h0.1c0.5,0,1-0.3,1.4-0.1c0.4,0.2,0.3,0.8,0.4,1.3
					c0.1,0.4,0.4,0.5,0.8,0.5c1,0,1,0,1.2,0.9C484.5,27.4,484.7,27.8,484.8,28.3z"/>
				<path class="st0" d="M390.7,34.6c-0.3,0-0.6,0.3-0.9,0.4s-0.4,0.1-0.6-0.2c-0.4-0.9-0.5-1.8,0-2.6c0.2-0.4,0.5-0.7,1-0.5
					c0.5,0.1,0.3,0.6,0.4,1c-0.4-0.1-0.6-0.1-0.9,0.1c-0.2,0.2-0.4,0.4-0.4,0.7c-0.1,0.1-0.2,0.3,0,0.5c0.2,0.1,0.3,0,0.5,0
					c0.6-0.3,1.3-0.7,1.8-1.2c0.2-0.1,0.3-0.3,0.5-0.4c0.3,0.6,0.3,1-0.2,1.5c-0.6,0.6-0.8,1.5-1.1,2.5
					C390.5,35.6,390.7,35.1,390.7,34.6z"/>
				<path class="st0" d="M373.3,30c0-0.8,0-1.5,0-2.3c0-0.2,0.1-0.3,0.3-0.3c0.6-0.1,1.2-0.3,1.8-0.5c0.2-0.1,0.3,0,0.3,0.2
					c0,0.6,0,1.2,0,1.8c0,0.2,0,0.3-0.2,0.3C374.8,29.5,374,29.7,373.3,30z"/>
				<path class="st0" d="M350,75.4c0.2,0,0.2,0.1,0.3,0.2c0.4,0.4,0.6,0.9,0.9,1.3c0,0.1,0.1,0.2,0,0.2c-0.3,0.5-0.8,1-1.2,1.4
					c-0.1,0.1-0.2-0.1-0.3-0.1c-0.4-0.3-0.8-0.7-1.1-1.1c-0.1-0.2-0.2-0.4,0-0.6c0.4-0.5,0.8-0.9,1.3-1.3
					C349.9,75.5,349.9,75.5,350,75.4z"/>
				<path class="st0" d="M488.7,120.1c-0.7,0-1.2-0.5-1.2-1.1c0-0.7,0.6-1.3,1.2-1.4c0.7,0,1.2,0.5,1.2,1.2
					C489.9,119.4,489.3,120,488.7,120.1z"/>
				<path class="st0" d="M477.6,132.4c0-0.7,0.6-1.3,1.3-1.3s1.2,0.5,1.2,1.1c0,0.7-0.6,1.3-1.3,1.3
					C478.1,133.6,477.6,133.1,477.6,132.4z"/>
				<path class="st0" d="M405.3,150.1c0,0.7-0.5,1.2-1.2,1.2s-1.4-0.6-1.4-1.2c0-0.7,0.5-1.2,1.2-1.2
					C404.7,148.9,405.3,149.4,405.3,150.1z"/>
				<path class="st1" d="M485.4,44.5L485.4,44.5C485.5,44.5,485.5,44.6,485.4,44.5C485.5,44.5,485.4,44.5,485.4,44.5z"/>
				<path class="st2" d="M405.5,99.5c1.3,1.4,2.5,2.9,3.7,4.3c4.3,4.9,6.7,10.6,8,16.9c0,0.1,0.1,0.2,0.1,0.3
					c0.2,1.2,0.4,2.4,0.5,3.6c0.1,0.8,0,1.7,0,2.5c-0.1,1.8-0.2,3.7,0.2,5.5c0.2,0.8,0.5,1.6,1.1,2.2c0.3,0.3,0.6,0.7,0.7,1.1
					c0.7,1.5,0.3,2.8-1,3.8c-0.8,0.5-1.7,1.1-2.5,1.6c-0.3,0.2-0.6,0.2-1,0.2c-1.3-0.3-2.2-1-2.9-2c-1.6-2.4-3.7-4.3-5.8-6.3
					c-1.7-1.5-3.6-2.6-5.4-4c-1.7-1.4-3.4-2.8-5-4.3c-3.3-3.1-6.4-6.5-9-10.3c-1.8-2.7-3.4-5.5-4.2-8.7c-0.4-1.5-0.5-3.1-0.7-4.6
					c-0.3-2.5-0.6-5-0.7-7.6c-0.1-2.4-0.1-4.9-0.1-7.3c0.1-3.9,0.9-7.7,2.5-11.2c0.2-0.4,0.4-0.7,0.6-1.1c0.2-0.3,0.4-0.6,0.9-0.6
					c0.4,0,0.7,0.4,0.9,0.7c0.3,0.6,0.3,1.3,0.1,1.9c-0.5,2.1-0.2,4.2,0.1,6.3c0.5,3.7,1.2,7.3,2,10.9c0.5,2.1,1.4,3.9,2.5,5.7
					c2.6,4.1,5.7,7.7,9.7,10.5c0.2,0.1,0.4,0.2,0.6,0.3h0.1v-0.1c-0.8-1.2-1.6-2.4-2.5-3.6c-1.7-2.4-2.9-4.9-3.6-7.8
					c-0.6-2.5-1.3-5-1.6-7.6c-0.1-0.7-0.1-1.3,0.2-1.9c0.2-0.6,0.5-1.1,1.2-1.1c0.6-0.1,1.1,0.3,1.5,0.7c0.9,1.1,1.4,2.4,2.1,3.6
					c0.8,1.3,1.5,2.7,2.6,3.8c0.4,0.5,0.9,0.8,1.4,1.2C403.8,97.8,404.7,98.6,405.5,99.5z"/>
				<path class="st2" d="M477.9,89.6c-1.4-0.3-2.3-1.3-3-2.5c-0.4-0.6-1-1-1.6-1.4c-1.2-0.7-2.5-1.2-3.9-1.5
					c-2.7-0.6-5.2-1.7-7.6-3.2c-2.9-1.8-5.7-3.7-8.2-6.2c-2.1-2.1-3.8-4.7-5.4-7.2c-1.4-2.3-2.9-4.5-3.8-7.1c-0.7-2.1-2-3.7-3.4-5.3
					c-0.9-1-1.9-2-2.8-3.1c-0.4-0.6-0.9-1.3-0.4-2s1.2-0.7,2-0.6c1.1,0.1,2,0.7,2.9,1.2c2.5,1.4,4.9,3,7.3,4.6
					c1.5,1,2.6,2.4,3.7,3.8c1,1.2,1.9,2.5,2.8,3.7c0.1,0.1,0.1,0.3,0.3,0.3c0.1-0.2,0-0.3,0-0.5c-0.7-2.7-1.9-5.2-3.4-7.5
					c-1.4-2.3-3-4.4-4.8-6.4c-1.4-1.6-3.2-2.7-5-3.7c-3.4-1.9-6.8-3.8-10.4-5.4c-1.3-0.6-2.7-0.9-4.2-1.1c-0.6-0.1-1.2-0.4-1.6-0.8
					c-0.5-0.6-0.3-1.2,0.4-1.5c0.9-0.3,1.9-0.3,2.9-0.4c3.5-0.3,6.9,0.3,10.3,1.3c4.8,1.4,9.4,3.3,14,5.4c2.7,1.3,5.3,2.7,7.4,4.9
					c1.5,1.5,2.9,3.1,4.1,4.9c4,5.7,7.2,11.8,9.3,18.4c1.1,3.3,2.3,6.4,4,9.4c0.5,0.9,1,1.7,1.7,2.5c0.9,1,1.3,2.3,1.1,3.6
					c0,0.3-0.1,0.6-0.4,0.8c-0.8,0.6-1.6,1.3-2.3,1.9C479.4,89.3,478.7,89.6,477.9,89.6z M457,63.2L457,63.2
					C457,63.3,457,63.3,457,63.2C457,63.3,457.1,63.3,457,63.2C457.1,63.3,457,63.2,457,63.2z"/>
				<path class="st1" d="M457,63.2C457,63.2,457.1,63.3,457,63.2C457.1,63.3,457,63.3,457,63.2C457,63.3,457,63.3,457,63.2L457,63.2
					z"/>
				<path class="st1" d="M433.5,93.3h-0.1C433.4,93.3,433.4,93.3,433.5,93.3C433.4,93.2,433.4,93.3,433.5,93.3z"/>
				<path class="st1" d="M433.8,72c0,0-0.1,0.1-0.1,0C433.6,72,433.7,72,433.8,72C433.7,72,433.7,72,433.8,72z"/>
				<g>
					<g>
						<path class="st3" d="M466.3,92.2c-8.4-0.8-11.7-6.8-14.7-13.4c-2.2-4.9-7.6-12.1-13.8-11.8c-5.5,0.2-9.3-2.2-13.1-5.5
							c-6.5-5.6-13.4-9.7-22.1-4c2.8,3.8,0.4,8.3-5,8.8c-1.5,0.2-3.1-1-3.6,1.7c-0.3,1.9-0.9,3.3,1.6,4.2c1.1,0.5,1.9,2.2,2.5,3.4
							c3.7,7.9,11.9,13.4,12.4,23.1c0.1,1.2,1.5,2.7,2.7,3.3c2.6,1.2,3.4,3.5,4.7,5.7c1.9,3.2,4.2,6.2,7.7,11.2
							c-0.8-6.8,2.6-5.6,5.1-5.6c2.5,0.1,5.2,0,7.5,0.8c2,0.7,3,0.6,4-1.1c2.1-3.8,5.9-4.9,9.7-5c5.4-0.2,10.2-2.3,15.2-3.9
							c4.4-1.4,4.3-5.6,4.6-8.9C471.9,92,468.4,92.3,466.3,92.2L466.3,92.2z"/>
					</g>
				</g>
				<g>
					<g>
						<line class="st4" x1="442.9" y1="94.1" x2="427" y2="102.2"/>
						
							<rect x="426.1" y="97.6" transform="matrix(0.8895 -0.457 0.457 0.8895 3.2506 209.6133)" class="st1" width="17.8" height="1"/>
					</g>
					<g>
						<line class="st4" x1="420.6" y1="93.8" x2="436.2" y2="102.3"/>
						
							<rect x="427.9" y="89.2" transform="matrix(0.4789 -0.8779 0.8779 0.4789 137.1311 427.2587)" class="st1" width="1" height="17.8"/>
					</g>
				</g>
				<g>
					<path class="st1" d="M433.8,77.3c0.8-0.3,1.5-0.7,2.4-0.8c0.3-0.1,0.6-0.1,0.9,0c0.2,0,0.3,0.1,0.2,0.3
						c-0.3,0.6-0.7,1.1-1.3,1.5c0.5,0.1,1,0.1,1.4,0.3c0.3,0.1,0.6,0.3,0.6,0.5c0,0.3-0.4,0.3-0.7,0.4c-0.1,0-0.2,0.1-0.4,0.1
						c0.5,0.3,0.9,0.5,1.2,0.8c0.1,0.1,0.3,0.3,0.2,0.5c-0.1,0.2-0.3,0.2-0.5,0.2c-0.6,0.1-1.3,0.1-2,0c0.5,0.4,0.9,0.8,1.2,1.2
						c0.4,0.5,0.7,1.1,0.5,1.8c-0.1,0.5-0.2,0.5-0.5,0.2c-0.6-0.6-1.1-1.1-1.9-1.6c0.2,0.6,0.4,1,0.4,1.5c0,0.6-0.1,0.6-0.6,0.4
						c-0.8-0.4-1.5-0.9-2.1-1.7c-0.1,0.4,0,0.8,0,1.1c0,0.2,0,0.4,0,0.6c0,0.8,0,0.8-0.7,1c0.2,0.3,0.8,0,0.7,0.6c0,0.4,0,0.7,0,1.1
						c0,0.4-0.5,0.2-0.8,0.5c0.6,0.1,0.9,0.3,0.8,0.9c-0.1,0.5-0.6,0.2-0.8,0.5c0.4,0.1,0.9,0.2,0.8,0.8c-0.1,0.5-0.5,0.3-0.8,0.6
						c0.6,0.1,0.9,0.3,0.7,0.9c-0.1,0.4-0.5,0.2-0.7,0.5c0.5,0.1,0.9,0.3,0.7,1c-0.1,0.4-0.6,0.2-0.8,0.4c0.2,0.1,0.3,0.1,0.5,0.2
						c0.1,0,0.2,0.1,0.2,0.1c0,0.5,0.3,0.3,0.6,0.4c0.3,0,0.5,0.1,0.2,0.4c0,0.1-0.1,0.1-0.1,0.2v0.1h0.1c0.1,0,0.2,0,0.3,0
						c0.2,0,0.5,0,0.6,0.2s-0.2,0.3-0.3,0.4c-0.2,0.2-0.2,0.4,0.1,0.5c0.4,0.1,0.2,0.3,0,0.5c-0.5,0.4-1.2,0.5-1.8,0.5
						c-0.8,0-1.6,0.1-2.5-0.1c-0.3-0.1-0.6-0.2-0.9-0.4c-0.2-0.2-0.3-0.3,0.1-0.4c0.2-0.1,0.4-0.2,0.1-0.4c-0.1-0.1-0.4-0.3-0.3-0.4
						c0.1-0.2,0.4-0.2,0.7-0.2c0.1,0,0.2,0,0.3,0.1V95c-0.3-0.6-0.3-0.6,0.4-0.6c0.2,0,0.3-0.1,0.3-0.3c0-0.5,0-0.5,0.6-0.7
						c-0.2-0.2-0.6-0.1-0.6-0.5c0-0.5,0.4-0.4,0.6-0.6c-0.2-0.1-0.6-0.1-0.6-0.5s0.3-0.4,0.6-0.5c-0.1-0.1-0.2-0.1-0.3-0.2
						c0.1-0.1,0.2-0.1,0.5-0.2c-0.7,0-0.7-0.4-0.7-0.8c0-0.5,0.3-0.4,0.6-0.6c-0.2-0.1-0.6-0.1-0.6-0.5s-0.1-0.8,0.6-0.9
						c-0.3-0.2-0.6-0.1-0.6-0.6c0-0.4,0.4-0.4,0.6-0.5c-0.2-0.2-0.6-0.1-0.6-0.5s0.3-0.4,0.6-0.5c-0.2-0.2-0.5-0.1-0.5-0.4
						c0-0.3,0.4-0.2,0.5-0.4c-0.7,0-0.6-0.5-0.6-0.9c0-0.3,0-0.7,0-1.2c-0.6,0.9-1.4,1.4-2.2,1.8c-0.5,0.3-0.6,0.2-0.6-0.4
						c0-0.5,0.2-1,0.4-1.5c-0.4,0.2-0.7,0.4-0.9,0.7c-0.4,0.3-0.7,0.6-1,1c-0.2,0.3-0.3,0.2-0.4-0.1c-0.2-0.5-0.1-0.9,0.1-1.4
						c0.3-0.7,0.9-1.2,1.6-1.8c-0.2,0-0.4,0-0.5,0.1c-0.6,0.1-1.2,0-1.7-0.1c-0.3,0-0.3-0.2-0.2-0.4c0.2-0.4,0.6-0.6,0.9-0.8
						c0.1-0.1,0.3-0.1,0.5-0.2c-0.3-0.1-0.6-0.2-0.9-0.3c-0.3-0.2-0.3-0.3-0.1-0.5c0.4-0.4,1-0.4,1.5-0.5c0.1,0,0.2,0,0.4,0
						c-0.6-0.4-1-0.8-1.3-1.3c-0.2-0.5-0.2-0.6,0.4-0.6c0.9,0,1.8,0.4,2.6,0.7c0.2,0.1,0.3,0.1,0.6,0.3c-0.4-0.6-0.4-1.2-0.4-1.8
						c0-0.3,0-0.7,0.2-0.8c0.3-0.1,0.6,0.1,0.9,0.3c0.5,0.3,0.8,0.8,1.1,1.4c0.2-0.3,0.4-0.6,0.6-0.9c0.3-0.4,0.7-0.6,1.2-0.8
						c0.3-0.1,0.4,0,0.5,0.3C434.1,75.8,434,76.5,433.8,77.3c-0.1,0-0.1,0-0.1,0H433.8z M432.1,79.7c1.4-0.5,2.8-0.7,4.2-1.1
						c-1.5,0.1-2.9,0.5-4.3,0.8c1-0.9,2.1-1.7,3.2-2.6c-0.3,0-0.4,0.1-0.5,0.2c-0.9,0.7-1.7,1.3-2.6,2c-0.1,0.1-0.2,0.2-0.3,0.2
						c-0.1-0.1-0.1-0.3-0.1-0.4c0.4-1,0.7-1.9,1.1-2.9c0.1-0.2,0.2-0.3,0.2-0.5c-0.7,1-1,2.1-1.5,3.2c-0.2-0.6-0.4-1.2-0.7-1.7
						c-0.5-1.3-0.5-1.3-0.9-1.5c0.6,1.1,1,2.2,1.4,3.3c0.1,0.2,0.1,0.4-0.1,0.6c-1.1-0.8-2.1-1.7-3.2-2.3c1,0.9,2.2,1.7,3.2,2.6
						c-1.4-0.3-2.9-0.7-4.4-0.8c1.4,0.4,2.9,0.6,4.2,1.1c-0.5,0-1-0.1-1.6-0.1c-0.5,0-1.1,0-1.6,0s-1,0-1.5,0.2
						c1.4,0,2.8-0.1,4.3,0.1c-0.3,0.1-0.4,0.4-0.6,0.5c-1.3,0.6-2.4,1.5-3.4,2.4c-0.1,0.1-0.3,0.2-0.3,0.5c0.7-0.6,1.4-1.2,2.1-1.7
						s1.5-1,2.4-1.1c-1,0.7-1.8,1.7-2.4,2.7c0.2,0,0.3-0.2,0.3-0.3c0.6-0.7,1.1-1.5,1.9-2c0.6-0.4,0.9-0.4,1.5,0
						c0.8,0.5,1.3,1.3,1.9,2c0.1,0.1,0.1,0.3,0.4,0.4c-0.7-1.1-1.5-2-2.4-2.8c1.8,0.5,3.1,1.7,4.5,2.7c-1.1-1.1-2.4-2.1-3.9-2.8
						c0.1,0,0.2-0.1,0.3-0.1c-0.1-0.1-0.2-0.1-0.3-0.3c1.5,0.1,2.9,0.5,4.4,0.6C435.6,80.2,433.9,79.8,432.1,79.7z"/>
					<path class="st3" d="M432.1,79.7c1.8,0.1,3.5,0.4,5.2,0.9c-1.5-0.2-2.9-0.6-4.4-0.6c0,0.2,0.2,0.1,0.3,0.3
						c-0.1,0-0.2,0-0.3,0.1c1.5,0.7,2.8,1.7,3.9,2.8c-1.4-1-2.7-2.2-4.5-2.7c0.9,0.8,1.7,1.7,2.4,2.8c-0.3-0.1-0.4-0.2-0.4-0.4
						c-0.6-0.7-1.1-1.5-1.9-2c-0.6-0.4-0.9-0.4-1.5,0c-0.8,0.6-1.3,1.3-1.9,2c-0.1,0.1-0.1,0.3-0.3,0.3c0.6-1.1,1.4-2,2.4-2.7
						c-0.9,0.1-1.7,0.6-2.4,1.1c-0.7,0.5-1.4,1.1-2.1,1.7c0-0.3,0.1-0.4,0.3-0.5c1.1-0.9,2.1-1.8,3.4-2.4c0.2-0.1,0.3-0.4,0.6-0.5
						c-1.4-0.2-2.8-0.1-4.3-0.1c0.5-0.2,1-0.1,1.5-0.2c0.5,0,1.1,0,1.6,0s1,0,1.6,0.1c-1.4-0.5-2.8-0.7-4.2-1.1
						c1.5,0.1,2.9,0.5,4.4,0.8c-1-0.9-2.1-1.7-3.2-2.6c1.1,0.7,2.2,1.5,3.2,2.3c0.2-0.2,0.1-0.4,0.1-0.6c-0.4-1.1-0.8-2.2-1.4-3.3
						c0.3,0.2,0.4,0.2,0.9,1.5c0.2,0.5,0.4,1.1,0.7,1.7c0.5-1.1,0.8-2.3,1.5-3.2c0.1,0.2-0.1,0.3-0.2,0.5c-0.4,0.9-0.8,1.9-1.1,2.9
						c-0.1,0.2-0.1,0.3,0.1,0.4c0.1,0.1,0.2-0.1,0.3-0.2c0.9-0.7,1.7-1.3,2.6-2c0.1-0.1,0.2-0.2,0.5-0.2c-1.1,0.9-2.2,1.6-3.2,2.6
						c1.4-0.3,2.9-0.6,4.3-0.8C434.9,79.1,433.5,79.3,432.1,79.7z"/>
				</g>
			</g>
		</g>
	</g>
</g>
</svg>
