<svg width="9" height="15" viewBox="0 0 9 15" fill="none" xmlns="http://www.w3.org/2000/svg">
<path d="M8.17699 8.43804L8.59399 5.72303H5.99399V3.96103C5.97572 3.75829 6.0033 3.55404 6.07468 3.3634C6.14606 3.17277 6.25942 3.00063 6.40635 2.85975C6.55328 2.71887 6.73003 2.61284 6.9235 2.54954C7.11697 2.48623 7.3222 2.46726 7.52399 2.49403H8.70799V0.183035C8.01042 0.0705208 7.30552 0.00935651 6.59899 3.48873e-05C6.11449 -0.0368388 5.6278 0.0332828 5.17341 0.205432C4.71902 0.377581 4.30804 0.647546 3.9696 0.996202C3.63115 1.34486 3.37352 1.76367 3.21494 2.22298C3.05637 2.68228 3.00074 3.17084 3.05199 3.65403V5.72303H0.666992V8.43804H3.05099V15H5.98599V8.43804H8.17699Z" fill="#E8EBF8"/>
</svg>
