<svg width="169" height="50" viewBox="0 0 169 50" fill="none" xmlns="http://www.w3.org/2000/svg">
<g id="Group">
<path id="Vector" d="M166.75 44.988C166.75 45.6466 166.626 46.2988 166.386 46.9072C166.146 47.5156 165.794 48.0684 165.35 48.5339C164.906 48.9993 164.379 49.3684 163.799 49.62C163.219 49.8716 162.597 50.0007 161.97 50H5.53642C4.26852 50.0014 3.05201 49.4742 2.15442 48.5343C1.25682 47.5944 0.751652 46.3187 0.75 44.988V5.01858C0.751652 3.6872 1.25662 2.41092 2.15404 1.46997C3.05145 0.529032 4.26795 0.000345587 5.53642 0H161.969C162.596 -2.24152e-08 163.218 0.129819 163.798 0.382042C164.378 0.634266 164.905 1.00395 165.349 1.46999C165.793 1.93602 166.145 2.48928 166.385 3.09815C166.625 3.70703 166.749 4.35959 166.749 5.01858L166.75 44.988Z" fill="#0B174D"/>
<path id="Vector_2" d="M37.0673 24.7369C37.0311 20.707 40.3679 18.7465 40.5204 18.6552C38.6307 15.9007 35.7016 15.5243 34.6723 15.4943C32.2122 15.2355 29.8259 16.966 28.5727 16.966C27.2945 16.966 25.3648 15.5193 23.2849 15.5618C20.6084 15.6031 18.1046 17.1523 16.7313 19.5579C13.8973 24.463 16.011 31.6713 18.7262 35.6361C20.0844 37.5791 21.6715 39.746 23.7489 39.6697C25.7812 39.5872 26.5404 38.3756 28.993 38.3756C31.423 38.3756 32.1359 39.6697 34.2546 39.6209C36.4357 39.5872 37.809 37.6704 39.1197 35.7111C40.6893 33.4868 41.3196 31.2937 41.3446 31.1811C41.2946 31.1636 37.1098 29.5657 37.0673 24.7369ZM33.0652 12.8861C34.1583 11.5195 34.9062 9.66021 34.6985 7.77344C33.1164 7.84346 31.1379 8.86749 29.9985 10.2041C28.9905 11.3819 28.09 13.3125 28.3226 15.128C30.0998 15.2605 31.9245 14.2315 33.0652 12.8861Z" fill="white"/>
<path id="Vector_3" d="M162.222 0H78.1707L111.092 50H162.222C163.789 49.9987 165.292 49.3761 166.401 48.2689C167.509 47.1617 168.134 45.6601 168.137 44.0934V5.90912C168.134 4.34209 167.51 2.84005 166.401 1.73234C165.293 0.624631 163.79 0.00165285 162.222 0Z" fill="url(#paint0_linear_321_3120)"/>
<g id="Group_2">
<path id="Vector_4" d="M66.5045 39.3908H63.6642L62.1083 34.5032H56.7004L55.2184 39.3908H52.4531L57.8123 22.7512H61.1216L66.5045 39.3908ZM61.6393 32.4526L60.2323 28.1077C60.0835 27.6638 59.8033 26.6185 59.3931 24.9731H59.3431C59.178 25.6808 58.9141 26.726 58.5527 28.1077L57.1694 32.4526H61.6393ZM80.2594 33.2441C80.2594 35.2846 79.7053 36.8976 78.596 38.0817C77.6029 39.1357 76.3685 39.6621 74.8965 39.6621C73.3069 39.6621 72.1638 39.0957 71.4696 37.9604V44.2559H68.8032V31.3361C68.8032 30.0545 68.7694 28.7403 68.7044 27.3925H71.0494L71.1982 29.2943H71.2483C72.1375 27.8614 73.487 27.1449 75.298 27.1449C76.7137 27.1449 77.8956 27.7038 78.8411 28.8229C79.7854 29.9444 80.2594 31.4173 80.2594 33.2441ZM77.5429 33.3416C77.5429 32.1738 77.2803 31.211 76.7525 30.4521C76.1759 29.6631 75.4018 29.268 74.4312 29.268C73.7734 29.268 73.1756 29.4881 72.6415 29.9219C72.1062 30.3595 71.756 30.931 71.5922 31.6386C71.5191 31.9033 71.4775 32.1757 71.4684 32.4501V34.4519C71.4684 35.3234 71.736 36.0599 72.2713 36.6625C72.8066 37.2627 73.502 37.564 74.3574 37.564C75.3617 37.564 76.1434 37.1752 76.7025 36.4037C77.2628 35.6297 77.5429 34.6095 77.5429 33.3416ZM94.0631 33.2441C94.0631 35.2846 93.509 36.8976 92.3997 38.0817C91.4054 39.1357 90.1722 39.6621 88.6989 39.6621C87.1093 39.6621 85.9662 39.0957 85.2721 37.9604V44.2559H82.6057V31.3361C82.6057 30.0545 82.5719 28.7403 82.5068 27.3925H84.8519L85.0007 29.2943H85.0507C85.9387 27.8614 87.2882 27.1449 89.1004 27.1449C90.5149 27.1449 91.6968 27.7038 92.6448 28.8229C93.5878 29.9444 94.0631 31.4173 94.0631 33.2441ZM91.3454 33.3416C91.3454 32.1738 91.0815 31.211 90.5537 30.4521C89.9771 29.6631 89.2055 29.268 88.2349 29.268C87.5771 29.268 86.9793 29.4881 86.4427 29.9219C85.9074 30.3595 85.5585 30.931 85.3947 31.6386C85.3134 31.9687 85.2696 32.2376 85.2696 32.4501V34.4519C85.2696 35.3234 85.5385 36.0599 86.0713 36.6625C86.6066 37.2614 87.3019 37.564 88.1599 37.564C89.1654 37.564 89.9471 37.1752 90.5049 36.4037C91.0652 35.6297 91.3454 34.6095 91.3454 33.3416ZM109.496 34.7232C109.496 36.1399 109.001 37.2914 108.017 38.1804C106.934 39.1507 105.422 39.6371 103.483 39.6371C101.692 39.6371 100.256 39.292 99.1733 38.6006L99.7899 36.3787C100.959 37.0714 102.244 37.4165 103.642 37.4165C104.648 37.4165 105.429 37.1889 105.987 36.7375C106.546 36.2849 106.829 35.6798 106.829 34.9245C106.829 34.2481 106.595 33.6817 106.136 33.2203C105.674 32.7602 104.911 32.3313 103.84 31.9375C100.926 30.8509 99.4673 29.2617 99.4673 27.1712C99.4673 25.8058 99.9825 24.688 101.011 23.814C102.039 22.9413 103.402 22.5049 105.098 22.5049C106.612 22.5049 107.874 22.7687 108.876 23.2951L108.207 25.4682C107.264 24.9581 106.2 24.703 105.009 24.703C104.068 24.703 103.331 24.9343 102.803 25.3944C102.359 25.8058 102.134 26.3072 102.134 26.9023C102.134 27.5588 102.39 28.1039 102.9 28.5315C103.343 28.9254 104.151 29.3543 105.319 29.8144C106.752 30.392 107.806 31.0647 108.48 31.8374C109.159 32.6102 109.496 33.5742 109.496 34.7232ZM118.335 29.393H115.396V35.2184C115.396 36.7 115.914 37.439 116.952 37.439C117.428 37.439 117.823 37.399 118.136 37.3152L118.21 39.3395C117.685 39.5358 116.993 39.6346 116.136 39.6346C115.083 39.6346 114.26 39.3133 113.666 38.6706C113.075 38.0279 112.777 36.9514 112.777 35.4359V29.388H111.026V27.3875H112.777V25.1906L115.396 24.4004V27.3875H118.335V29.393ZM131.57 33.2928C131.57 35.1371 131.042 36.6513 129.989 37.8353C128.887 39.0544 127.421 39.6621 125.594 39.6621C123.83 39.6621 122.428 39.0782 121.383 37.9116C120.337 36.7425 119.814 35.2696 119.814 33.4929C119.814 31.6336 120.355 30.1107 121.432 28.9266C122.511 27.7413 123.964 27.1487 125.791 27.1487C127.552 27.1487 128.967 27.7338 130.037 28.9016C131.061 30.0345 131.57 31.4974 131.57 33.2928ZM128.806 33.3541C128.806 32.2551 128.568 31.3123 128.091 30.5233C127.532 29.5706 126.732 29.0942 125.695 29.0942C124.627 29.0942 123.808 29.5706 123.25 30.5233C122.772 31.3123 122.535 32.2713 122.535 33.4041C122.535 34.5044 122.772 35.4497 123.25 36.2362C123.827 37.1889 124.631 37.6653 125.673 37.6653C126.692 37.6653 127.491 37.1789 128.069 36.2124C128.559 35.4047 128.806 34.4557 128.806 33.3541ZM140.241 29.7369C139.963 29.6868 139.682 29.6621 139.4 29.6631C138.462 29.6631 137.737 30.0157 137.226 30.7259C136.784 31.3511 136.561 32.1413 136.561 33.0953V39.3908H133.895V31.171C133.897 29.9115 133.871 28.6521 133.817 27.3937H136.14L136.237 29.6894H136.311C136.594 28.9004 137.036 28.264 137.644 27.7876C138.2 27.3713 138.876 27.1459 139.571 27.1449C139.818 27.1449 140.04 27.1624 140.238 27.1937L140.241 29.7369ZM152.166 32.824C152.172 33.2292 152.14 33.6341 152.068 34.0331H144.069C144.099 35.2184 144.487 36.1261 145.229 36.7513C145.904 37.309 146.775 37.589 147.846 37.589C149.03 37.589 150.111 37.4015 151.083 37.0226L151.5 38.8719C150.365 39.367 149.024 39.6133 147.477 39.6133C145.616 39.6133 144.155 39.0657 143.092 37.9729C142.031 36.8788 141.5 35.4084 141.5 33.5667C141.5 31.7587 141.994 30.252 142.983 29.0504C144.019 27.7676 145.418 27.1262 147.179 27.1262C148.909 27.1262 150.218 27.7676 151.108 29.0504C151.812 30.067 152.166 31.3273 152.166 32.824ZM149.623 32.1325C149.642 31.3411 149.467 30.6596 149.105 30.0832C148.644 29.3405 147.933 28.9704 146.982 28.9704C146.11 28.9704 145.4 29.3318 144.859 30.057C144.415 30.6334 144.151 31.3261 144.07 32.13L149.623 32.1325Z" fill="white"/>
</g>
<g id="Group_3">
<path id="Vector_5" d="M55.9312 16.8685C55.1895 16.8685 54.548 16.8322 54.0139 16.771V8.72625C54.7608 8.6109 55.5156 8.55404 56.2714 8.5562C59.3293 8.5562 60.7375 10.0604 60.7375 12.5123C60.7375 15.3406 59.0741 16.8685 55.9312 16.8685ZM56.3789 9.58774C55.9662 9.58774 55.6148 9.61274 55.3234 9.67276V15.7882C55.481 15.8132 55.7836 15.8245 56.2088 15.8245C58.2124 15.8245 59.353 14.6841 59.353 12.5486C59.353 10.6443 58.3212 9.58774 56.3789 9.58774ZM65.1262 16.9298C63.4027 16.9298 62.2859 15.6432 62.2859 13.8964C62.2859 12.0759 63.4265 10.7781 65.2237 10.7781C66.9221 10.7781 68.064 12.0034 68.064 13.8001C68.064 15.6432 66.8871 16.9298 65.1262 16.9298ZM65.1762 11.7358C64.2294 11.7358 63.6229 12.6211 63.6229 13.8589C63.6229 15.073 64.2419 15.9582 65.1637 15.9582C66.0854 15.9582 66.7045 15.0117 66.7045 13.8339C66.7045 12.6336 66.0979 11.7358 65.1762 11.7358ZM77.8918 10.8993L76.0471 16.796H74.8452L74.081 14.2353C73.891 13.6089 73.7328 12.9733 73.607 12.331H73.582C73.4857 12.9737 73.3031 13.6176 73.1092 14.2353L72.2963 16.796H71.0819L69.3459 10.8993H70.6929L71.3608 13.7026C71.5184 14.3703 71.6509 15.0005 71.761 15.5956H71.786C71.8823 15.0993 72.0399 14.4791 72.2713 13.7151L73.1092 10.9006H74.1773L74.979 13.6551C75.1728 14.3228 75.3304 14.978 75.453 15.5969H75.488C75.573 14.9905 75.7069 14.3465 75.8882 13.6551L76.6049 10.9006L77.8918 10.8993ZM84.683 16.796H83.3723V13.41C83.3723 12.3673 82.972 11.8446 82.1829 11.8446C81.4062 11.8446 80.8722 12.5123 80.8722 13.2888V16.796H79.5615V12.5848C79.5615 12.0634 79.5489 11.5045 79.5127 10.8981H80.6658L80.7271 11.8083H80.7634C81.116 11.1782 81.8314 10.7781 82.6331 10.7781C83.8713 10.7781 84.6842 11.7246 84.6842 13.265L84.683 16.796ZM88.2974 16.796H86.9855V8.1936H88.2974V16.796ZM93.0762 16.9298C91.3541 16.9298 90.236 15.6432 90.236 13.8964C90.236 12.0759 91.3766 10.7781 93.1725 10.7781C94.8722 10.7781 96.0128 12.0034 96.0128 13.8001C96.0141 15.6432 94.8359 16.9298 93.0762 16.9298ZM93.125 11.7358C92.1783 11.7358 91.5717 12.6211 91.5717 13.8589C91.5717 15.073 92.192 15.9582 93.1113 15.9582C94.0343 15.9582 94.6521 15.0117 94.6521 13.8339C94.6533 12.6336 94.048 11.7358 93.125 11.7358ZM101.181 16.796L101.086 16.117H101.051C100.65 16.6634 100.066 16.9298 99.3259 16.9298C98.269 16.9298 97.5186 16.1896 97.5186 15.1943C97.5186 13.7389 98.7806 12.9862 100.966 12.9862V12.8774C100.966 12.1009 100.554 11.7121 99.7411 11.7121C99.1595 11.7121 98.6493 11.8584 98.2003 12.1497L97.9339 11.2882C98.4792 10.9481 99.1595 10.7781 99.9587 10.7781C101.5 10.7781 102.277 11.5908 102.277 13.2175V15.3893C102.277 15.9845 102.304 16.4459 102.363 16.7972L101.181 16.796ZM101.001 13.8589C99.5447 13.8589 98.8143 14.2115 98.8143 15.048C98.8143 15.6669 99.1908 15.9695 99.7136 15.9695C100.38 15.9695 101.001 15.4606 101.001 14.7692V13.8589ZM108.642 16.796L108.581 15.8495H108.545C108.168 16.5647 107.535 16.9298 106.651 16.9298C105.229 16.9298 104.176 15.6794 104.176 13.9202C104.176 12.0759 105.268 10.7768 106.759 10.7768C107.548 10.7768 108.107 11.0431 108.422 11.5783H108.448V8.1936H109.76V15.2068C109.76 15.7769 109.774 16.3108 109.809 16.796H108.642ZM108.448 13.3263C108.448 12.501 107.902 11.7971 107.068 11.7971C106.096 11.7971 105.502 12.6586 105.502 13.8714C105.502 15.0605 106.118 15.8745 107.041 15.8745C107.865 15.8745 108.448 15.158 108.448 14.309V13.3263ZM118.078 16.9298C116.356 16.9298 115.239 15.6432 115.239 13.8964C115.239 12.0759 116.38 10.7781 118.176 10.7781C119.876 10.7781 121.016 12.0034 121.016 13.8001C121.018 15.6432 119.841 16.9298 118.078 16.9298ZM118.127 11.7358C117.182 11.7358 116.575 12.6211 116.575 13.8589C116.575 15.073 117.194 15.9582 118.115 15.9582C119.038 15.9582 119.656 15.0117 119.656 13.8339C119.658 12.6336 119.052 11.7358 118.127 11.7358ZM128.065 16.796H126.753V13.41C126.753 12.3673 126.353 11.8446 125.564 11.8446C124.787 11.8446 124.254 12.5123 124.254 13.2888V16.796H122.942V12.5848C122.942 12.0634 122.93 11.5045 122.894 10.8981H124.047L124.108 11.8083H124.144C124.496 11.1782 125.212 10.7768 126.013 10.7768C127.251 10.7768 128.065 11.7233 128.065 13.2637V16.796ZM136.884 11.8821H135.442V14.7454C135.442 15.4744 135.694 15.8382 136.205 15.8382C136.436 15.8382 136.63 15.8132 136.786 15.7769L136.822 16.7722C136.568 16.8697 136.228 16.9185 135.806 16.9185C134.772 16.9185 134.155 16.3483 134.155 14.8554V11.8821H133.294V10.8993H134.155V9.81905L135.442 9.43019V10.8981H136.884V11.8821ZM143.822 16.796H142.513V13.435C142.513 12.3798 142.114 11.8459 141.324 11.8459C140.644 11.8459 140.012 12.3072 140.012 13.2412V16.796H138.702V8.1936H140.012V11.7358H140.038C140.451 11.0932 141.048 10.7768 141.811 10.7768C143.059 10.7768 143.822 11.7471 143.822 13.2888V16.796ZM150.931 14.1627H146.998C147.023 15.2793 147.762 15.9095 148.856 15.9095C149.438 15.9095 149.973 15.8119 150.446 15.6306L150.65 16.5409C150.092 16.7835 149.435 16.9047 148.671 16.9047C146.826 16.9047 145.735 15.7394 145.735 13.9327C145.735 12.1247 146.853 10.7656 148.524 10.7656C150.031 10.7656 150.976 11.8821 150.976 13.5688C150.985 13.7679 150.97 13.9672 150.931 14.1627ZM149.729 13.2287C149.729 12.3185 149.27 11.6758 148.432 11.6758C147.679 11.6758 147.084 12.331 146.999 13.2287H149.729Z" fill="white"/>
</g>
</g>
<defs>
<linearGradient id="paint0_linear_321_3120" x1="123.152" y1="50.1327" x2="123.152" y2="-130.191" gradientUnits="userSpaceOnUse">
<stop stop-color="#1A1A1A" stop-opacity="0.1"/>
<stop offset="0.123" stop-color="#212121" stop-opacity="0.151"/>
<stop offset="0.308" stop-color="#353535" stop-opacity="0.227"/>
<stop offset="0.532" stop-color="#575757" stop-opacity="0.318"/>
<stop offset="0.783" stop-color="#858585" stop-opacity="0.421"/>
<stop offset="1" stop-color="#B3B3B3" stop-opacity="0.51"/>
</linearGradient>
</defs>
</svg>
