<svg width="150" height="48" viewBox="0 0 150 48" fill="none" xmlns="http://www.w3.org/2000/svg">
<path d="M85.8194 16.041C85.8089 16.0305 85.8089 15.9048 85.8194 15.668C85.8299 15.4312 85.8425 15.1651 85.8529 14.8759C85.8634 14.5385 85.8823 14.155 85.9053 13.7276H90.6223C91.4333 13.7276 92.0892 13.8407 92.5879 14.067C93.0867 14.2933 93.4639 14.6307 93.7174 15.0771C93.9731 15.5234 94.1323 16.0871 94.1973 16.764C94.2602 17.4429 94.2685 18.235 94.2224 19.1403C94.2099 19.2786 94.2015 19.4609 94.1973 19.6872C94.1889 19.9135 94.1826 20.1482 94.1701 20.3913C94.1596 20.6344 94.1449 20.8691 94.1261 21.0954C94.1093 21.3217 94.0946 21.504 94.082 21.6444H83.9544V19.331H91.8734C91.9069 18.8427 91.9258 18.3964 91.9258 17.9898C91.9258 17.5833 91.8859 17.2397 91.8042 16.9547C91.7225 16.6697 91.5884 16.4475 91.404 16.2841C91.2175 16.1227 90.9576 16.041 90.6202 16.041H85.8173H85.8194ZM80.809 21.6444L81.1925 9.84665L83.6987 9.3584L83.3844 19.3289H84.3064V21.6423H80.809V21.6444ZM75.3271 19.331C75.7798 19.331 76.1004 19.2241 76.2932 19.0083C76.4839 18.7945 76.6033 18.4844 76.6494 18.0758L76.7206 16.9463C76.7668 16.5397 76.6808 16.2296 76.4587 16.0138C76.2366 15.8 75.9013 15.6932 75.4487 15.6932C74.996 15.6932 74.6649 15.8 74.4575 16.0138C74.2479 16.2296 74.1222 16.5397 74.0761 16.9463L74.007 18.0758C73.9609 18.4823 74.0573 18.7924 74.294 19.0083C74.5308 19.2241 74.8766 19.331 75.3292 19.331M73.6591 11.4309L75.3125 9.7775L76.9658 11.4309L75.3125 13.0842L73.6591 11.4309ZM70.3356 21.6465V19.3331H71.5363C71.4777 19.0187 71.4651 18.7065 71.5007 18.3922L71.5699 17.0175C71.6034 16.5879 71.6851 16.1667 71.8129 15.756C71.9408 15.3432 72.1482 14.9765 72.4395 14.6517C72.7308 14.3269 73.1164 14.067 73.5962 13.8784C74.0782 13.6856 74.6943 13.5913 75.4487 13.5913C76.2031 13.5913 76.8296 13.6856 77.3284 13.8784C77.8271 14.0691 78.2252 14.3269 78.5207 14.6517C78.8162 14.9765 79.0173 15.3432 79.12 15.756C79.2248 16.1688 79.2604 16.5879 79.2248 17.0175L79.1536 18.3922C79.12 18.8322 79.0404 19.2472 78.9189 19.6369C78.7973 20.0246 78.594 20.3704 78.3111 20.6721C78.0262 20.9739 77.6469 21.2107 77.1712 21.3846C76.6955 21.5585 76.0794 21.6465 75.3271 21.6465H70.3335H70.3356ZM66.8382 19.3331L67.1504 9.84875L69.6567 9.3605L69.3444 19.331H70.6835V21.6444H59.4955L59.6002 19.331H62.0709L62.3139 12.8558L64.8202 12.3697L64.5603 19.331H66.8403L66.8382 19.3331ZM49.8372 11.433L51.4885 9.7796L53.0035 11.2947L54.5354 9.7796L56.1887 11.433L54.5354 13.0863L53.0035 11.5545L51.4885 13.0863L49.8372 11.433ZM50.8284 21.6486C50.074 21.6486 49.4516 21.5522 48.9571 21.3615C48.4647 21.1708 48.0728 20.911 47.7815 20.5883C47.4923 20.2635 47.2891 19.8989 47.1738 19.4902C47.0586 19.0837 46.9999 18.6625 46.9999 18.2204L47.1214 15.1232L49.6277 14.7753L49.5061 18.0821C49.5061 18.4886 49.613 18.7987 49.8267 19.0146C50.0405 19.2304 50.3758 19.3373 50.8263 19.3373H55.5936L55.8556 14.22L58.3618 13.7317L57.9616 21.6507H50.8284V21.6486ZM38.0394 21.6486L38.4208 9.85085L40.9271 9.36259L40.5436 21.6486H38.0394ZM33.6535 19.3352L33.9657 9.85085L36.472 9.36259L36.0906 21.6486H32.1929V19.3352H33.6556H33.6535ZM27.2831 23.807C27.6771 23.4487 27.9935 23.1344 28.2324 22.8682C28.4692 22.6021 28.5886 22.2815 28.5886 21.9106L28.9889 14.2368L31.4951 13.7674L31.2332 19.3373H32.5387V21.6507H31.1305L31.0949 22.2417C31.0949 22.753 30.9063 23.2517 30.5291 23.7379C30.1519 24.2261 29.5756 24.794 28.7982 25.4436L27.2852 23.807H27.2831ZM23.6642 19.3352L23.9261 14.2179L26.4323 13.7297L26.0489 21.6486H21.072V19.3352H23.6663H23.6642ZM19.8524 24.3644L21.5058 22.7111L23.0187 24.2261L24.5506 22.7111L26.2039 24.3644L24.5506 26.0178L23.0187 24.486L21.5058 26.0178L19.8524 24.3644ZM17.9224 21.6507L18.3038 9.85294L20.8101 9.36468L20.4978 19.3352H21.4199V21.6486H17.9224V21.6507ZM9.29099 11.4351L10.9444 9.78169L12.5956 11.4351L10.9444 13.0884L9.29099 11.4351ZM13.9724 19.3352C14.0059 18.8469 14.0248 18.4006 14.0248 17.994C14.0248 17.5875 13.985 17.2438 13.9032 16.9588C13.8215 16.6739 13.6874 16.4517 13.503 16.2883C13.3165 16.1269 13.0566 16.0452 12.7193 16.0452H10.3513C10.19 16.0452 10.0139 16.0536 9.82954 16.0724C9.64304 16.0892 9.45863 16.1248 9.27213 16.1772C9.08563 16.2296 8.91799 16.2988 8.76711 16.3868C8.61623 16.4727 8.49259 16.5858 8.40039 16.7262L8.27885 19.3373H13.9703L13.9724 19.3352ZM5.6364 21.6319L6.05341 14.2179L8.55965 13.7297L8.50726 14.7041C8.97037 14.3918 9.46492 14.1509 9.9867 13.9811C10.5085 13.8135 11.0303 13.7297 11.5521 13.7297H12.7193C13.5302 13.7297 14.1882 13.8428 14.6849 14.0691C15.1836 14.2954 15.5608 14.6328 15.8143 15.0792C16.07 15.5255 16.2293 16.0892 16.2921 16.7661C16.3571 17.445 16.3655 18.2371 16.3173 19.1424C16.3068 19.2807 16.2984 19.463 16.2921 19.6893C16.2858 19.9156 16.2775 20.1503 16.267 20.3934C16.2565 20.6365 16.2418 20.8712 16.223 21.0975C16.2062 21.3238 16.1915 21.5061 16.179 21.6465H8.13845L8.10492 22.0112C8.0693 22.4533 7.99177 22.8766 7.87023 23.281C7.74869 23.6876 7.54542 24.0522 7.26253 24.3791C6.97754 24.7039 6.59825 24.9616 6.12256 25.1523C5.64688 25.343 5.03289 25.4394 4.2785 25.4394C3.52412 25.4394 2.89546 25.3451 2.39044 25.1523C1.88542 24.9595 1.48727 24.7018 1.1918 24.3791C0.896334 24.0543 0.688875 23.6897 0.573621 23.281C0.458367 22.8745 0.418555 22.4533 0.452084 22.0112L0.816702 16.8604L3.35647 16.4245L2.95623 22.0803C2.9227 22.4868 3.01909 22.797 3.2517 23.0107C3.4822 23.2266 3.82587 23.3334 4.2785 23.3334C4.73114 23.3334 5.05594 23.2266 5.25292 23.0107C5.4499 22.797 5.56515 22.4868 5.60078 22.0803" fill="#96A3DE"/>
<path d="M30.6402 32.1034C30.6402 31.7828 30.5668 31.5565 30.4243 31.4203C30.2818 31.2862 30.0157 31.217 29.6259 31.217H27.9286L27.828 33.4823H29.4101C29.8145 33.4823 30.1205 33.3901 30.3279 33.2036C30.5354 33.0171 30.6381 32.6504 30.6381 32.1013M29.0811 35.1273H27.828L27.7526 37.9625H25.8519L26.1558 29.5322H29.5987C30.6192 29.5322 31.3464 29.7334 31.7759 30.1315C32.2055 30.5339 32.4214 31.1311 32.4214 31.9232C32.4214 32.3947 32.3837 32.8012 32.3082 33.1386C32.2307 33.476 32.1238 33.7589 31.9834 33.9873C31.8451 34.2157 31.6775 34.3959 31.4847 34.5321C31.2898 34.6662 31.076 34.7626 30.8392 34.8234L32.5492 37.9646H30.4998" fill="#96A3DE"/>
<path d="M33.4377 29.9284L34.6405 28.7256L35.8434 29.9284L34.6405 31.1313L33.4377 29.9284ZM33.3727 37.9668L33.664 31.8018H35.4871L35.2336 37.9668" fill="#96A3DE"/>
<path d="M42.3121 38.2704C42.3121 38.8446 42.2137 39.3035 42.0146 39.6514C41.8176 39.9971 41.5389 40.2612 41.1806 40.4414C40.8222 40.6237 40.3968 40.7452 39.9086 40.8018C39.4182 40.8605 38.8839 40.8898 38.3013 40.8898C38.0897 40.8898 37.8717 40.8793 37.6433 40.8584C37.4149 40.8353 37.2221 40.8144 37.0608 40.7871L37.264 39.3056C37.3814 39.3224 37.5008 39.3349 37.6245 39.3433C37.746 39.3517 37.8885 39.3559 38.0478 39.3559C38.4627 39.3559 38.8231 39.3475 39.1291 39.3307C39.4392 39.314 39.699 39.2616 39.9086 39.1715C40.1181 39.0835 40.2879 38.9473 40.4136 38.7608C40.5414 38.5743 40.6253 38.3102 40.6672 37.9645L38.4648 37.9771C37.9409 37.9771 37.5742 37.8157 37.3646 37.4951C37.153 37.1745 37.0482 36.7155 37.0482 36.1141L37.3018 31.7974H39.1228L38.8713 35.8375C38.8713 36.133 39.018 36.2797 39.3135 36.2797H40.6294L40.8956 31.7974H42.7187" fill="#96A3DE"/>
<path d="M47.7041 35.4979H46.2623C46.1094 35.4979 45.9857 35.5189 45.8893 35.5608C45.7908 35.6027 45.7175 35.6551 45.6672 35.72C45.6148 35.7829 45.5813 35.8583 45.5645 35.9422C45.5478 36.026 45.5394 36.1098 45.5394 36.1936C45.5394 36.3634 45.5771 36.4786 45.6525 36.5436C45.7301 36.6064 45.8558 36.6379 46.0318 36.6379H47.6391L47.702 35.4979H47.7041ZM45.1349 37.9664C44.8479 37.9664 44.6174 37.9245 44.4455 37.8386C44.2716 37.7548 44.1375 37.6353 44.039 37.4845C43.9426 37.3336 43.8776 37.1492 43.8441 36.9333C43.8106 36.7175 43.7938 36.4786 43.7938 36.2188C43.7938 35.5943 43.9908 35.1082 44.3889 34.7561C44.785 34.4062 45.355 34.2301 46.0989 34.2301H47.769C47.7774 34.0206 47.769 33.8508 47.7502 33.723C47.7292 33.5973 47.6789 33.5009 47.5972 33.4317C47.5175 33.3647 47.4023 33.3207 47.2556 33.2997C47.1089 33.2788 46.9119 33.2683 46.6668 33.2683H44.2108V31.7993H46.7443C47.2745 31.7993 47.7166 31.8433 48.0666 31.9272C48.4165 32.011 48.6952 32.1472 48.9027 32.3337C49.1101 32.5202 49.2547 32.7612 49.3386 33.0608C49.4224 33.3605 49.4643 33.7251 49.4643 34.1568L49.261 37.9664" fill="#96A3DE"/>
<path d="M54.1247 33.3838L52.8338 33.3712C52.5887 33.3712 52.4189 33.4362 52.3204 33.5661C52.224 33.6981 52.1758 33.8637 52.1758 34.0669L52.1109 35.6742C52.1109 35.8942 52.1612 36.064 52.2576 36.1855C52.3561 36.307 52.5258 36.3699 52.771 36.3699H53.9989L54.1247 33.3817V33.3838ZM50.3527 34.0669C50.3527 33.3335 50.5183 32.7698 50.8473 32.3758C51.1763 31.984 51.7023 31.7891 52.4294 31.7891H54.1645L54.2651 29.3834L56.1008 29.0293L55.822 37.9667H52.2387C51.6059 37.9667 51.1218 37.776 50.7886 37.3967C50.4554 37.0174 50.2878 36.4474 50.2878 35.6868" fill="#96A3DE"/>
<path d="M61.1111 37.9666L61.2242 34.0039C61.2242 33.7084 61.0775 33.5618 60.7821 33.5618L59.3382 33.5995L59.1853 37.9686H57.3622L57.666 29.3477L59.464 29.0312L59.3613 31.8036L61.6287 31.791C61.8885 31.791 62.1106 31.8392 62.2929 31.9314C62.4752 32.0236 62.6198 32.1578 62.7288 32.3317C62.8399 32.5035 62.9195 32.7131 62.9698 32.9583C63.0201 33.2034 63.0452 33.4738 63.0452 33.7692L62.9195 37.9728" fill="#96A3DE"/>
<path d="M71.6075 31.9903C71.6075 31.6446 71.5195 31.4057 71.3414 31.2758C71.1654 31.1437 70.9453 31.0788 70.6813 31.0788H69.5812L69.4932 32.9899H70.5053C70.631 32.9899 70.7609 32.9731 70.8909 32.9396C71.0229 32.9061 71.1402 32.8495 71.2471 32.7699C71.354 32.6902 71.4378 32.5855 71.5069 32.4597C71.574 32.334 71.6075 32.1768 71.6075 31.9903ZM71.8234 35.4479C71.8234 35.0749 71.7521 34.8214 71.6138 34.681C71.4734 34.5427 71.2764 34.4735 71.025 34.4735H69.4932L69.4303 36.3972H70.7987C70.9495 36.3972 71.0858 36.3909 71.2094 36.3721C71.3309 36.3553 71.4399 36.3134 71.5321 36.2463C71.6243 36.1793 71.6976 36.0829 71.7479 35.9613C71.7982 35.8398 71.8255 35.668 71.8255 35.45M73.724 35.4752C73.724 35.8545 73.6821 36.196 73.5983 36.4999C73.5124 36.8038 73.3762 37.0657 73.1855 37.2857C72.9948 37.5037 72.7433 37.6734 72.4332 37.7907C72.1209 37.9102 71.7375 37.9688 71.2806 37.9688H67.4961L67.7623 29.5386H71.0522C71.4923 29.5386 71.8632 29.5952 72.167 29.7083C72.4709 29.8215 72.7161 29.9807 72.9026 30.1903C73.0891 30.3977 73.2211 30.6513 73.3007 30.9489C73.3803 31.2464 73.4202 31.5838 73.4202 31.9547C73.4202 32.4011 73.3489 32.7468 73.2043 32.992C73.0618 33.2372 72.8208 33.4321 72.4835 33.5745C72.8376 33.6584 73.1331 33.8553 73.3699 34.1613C73.6046 34.4714 73.724 34.9073 73.724 35.4731" fill="#96A3DE"/>
<path d="M79.7843 37.9664H75.9117C75.3795 37.9664 75.0002 37.8072 74.7718 37.4908C74.5434 37.1743 74.4512 36.7175 74.4931 36.1161L74.6963 31.7993H76.5194L76.3162 35.8395C76.2994 36.135 76.4482 36.2816 76.7583 36.2816H78.0764L78.2923 31.7993H80.1154" fill="#96A3DE"/>
<path d="M85.5071 36.1184C85.4401 37.3841 84.5369 38.019 82.7976 38.019H81.0646L81.1149 36.5501H82.762C83.0323 36.5501 83.2607 36.5123 83.4514 36.4369C83.6421 36.3615 83.7448 36.2294 83.7616 36.045C83.77 35.9256 83.7029 35.8334 83.5583 35.7663C83.4158 35.6993 83.1497 35.6134 82.762 35.5128C82.4141 35.4269 82.1375 35.3368 81.9322 35.2404C81.7247 35.1419 81.5676 35.0245 81.4565 34.8862C81.3454 34.7479 81.2742 34.5803 81.2407 34.3854C81.2071 34.1905 81.1904 33.9495 81.1904 33.6624C81.1904 33.3334 81.2218 33.0505 81.2847 32.8138C81.3475 32.577 81.467 32.38 81.6388 32.2207C81.8106 32.0594 82.0453 31.942 82.3408 31.8666C82.6363 31.789 83.0156 31.7534 83.4808 31.7534H85.3793L85.2787 33.2224H83.6337C83.1015 33.2224 82.8354 33.3565 82.8354 33.6289C82.8354 33.7714 82.8877 33.8846 82.9946 33.9642C83.0994 34.0438 83.3089 34.1234 83.6212 34.1989C84.3295 34.3686 84.8282 34.6054 85.1132 34.9093C85.4003 35.2131 85.5302 35.6176 85.5071 36.1247" fill="#96A3DE"/>
<path fill-rule="evenodd" clip-rule="evenodd" d="M122.55 0L118.128 4.63319L124.268 10.9973H111.858L106.115 16.7369L129.945 16.6678L134.1 21.0935L99.4466 20.8881L125.391 48L129.681 43.1593L124.268 37.4868L135.754 37.5538L141.495 31.678H118.524L114.629 27.5289L149.219 27.8725" fill="#96A3DE"/>
</svg>
