<svg width="162" height="27" viewBox="0 0 162 27" fill="none" xmlns="http://www.w3.org/2000/svg">
<path d="M34.86 23.6862C34.06 23.6862 33.3 23.6062 32.58 23.4462C31.86 23.2862 31.22 23.0328 30.66 22.6862C30.1133 22.3262 29.68 21.8795 29.36 21.3462C29.0533 20.7995 28.9 20.1395 28.9 19.3662C28.9 19.2995 28.9 19.2328 28.9 19.1662C28.9 19.0862 28.9067 19.0262 28.92 18.9862H31.88C31.8667 19.0262 31.86 19.0795 31.86 19.1462C31.86 19.2128 31.86 19.2728 31.86 19.3262C31.86 19.7528 31.9733 20.1128 32.2 20.4062C32.44 20.6995 32.7867 20.9195 33.24 21.0662C33.6933 21.2128 34.22 21.2862 34.82 21.2862C35.2067 21.2862 35.5467 21.2662 35.84 21.2262C36.1467 21.1728 36.4133 21.1062 36.64 21.0262C36.88 20.9328 37.0733 20.8262 37.22 20.7062C37.38 20.5862 37.4933 20.4462 37.56 20.2862C37.64 20.1262 37.68 19.9462 37.68 19.7462C37.68 19.3862 37.56 19.0928 37.32 18.8662C37.0933 18.6395 36.7733 18.4462 36.36 18.2862C35.96 18.1262 35.5067 17.9795 35 17.8462C34.4933 17.7128 33.9733 17.5795 33.44 17.4462C32.9067 17.2995 32.3867 17.1262 31.88 16.9262C31.3733 16.7128 30.92 16.4595 30.52 16.1662C30.12 15.8728 29.8 15.4995 29.56 15.0462C29.32 14.5928 29.2 14.0462 29.2 13.4062C29.2 12.7262 29.34 12.1395 29.62 11.6462C29.9133 11.1528 30.32 10.7462 30.84 10.4262C31.36 10.1062 31.96 9.87285 32.64 9.72618C33.32 9.56618 34.06 9.48618 34.86 9.48618C35.6067 9.48618 36.3133 9.56618 36.98 9.72618C37.6467 9.87285 38.2333 10.1128 38.74 10.4462C39.2467 10.7795 39.64 11.1995 39.92 11.7062C40.2133 12.2128 40.36 12.8128 40.36 13.5062V13.7462H37.46V13.5862C37.46 13.2262 37.3533 12.9195 37.14 12.6662C36.9267 12.4128 36.6267 12.2128 36.24 12.0662C35.8533 11.9195 35.4 11.8462 34.88 11.8462C34.32 11.8462 33.84 11.8995 33.44 12.0062C33.0533 12.1128 32.7533 12.2728 32.54 12.4862C32.34 12.6862 32.24 12.9262 32.24 13.2062C32.24 13.5262 32.3533 13.7928 32.58 14.0062C32.82 14.2062 33.14 14.3862 33.54 14.5462C33.9533 14.6928 34.4133 14.8262 34.92 14.9462C35.4267 15.0662 35.9467 15.1995 36.48 15.3462C37.0133 15.4928 37.5333 15.6662 38.04 15.8662C38.5467 16.0662 39 16.3195 39.4 16.6262C39.8 16.9195 40.12 17.2862 40.36 17.7262C40.6 18.1662 40.72 18.6928 40.72 19.3062C40.72 20.3595 40.4667 21.2062 39.96 21.8462C39.4533 22.4862 38.76 22.9528 37.88 23.2462C37 23.5395 35.9933 23.6862 34.86 23.6862ZM43.0942 23.4462V9.72618H47.6342L49.5942 16.7462C49.6742 16.9995 49.7542 17.2995 49.8342 17.6462C49.9142 17.9928 49.9942 18.3395 50.0742 18.6862C50.1676 19.0195 50.2409 19.3195 50.2942 19.5862H50.4542C50.4809 19.3595 50.5276 19.0928 50.5942 18.7862C50.6609 18.4662 50.7342 18.1262 50.8142 17.7662C50.8942 17.4062 50.9809 17.0595 51.0742 16.7262L53.0342 9.72618H57.4942V23.4462H54.5542V16.9462C54.5542 16.3462 54.5542 15.7462 54.5542 15.1462C54.5676 14.5328 54.5809 13.9995 54.5942 13.5462C54.6209 13.0928 54.6342 12.7995 54.6342 12.6662H54.4742C54.4476 12.8128 54.3809 13.0862 54.2742 13.4862C54.1809 13.8728 54.0742 14.2862 53.9542 14.7262C53.8476 15.1662 53.7476 15.5462 53.6542 15.8662L51.5142 23.4462H48.9142L46.7542 15.8862C46.6742 15.6062 46.5809 15.2795 46.4742 14.9062C46.3809 14.5195 46.2876 14.1262 46.1942 13.7262C46.1142 13.3128 46.0342 12.9595 45.9542 12.6662H45.7942C45.8076 13.0262 45.8209 13.4595 45.8342 13.9662C45.8476 14.4595 45.8609 14.9728 45.8742 15.5062C45.8876 16.0262 45.8942 16.5062 45.8942 16.9462V23.4462H43.0942ZM59.1356 23.4462L64.4156 9.72618H68.0956L73.3756 23.4462H70.1556L69.1756 20.7462H63.1956L62.2156 23.4462H59.1356ZM64.0556 18.3462H68.3156L67.0956 14.9662C67.0423 14.8195 66.9756 14.6462 66.8956 14.4462C66.829 14.2328 66.7556 13.9995 66.6756 13.7462C66.5956 13.4928 66.5156 13.2462 66.4356 13.0062C66.369 12.7528 66.3023 12.5262 66.2356 12.3262H66.1156C66.049 12.5795 65.9623 12.8795 65.8556 13.2262C65.749 13.5595 65.6423 13.8862 65.5356 14.2062C65.429 14.5128 65.3423 14.7662 65.2756 14.9662L64.0556 18.3462ZM75.0083 23.4462V9.72618H82.5283C83.5416 9.72618 84.3816 9.90618 85.0483 10.2662C85.7283 10.6262 86.2349 11.1328 86.5683 11.7862C86.9016 12.4262 87.0683 13.1662 87.0683 14.0062C87.0683 14.8995 86.8683 15.6928 86.4683 16.3862C86.0683 17.0662 85.4883 17.5862 84.7283 17.9462L87.5283 23.4462H84.2283L81.8083 18.4462H77.9883V23.4462H75.0083ZM77.9883 16.0862H82.1283C82.7283 16.0862 83.1949 15.9062 83.5283 15.5462C83.8616 15.1728 84.0283 14.6728 84.0283 14.0462C84.0283 13.6462 83.9549 13.3062 83.8083 13.0262C83.6616 12.7328 83.4483 12.5128 83.1683 12.3662C82.8883 12.2195 82.5416 12.1462 82.1283 12.1462H77.9883V16.0862ZM92.6461 23.4462V12.2262H88.2461V9.72618H100.066V12.2262H95.6461V23.4462H92.6461ZM104.339 23.4462L100.739 9.72618H103.899L105.899 17.9062C105.939 18.0262 105.979 18.2062 106.019 18.4462C106.059 18.6728 106.099 18.9128 106.139 19.1662C106.179 19.4195 106.212 19.6462 106.239 19.8462H106.339C106.365 19.6995 106.385 19.5328 106.399 19.3462C106.425 19.1595 106.452 18.9795 106.479 18.8062C106.519 18.6195 106.552 18.4462 106.579 18.2862C106.619 18.1262 106.645 17.9995 106.659 17.9062L108.519 9.72618H112.079L113.979 17.9062C114.019 18.0395 114.059 18.2195 114.099 18.4462C114.139 18.6728 114.179 18.9128 114.219 19.1662C114.259 19.4195 114.292 19.6462 114.319 19.8462H114.419C114.445 19.6995 114.472 19.5395 114.499 19.3662C114.539 19.1928 114.572 19.0195 114.599 18.8462C114.639 18.6595 114.679 18.4862 114.719 18.3262C114.759 18.1662 114.792 18.0262 114.819 17.9062L116.799 9.72618H119.659L116.039 23.4462H112.639L110.619 15.0062C110.579 14.8195 110.532 14.6062 110.479 14.3662C110.439 14.1128 110.399 13.8662 110.359 13.6262C110.319 13.3862 110.285 13.1728 110.259 12.9862H110.179C110.152 13.1728 110.119 13.3928 110.079 13.6462C110.052 13.8995 110.012 14.1462 109.959 14.3862C109.919 14.6262 109.879 14.8328 109.839 15.0062L107.839 23.4462H104.339ZM119.194 23.4462L124.474 9.72618H128.154L133.434 23.4462H130.214L129.234 20.7462H123.254L122.274 23.4462H119.194ZM124.114 18.3462H128.374L127.154 14.9662C127.101 14.8195 127.034 14.6462 126.954 14.4462C126.888 14.2328 126.814 13.9995 126.734 13.7462C126.654 13.4928 126.574 13.2462 126.494 13.0062C126.428 12.7528 126.361 12.5262 126.294 12.3262H126.174C126.108 12.5795 126.021 12.8795 125.914 13.2262C125.808 13.5595 125.701 13.8862 125.594 14.2062C125.488 14.5128 125.401 14.7662 125.334 14.9662L124.114 18.3462ZM135.067 23.4462V9.72618H142.587C143.6 9.72618 144.44 9.90618 145.107 10.2662C145.787 10.6262 146.294 11.1328 146.627 11.7862C146.96 12.4262 147.127 13.1662 147.127 14.0062C147.127 14.8995 146.927 15.6928 146.527 16.3862C146.127 17.0662 145.547 17.5862 144.787 17.9462L147.587 23.4462H144.287L141.867 18.4462H138.047V23.4462H135.067ZM138.047 16.0862H142.187C142.787 16.0862 143.254 15.9062 143.587 15.5462C143.92 15.1728 144.087 14.6728 144.087 14.0462C144.087 13.6462 144.014 13.3062 143.867 13.0262C143.72 12.7328 143.507 12.5128 143.227 12.3662C142.947 12.2195 142.6 12.1462 142.187 12.1462H138.047V16.0862ZM149.676 23.4462V9.72618H160.636V12.1662H152.676V15.2262H159.716V17.6462H152.676V20.9862H160.756V23.4462H149.676Z" fill="white"/>
<path d="M12.5772 4.92593C12.8116 4.50315 12.946 4.01733 12.946 3.49999C12.946 1.87294 11.6269 0.553792 9.99984 0.553792C8.37279 0.553792 7.05365 1.87294 7.05365 3.49999C7.05365 4.01759 7.1878 4.50341 7.42251 4.92593L7.42121 4.92515C7.76246 5.96271 7.42121 6.44592 7.42121 6.44592L9.99958 6.44592L12.578 6.44592C12.578 6.44592 12.2367 5.9627 12.578 4.92515L12.5772 4.92593Z" fill="white"/>
<path d="M20 6.44592L20 24.382C20 25.523 19.0768 26.4462 17.94 26.4462L0 26.4462L-3.25486e-07 18.9999C-3.25486e-07 18.9999 0.483738 18.6574 1.51999 18.9999C1.94329 19.2339 2.4312 19.3667 2.94698 19.3667C4.57585 19.3667 5.89395 18.0484 5.89395 16.4197C5.89395 14.795 4.57559 13.4728 2.94698 13.4728C2.43094 13.4728 1.9472 13.6098 1.52389 13.8437C0.483999 14.1824 -5.50872e-07 13.8437 -5.50872e-07 13.8437L-8.74239e-07 6.44592L20 6.44592Z" fill="white"/>
</svg>
